#N canvas 235 106 700 525 8;
#X floatatom 220 257 5 0 0 0 - - -;
#X floatatom 156 258 5 0 0 0 - - -;
#X floatatom 284 258 5 0 0 0 - - -;
#X floatatom 150 376 5 0 0 0 - - -;
#X floatatom 136 297 5 0 0 0 - - -;
#X obj 93 322 3dp_view rota;
#X obj 274 321 metro 40;
#X obj 274 344 int-control;
#X obj 274 300 tgl 15 0 empty empty empty 0 -6 0 8 -262144 -1 -1 0
1;
#X obj 93 214 3dp_color;
#X floatatom 174 101 5 0 0 0 - - -;
#X floatatom 220 101 5 0 0 0 - - -;
#X floatatom 265 101 5 0 0 0 - - -;
#X floatatom 309 101 5 0 0 0 - - -;
#X obj 174 42 vsl 15 50 0 1 0 1 empty empty empty 0 -8 0 8 -262144
-1 -1 4900 1;
#X obj 220 41 vsl 15 50 0 1 0 1 empty empty empty 0 -8 0 8 -262144
-1 -1 4900 1;
#X obj 265 41 vsl 15 50 0 1 0 1 empty empty empty 0 -8 0 8 -262144
-1 -1 4900 1;
#X obj 311 40 vsl 15 50 0 1 0 1 empty empty empty 0 -8 0 8 -262144
-1 -1 2100 1;
#X obj 296 283 loadbang;
#X obj 93 190 3dp_blend;
#X obj 93 277 3dp_view transxyz 3.3 -1 1.8;
#X obj 62 390 3dp_draw sphere 4;
#X obj 93 237 3dp_view scale;
#X floatatom 259 192 5 0 0 0 - - -;
#X msg 320 176 0.5;
#X obj 332 130 loadbang;
#X floatatom 178 360 5 0 0 0 - - -;
#X obj 277 402 metro 1000;
#X obj 277 377 tgl 15 0 empty empty empty 0 -6 0 8 -262144 -1 -1 0
1;
#X obj 277 431 random 50;
#X floatatom 207 377 5 0 0 0 - - -;
#X obj 277 455 random 50;
#X obj 277 477 random 1000;
#X obj 173 20 / 1000;
#X floatatom 230 477 5 0 0 0 - - -;
#X floatatom 183 484 5 0 0 0 - - -;
#X obj 62 350 3dp_push;
#X obj 114 420 3dp_draw wsphere 4;
#X obj 63 68 inlet;
#X obj 99 485 outlet;
#X obj 128 40 inlet;
#X connect 0 0 20 2;
#X connect 1 0 20 1;
#X connect 2 0 20 3;
#X connect 3 0 21 2;
#X connect 3 0 37 2;
#X connect 4 0 5 1;
#X connect 4 0 5 2;
#X connect 4 0 5 4;
#X connect 5 0 36 0;
#X connect 6 0 7 0;
#X connect 7 0 4 0;
#X connect 8 0 6 0;
#X connect 9 1 22 0;
#X connect 10 0 9 1;
#X connect 11 0 9 2;
#X connect 12 0 9 3;
#X connect 13 0 9 4;
#X connect 14 0 10 0;
#X connect 15 0 11 0;
#X connect 16 0 12 0;
#X connect 17 0 13 0;
#X connect 18 0 8 0;
#X connect 18 0 28 0;
#X connect 19 0 9 0;
#X connect 20 0 5 0;
#X connect 22 0 20 0;
#X connect 23 0 22 1;
#X connect 24 0 22 1;
#X connect 25 0 24 0;
#X connect 26 0 21 3;
#X connect 26 0 37 3;
#X connect 27 0 29 0;
#X connect 27 0 31 0;
#X connect 27 0 32 0;
#X connect 28 0 27 0;
#X connect 29 0 26 0;
#X connect 30 0 21 4;
#X connect 30 0 37 4;
#X connect 31 0 30 0;
#X connect 32 0 33 0;
#X connect 32 0 16 0;
#X connect 33 0 14 0;
#X connect 34 0 21 4;
#X connect 34 0 37 4;
#X connect 35 0 26 0;
#X connect 36 0 21 0;
#X connect 36 1 37 0;
#X connect 37 0 39 0;
#X connect 38 0 19 0;
#X connect 40 0 37 1;
