#N canvas 425 332 1001 619 10;
#X obj 11 79 3dp_windowcontext;
#X obj 12 120 3dp_push;
#X obj 11 57 metro 40;
#X obj 11 29 tgl 15 0 empty empty empty 0 -6 0 8 -262144 -1 -1 1 1
;
#X msg 101 32 200;
#X msg 62 32 40;
#X obj 13 356 3dp_push;
#X obj 14 385 3dp_push;
#X obj 250 590 tgl 18 0 empty empty storm 0 -6 0 4 -257472 -1 -1 0
1;
#X msg 162 315 1;
#X obj 162 288 loadbang;
#X obj 512 93 spigot;
#X obj 560 92 tgl 18 0 empty empty pantalla 0 -6 0 4 -261689 -1 -1
1 1;
#X obj 836 526 spigot;
#X obj 884 525 tgl 18 0 empty empty bola 0 -6 0 4 -261681 -1 -1 0 1
;
#X obj 210 810 3dp_storm;
#X floatatom 234 733 5 0 0 0 - - -;
#X floatatom 246 791 5 0 0 0 - - -;
#X obj 237 713 hsl 128 15 -10 10 0 1 empty empty empty -2 -6 0 8 -262144
-1 -1 10050 1;
#X obj 249 753 hsl 128 15 0 400 0 0 empty empty empty -2 -6 0 8 -262144
-1 -1 0 1;
#X msg 234 688 0;
#X msg 283 732 0;
#X obj 790 149 spigot;
#X obj 845 212 tgl 18 0 empty empty bola 0 -6 0 4 -260818 -1 -1 0 1
;
#X obj 1069 99 3dp_electricball;
#X obj 1063 75 3dp_view transxyz;
#X floatatom 1102 35 5 0 0 0 - - -;
#X floatatom 1127 52 5 0 0 0 - - -;
#X floatatom 1174 28 5 0 0 0 - - -;
#X obj 1069 2 spigot;
#X obj 1106 -25 tgl 18 0 empty empty electric_ball 0 -6 0 4 -228992
-1 -1 0 1;
#X obj 26 255 3dp_push;
#X obj 1510 527 3dp_cangrejo;
#X obj 1503 455 spigot;
#X obj 1540 432 tgl 18 0 empty empty cangrejo 0 -6 0 8 -225271 -1 -1
0 1;
#X obj 24 275 3dp_push;
#X obj 598 132 hradio 8 1 0 4 empty empty empty 0 -6 0 8 -262144 -1
-1 0;
#X obj 805 204 hradio 8 1 0 4 empty empty empty 0 -6 0 8 -262144 -1
-1 0;
#X floatatom 896 217 5 0 0 0 - - -;
#X obj 898 156 vsl 15 50 0 1 0 1 empty empty empty 0 -8 0 8 -233017
-1 -1 3038 1;
#X floatatom 944 552 5 0 0 0 - - -;
#X obj 923 513 vsl 15 50 0 1 0 1 empty empty empty 0 -8 0 8 -233017
-1 -1 2058 1;
#X floatatom 1600 494 5 0 0 0 - - -;
#X obj 1602 433 vsl 15 50 0 1 0 1 empty empty empty 0 -8 0 8 -233017
-1 -1 2352 1;
#X floatatom 1201 50 5 0 0 0 - - -;
#X obj 1203 -11 vsl 15 50 0 1 0 1 empty empty empty 0 -8 0 8 -233017
-1 -1 3838 1;
#X obj 586 58 vsl 15 50 0 1 0 1 empty empty empty 0 -8 0 8 -233017
-1 -1 4900 1;
#X floatatom 304 657 5 0 0 0 - - -;
#X obj 306 596 vsl 15 50 0 0.3 0 1 empty empty empty 0 -8 0 8 -233017
-1 -1 4900 1;
#X floatatom 861 179 5 0 0 0 - - -;
#X floatatom 634 126 5 0 0 0 - - -;
#X obj 330 -32 inlet toggle;
#X obj 12 -107 inlet pdp1;
#X obj 89 -107 inlet pdp2;
#X obj 13 404 3dp_push;
#X obj 597 404 spigot;
#X obj 647 404 tgl 18 0 empty empty pantalla 0 -6 0 4 -261689 -1 -1
0 1;
#X obj 637 468 hradio 8 1 0 4 empty empty empty 0 -6 0 8 -262144 -1
-1 0;
#X obj 690 415 vsl 15 50 0 1 0 1 empty empty empty 0 -8 0 8 -233017
-1 -1 4655 1;
#X floatatom 701 481 5 0 0 0 - - -;
#X obj 13 159 3dp_mouserotate2;
#X obj 744 -65 s \$1-bola1;
#X obj 802 -42 s \$1-bola2;
#X obj 857 -63 s \$1-electricball;
#X obj 914 -43 s \$1-cangrejo;
#X obj 995 -66 s \$1-storm;
#X obj 836 466 r \$1-bola2;
#X obj 787 101 r \$1-bola1;
#X obj 513 11 r \$1-pantalla1;
#X obj 1491 359 r \$1-cangrejo;
#X obj 248 530 r \$1-storm;
#X obj 595 344 r \$1-pantalla2;
#X obj 1106 -99 r \$1-electricball;
#X obj 886 -135 inlet OSC;
#X obj 923 -82 s \$1-general;
#X obj 143 72 r \$1-general;
#X obj 457 363 3dp_cubitos;
#X obj 634 333 3dp_explosion-W2;
#X obj 16 292 3dp_push;
#X obj 457 252 spigot;
#X obj 507 251 tgl 18 0 empty empty cubitos 0 -6 0 4 -261689 -1 -1
0 1;
#X floatatom 493 277 5 0 0 0 - - -;
#X obj 13 334 3dp_push;
#X obj 634 281 spigot;
#X obj 683 284 tgl 18 0 empty empty cubitos 0 -6 0 4 -261689 -1 -1
0 1;
#X obj 708 285 bng 15 250 50 0 empty empty empty 0 -6 0 8 -262144 -1
-1;
#X obj 643 -116 OSCroute /pantalla1 /pantalla2 /bola1 /bola2 /electricball
/cangrejo /storm /general /explosion /cubitos;
#X obj 964 -18 s \$1-explosion;
#X obj 1010 -41 s \$1-cubitos;
#X obj 635 240 r \$1-explosion;
#X obj 456 202 r \$1-cubitos;
#X obj 904 527 tgl 15 0 empty empty empty 0 -6 0 8 -262144 -1 -1 0
1;
#X obj 12 -55 texture_unit;
#X obj 165 -107 inlet pdp3;
#X obj 1637 530 tgl 15 0 empty empty empty 0 -6 0 8 -262144 -1 -1 0
1;
#X obj 419 209 vsl 15 50 0 1 0 1 empty empty empty 0 -8 0 8 -233017
-1 -1 4770 1;
#X floatatom 1527 560 5 0 0 2 tempo - -;
#X obj 1509 561 tgl 15 0 empty empty empty 0 -6 0 8 -262144 -1 -1 0
1;
#X floatatom 1533 589 5 0 0 2 articulacion - -;
#X floatatom 1549 617 5 0 0 2 toruslen - -;
#X floatatom 1627 565 5 0 0 2 tam_cubos - -;
#X floatatom 1640 593 5 0 0 2 tam_toros - -;
#X floatatom 1657 619 5 0 0 2 grosor_toros - -;
#X floatatom 1363 471 5 0 0 0 - - -;
#X obj 15 314 3dp_push;
#X obj 1060 195 3dp_push;
#X obj 313 61 random 100;
#X obj 259 40 metro 100;
#X obj 365 16 tgl 15 0 empty empty empty 0 -6 0 8 -262144 -1 -1 0 1
;
#X floatatom 163 27 5 0 0 0 - - -;
#X msg 1303 120 text Delirium Systems;
#X obj 1258 386 vsl 15 50 0 1 0 1 empty empty empty 0 -8 0 8 -233017
-1 -1 4606 1;
#X msg 1449 117 text data-j;
#X obj 258 64 / 100;
#X msg 1163 557 clearcycle \$1;
#X msg 1060 524 addcycle \$1;
#X obj 1037 493 hradio 15 1 0 8 empty empty empty 0 -6 0 8 -262144
-1 -1 0;
#X floatatom 1363 490 5 0 0 0 - - -;
#X msg 1022 328 open /home/caedes/CRYSTALSPACE/cal3d/data/paladin/paladin.cfg
;
#X msg 1182 600 setcycle \$1;
#X msg 1045 575 action \$1;
#X obj 1194 581 hradio 15 1 0 8 empty empty empty 0 -6 0 8 -262144
-1 -1 0;
#X obj 1164 536 hradio 15 1 0 8 empty empty empty 0 -6 0 8 -262144
-1 -1 0;
#X obj 1045 596 hradio 15 1 0 8 empty empty empty 0 -6 0 8 -262144
-1 -1 0;
#X obj 1172 140 spigot;
#X obj 1059 252 3dp_push;
#X obj 1163 407 spigot;
#X obj 1325 210 hradio 8 1 0 4 empty empty empty 0 -6 0 8 -262144 -1
-1 0;
#X floatatom 1368 197 5 0 0 0 - - -;
#X obj 1200 381 tgl 18 0 empty empty cal3d 0 -6 0 8 -260818 -1 -1 0
1;
#X obj 1229 155 tgl 18 0 empty empty texto 0 -6 0 8 -260818 -1 -1 0
1;
#X obj 631 -61 s \$1-pantalla1;
#X obj 685 -40 s \$1-pantalla2;
#X obj 1189 -124 s \$1-texto1;
#X obj 1246 -114 s \$1-texto2;
#X msg 1424 -110 text Delirium Systems;
#X msg 1611 -103 text data-j;
#X msg 1367 -132 font /usr/X11R6/lib/X11/fonts/TTF/bazaroni.ttf;
#X obj 1311 -19 spigot;
#X obj 1488 12 hradio 8 1 0 4 empty empty empty 0 -6 0 8 -262144 -1
-1 0;
#X floatatom 1505 -31 5 0 0 0 - - -;
#X obj 1350 -47 tgl 18 0 empty empty texto 0 -6 0 8 -260818 -1 -1 0
1;
#X obj 1060 221 3dp_push;
#X obj 1414 -75 3dp_text outline 20 8;
#X obj 1398 -193 r \$1-texto2;
#X floatatom 1362 509 5 0 0 0 - - -;
#X floatatom 416 122 5 0 0 0 - - -;
#X floatatom 438 142 5 0 0 0 - - -;
#X floatatom 460 122 5 0 0 0 - - -;
#X floatatom 704 559 5 0 0 0 - - -;
#X floatatom 724 584 5 0 0 0 - - -;
#X floatatom 734 604 5 0 0 0 - - -;
#X obj 10 100 3dp_blend;
#X msg 878 395 open /home/caedes/tutorial/tutorial.cfg;
#X msg 693 79 1;
#X msg 726 79 2;
#X msg 760 81 3;
#X obj 690 128 s \$0-tex1;
#X msg 1230 96 font /usr/X11R6/lib/X11/fonts/TTF/baveuse.ttf;
#X msg 1037 361 open /home/caedes/PERTSON/flaco/flaco.cfg;
#X obj 1261 35 r \$1-texto1;
#X obj 337 312 3dp_rotate;
#X obj 1079 -119 s \$1-cal3d1;
#X obj 1131 -142 s \$1-cal3d2;
#X floatatom 1264 806 5 0 0 0 - - -;
#X floatatom 1250 824 5 0 0 0 - - -;
#X obj 1199 724 vsl 15 50 0 1 0 1 empty empty empty 0 -8 0 8 -233017
-1 -1 4111 1;
#X msg 1104 895 clearcycle \$1;
#X msg 960 861 addcycle \$1;
#X obj 961 833 hradio 15 1 0 8 empty empty empty 0 -6 0 8 -262144 -1
-1 0;
#X floatatom 1254 792 5 0 0 0 - - -;
#X msg 963 666 open /home/caedes/CRYSTALSPACE/cal3d/data/paladin/paladin.cfg
;
#X msg 1123 938 setcycle \$1;
#X msg 986 913 action \$1;
#X obj 1135 919 hradio 15 1 0 8 empty empty empty 0 -6 0 8 -262144
-1 -1 0;
#X obj 1105 874 hradio 15 1 0 8 empty empty empty 0 -6 0 8 -262144
-1 -1 0;
#X obj 986 934 hradio 15 1 0 8 empty empty empty 0 -6 0 8 -262144 -1
-1 0;
#X obj 1104 745 spigot;
#X obj 1141 719 tgl 18 0 empty empty cal3d 0 -6 0 8 -260818 -1 -1 0
1;
#X floatatom 1270 846 5 0 0 0 - - -;
#X msg 978 699 open /home/caedes/PERTSON/flaco/flaco.cfg;
#X obj 1383 576 r \$1-cal3d2;
#X obj 1292 274 r \$1-cal3d1;
#X obj 1079 291 3dp_push;
#X obj 1106 -71 OSCroute /on /alpha /compose /rotate;
#X floatatom 1258 201 5 0 0 0 - - -;
#X obj 1268 141 vsl 15 50 0 1 0 1 empty empty empty 0 -8 0 8 -233017
-1 -1 4500 1;
#X obj 1383 -80 vsl 15 50 0 1 0 1 empty empty empty 0 -8 0 8 -233017
-1 -1 2400 1;
#X obj 13 448 3dp_push;
#X obj 211 611 spigot;
#X obj 1644 278 r \$1-light;
#X obj 1758 353 3dp_light;
#X text 1754 283 light source;
#X obj 1653 329 spigot;
#X obj 1719 285 tgl 15 0 empty empty empty 0 -6 0 8 -262144 -1 -1 0
1;
#X obj 1188 281 3dp_push;
#X obj 1709 318 hradio 8 1 0 4 empty empty empty 0 -6 0 8 -262144 -1
-1 0;
#X obj 13 140 3dp_push;
#X obj 1687 241 OSCroute /on /compose /rotate;
#X obj 1299 -134 s \$1-light;
#X obj 532 426 hradio 8 1 0 4 empty empty empty 0 -6 0 8 -262144 -1
-1 0;
#X obj 262 152 3dp_windowcontext;
#X obj 239 133 spigot;
#X obj 299 130 tgl 15 0 empty empty empty 0 -6 0 8 -262144 -1 -1 0
1;
#X obj 96 107 OSCroute /scale /center /texgain /rotx /roty /rotz /compose
/rotate /on /monitor;
#X obj 1001 556 loadbang;
#X obj 896 311 loadbang;
#X obj 424 63 loadbang;
#X obj 938 626 hradio 8 1 0 4 empty empty empty 0 -6 0 8 -262144 -1
-1 0;
#X obj 935 647 + 1;
#X obj 871 271 hradio 8 1 0 4 empty empty empty 0 -6 0 8 -262144 -1
-1 0;
#X obj 868 292 + 1;
#X msg 887 348 1 1;
#X msg 994 616 2 1;
#X obj 1186 517 3dp_cal3d 0.02 8;
#X obj 1108 850 3dp_cal3d 0.02 8;
#X obj 394 165 3dp_rotate;
#X obj 597 508 3dp_rotate;
#X obj 817 554 3dp_rotate;
#X obj 737 174 3dp_rotate;
#X obj 1686 504 3dp_rotate;
#X obj 211 633 3dp_rotate;
#X obj 1358 -12 3dp_rotate;
#X obj 1174 199 3dp_rotate;
#X obj 1165 466 3dp_rotate;
#X obj 16 191 3dp_rotate;
#X obj 1106 794 3dp_rotate;
#X obj 1020 50 3dp_rotate;
#X obj 1758 303 3dp_rotate;
#X obj 255 -106 inlet webcam;
#X obj 23 491 spigot;
#X obj 20 532 3dp_snap image/*/* 320 240;
#X obj 16 581 outlet;
#X obj 60 467 tgl 15 0 empty empty empty 0 -6 0 8 -262144 -1 -1 0 1
;
#X obj 85 434 r startrecord;
#X msg 252 215 dim 320 240;
#X obj 232 186 r tres20;
#X obj 296 193 r seis40;
#X obj 890 66 texture_receiver;
#X obj 690 107 texture_receiver;
#X obj 677 510 texture_receiver;
#X obj 937 596 texture_receiver;
#X obj 928 240 texture_receiver;
#X obj 494 335 texture_receiver;
#X obj 224 773 texture_receiver;
#X obj 512 149 3dp_superfor;
#X obj 1398 -170 OSCroute /on /compose /text /superfor /separacion
/rotate /alpha /font /sfauto;
#X obj 644 73 tgl 15 0 empty empty empty 0 -6 0 8 -262144 -1 -1 0 1
;
#X obj 1174 176 3dp_superfor;
#X obj 784 237 3dp_superfor;
#X obj 598 479 3dp_superfor;
#X obj 1359 34 3dp_superfor;
#X obj 474 387 3dp_superfor;
#X obj 816 620 3dp_superfor;
#X msg 252 238 dim 640 480;
#X obj 634 263 OSCroute /on /rotate /compose;
#X obj 641 303 3dp_compose;
#X obj 744 311 3dp_rotate;
#X obj 1508 502 3dp_compose;
#X obj 1758 328 3dp_compose;
#X obj 512 114 3dp_compose;
#X obj 1357 12 3dp_compose;
#X obj 598 430 3dp_compose;
#X obj 836 592 3dp_compose;
#X obj 741 196 3dp_compose;
#X obj 368 357 3dp_compose;
#X obj 210 662 3dp_compose;
#X obj 1163 440 3dp_compose;
#X obj 1174 224 3dp_compose;
#X obj 15 218 3dp_compose;
#X obj 1104 770 3dp_compose;
#X obj 1055 30 3dp_compose;
#X floatatom 825 336 5 0 0 0 - - -;
#X obj 827 275 vsl 15 50 0 1 0 1 empty empty empty 0 -8 0 8 -233017
-1 -1 196 1;
#X obj 234 356 spigot;
#X obj 298 331 tgl 18 0 empty empty pantalla 0 -6 0 4 -261689 -1 -1
0 1;
#X obj 262 411 hradio 8 1 0 4 empty empty empty 0 -6 0 8 -262144 -1
-1 0;
#X obj 341 342 vsl 15 50 0 1 0 1 empty empty empty 0 -8 0 8 -233017
-1 -1 4655 1;
#X floatatom 328 439 5 0 0 0 - - -;
#X obj 234 466 3dp_rotate;
#X obj 235 437 3dp_superfor;
#X obj 235 382 3dp_compose;
#X obj 28 425 3dp_push;
#X obj 238 501 3dp_turbina;
#X obj 982 -181 OSCroute /cal3d1 /cal3d2 /text1 /text2 /light /textureunit
/turbina;
#X obj 153 239 r \$1-turbina;
#X obj 332 478 3dp_view scale 0.01;
#X obj 1310 451 texture_receiver;
#X obj 1334 806 texture_receiver;
#X msg 1048 630 flipuv;
#X obj 1185 493 3dp_superfor;
#X obj 1216 267 OSCroute /on /alpha /compose /speed /resolution /model
/rotate /setcycle /frame /texture /superfor;
#X obj 1106 815 3dp_superfor;
#X obj 1191 636 OSCroute /on /alpha /compose /speed /resolution /model
/rotate /setcycle /frame /texture /superfor;
#X obj 349 197 OSCroute /on /separacion /size /compose /alpha /rotate
/superfor /texture /cubes;
#X obj 855 651 3dp_bola;
#X obj 804 268 3dp_bola;
#X obj 766 417 OSCroute /on /alpha /compose /rotate /texture /superfor
/object;
#X obj 771 116 OSCroute /on /alpha /superfor /separacion /compose /rotate
/texture /object;
#X obj 512 173 3dp_bola;
#X obj 513 36 OSCroute /on /alpha /superfor /separacion /compose /rotate
/texture /object;
#X obj 462 -51 loadbang;
#X msg 453 -14 5 1;
#X obj 598 534 3dp_bola;
#X obj 536 443 loadbang;
#X msg 527 480 5 1;
#X obj 571 357 OSCroute /on /alpha /superfor /separacion /compose /rotate
/texture /object;
#X obj 248 557 OSCroute /on /alpha /scale /rot /distorsion /compose
/rotate /texture /object /for;
#X obj 1480 479 3dp_superfor;
#X obj 1454 512 hradio 8 1 0 4 empty empty empty 0 -6 0 8 -262144 -1
-1 0;
#X floatatom 1456 528 5 0 0 0 - - -;
#X obj 1764 445 tgl 15 0 empty empty empty 17 7 0 10 -262144 -1 -1
0 1;
#X obj 1802 543 + 1;
#X obj 1733 542 float;
#X floatatom 1811 584 5 0 0 0 - - -;
#X obj 1770 496 metro 40;
#X floatatom 1849 551 5 0 0 0 - - -;
#X obj 1418 385 OSCroute /on /alpha /compose /activate /speed /toruslen
/cubesize /torussize /toruswidth /articulate /rotate /superfor /articulateanim
/articulateanimspeed;
#X obj 168 274 OSCroute /on /alpha /superfor /separacion /compose /rotate
/control;
#X floatatom 1466 137 5 0 0 0 - - -;
#X floatatom 1507 136 5 0 0 0 - - -;
#X floatatom 1545 136 5 0 0 0 - - -;
#X obj 1546 167 / 100;
#X obj 1466 167 / 100;
#X obj 1506 166 / 100;
#X floatatom 1599 136 5 0 0 0 - - -;
#X obj 1600 167 / 100;
#X obj 1452 210 exp;
#X obj 1731 154 tgl 15 0 empty empty empty 17 7 0 10 -262144 -1 -1
0 1;
#X obj 1451 235 - 1;
#X obj 1515 211 < 0;
#X obj 1240 44 OSCroute /on /compose /text /superfor /separacion /rotate
/alpha /font /extrusion /frontsize /backsize /glyphseparation /reverse
/rendertype /fontsize;
#X obj 1660 35 unpack s;
#X msg 1653 126 reverse \$1;
#X msg 1661 60 rendertype \$1;
#X msg 1662 92 fontsize \$1;
#X obj 1298 165 3dp_fttext extrude 0 0 0 0;
#X connect 0 0 152 0;
#X connect 0 1 60 1;
#X connect 1 0 197 0;
#X connect 1 1 22 0;
#X connect 2 0 0 0;
#X connect 2 0 202 0;
#X connect 3 0 2 0;
#X connect 4 0 2 1;
#X connect 5 0 2 1;
#X connect 6 0 7 0;
#X connect 6 1 13 0;
#X connect 7 0 54 0;
#X connect 7 1 11 0;
#X connect 8 0 189 1;
#X connect 10 0 9 0;
#X connect 11 0 260 0;
#X connect 12 0 11 1;
#X connect 13 0 218 0;
#X connect 14 0 13 1;
#X connect 16 0 15 2;
#X connect 17 0 15 3;
#X connect 18 0 16 0;
#X connect 19 0 17 0;
#X connect 20 0 18 0;
#X connect 21 0 19 0;
#X connect 22 0 219 0;
#X connect 23 0 22 1;
#X connect 25 0 24 0;
#X connect 26 0 25 1;
#X connect 27 0 25 2;
#X connect 28 0 25 3;
#X connect 29 0 271 0;
#X connect 30 0 29 1;
#X connect 31 0 35 0;
#X connect 31 1 33 0;
#X connect 33 0 308 0;
#X connect 34 0 33 1;
#X connect 35 0 29 0;
#X connect 35 1 78 0;
#X connect 36 0 245 1;
#X connect 37 0 249 1;
#X connect 38 0 264 1;
#X connect 39 0 38 0;
#X connect 40 0 263 1;
#X connect 41 0 40 0;
#X connect 42 0 258 1;
#X connect 43 0 42 0;
#X connect 44 0 271 1;
#X connect 45 0 44 0;
#X connect 46 0 260 1;
#X connect 47 0 266 1;
#X connect 48 0 47 0;
#X connect 49 0 249 2;
#X connect 50 0 245 2;
#X connect 51 0 3 0;
#X connect 52 0 92 0;
#X connect 53 0 92 1;
#X connect 54 0 282 0;
#X connect 54 1 55 0;
#X connect 55 0 262 0;
#X connect 56 0 55 1;
#X connect 57 0 250 1;
#X connect 58 0 262 1;
#X connect 59 0 250 2;
#X connect 60 0 225 0;
#X connect 66 0 297 0;
#X connect 67 0 298 0;
#X connect 68 0 300 0;
#X connect 69 0 317 0;
#X connect 70 0 307 0;
#X connect 71 0 306 0;
#X connect 72 0 184 0;
#X connect 73 0 86 0;
#X connect 73 0 284 0;
#X connect 75 0 204 0;
#X connect 78 0 104 0;
#X connect 78 1 79 0;
#X connect 79 0 161 0;
#X connect 80 0 79 1;
#X connect 81 0 76 1;
#X connect 82 0 6 0;
#X connect 82 1 83 0;
#X connect 83 0 256 0;
#X connect 84 0 83 1;
#X connect 85 0 77 1;
#X connect 86 0 131 0;
#X connect 86 1 132 0;
#X connect 86 2 61 0;
#X connect 86 3 62 0;
#X connect 86 4 63 0;
#X connect 86 5 64 0;
#X connect 86 6 65 0;
#X connect 86 7 74 0;
#X connect 86 8 87 0;
#X connect 86 9 88 0;
#X connect 89 0 255 0;
#X connect 90 0 294 0;
#X connect 93 0 92 2;
#X connect 94 0 32 8;
#X connect 95 0 265 1;
#X connect 96 0 32 2;
#X connect 97 0 32 1;
#X connect 98 0 32 3;
#X connect 99 0 32 4;
#X connect 100 0 32 5;
#X connect 101 0 32 6;
#X connect 102 0 32 7;
#X connect 103 0 214 2;
#X connect 104 0 82 0;
#X connect 104 1 105 0;
#X connect 105 0 142 0;
#X connect 105 1 124 0;
#X connect 106 0 113 0;
#X connect 107 0 106 0;
#X connect 108 0 107 0;
#X connect 109 0 106 1;
#X connect 110 0 336 0;
#X connect 111 0 267 1;
#X connect 112 0 336 0;
#X connect 113 0 245 2;
#X connect 114 0 214 0;
#X connect 115 0 214 0;
#X connect 116 0 115 0;
#X connect 117 0 214 3;
#X connect 118 0 214 0;
#X connect 119 0 214 0;
#X connect 120 0 214 0;
#X connect 121 0 119 0;
#X connect 122 0 114 0;
#X connect 123 0 120 0;
#X connect 124 0 248 0;
#X connect 125 0 183 0;
#X connect 125 1 195 0;
#X connect 126 0 267 0;
#X connect 127 0 248 1;
#X connect 128 0 248 2;
#X connect 129 0 126 1;
#X connect 130 0 124 1;
#X connect 135 0 143 0;
#X connect 136 0 143 0;
#X connect 137 0 143 0;
#X connect 138 0 222 0;
#X connect 139 0 251 1;
#X connect 140 0 251 2;
#X connect 141 0 138 1;
#X connect 142 0 125 0;
#X connect 142 1 138 0;
#X connect 144 0 246 0;
#X connect 145 0 214 4;
#X connect 146 0 216 1;
#X connect 147 0 216 2;
#X connect 148 0 216 3;
#X connect 149 0 217 1;
#X connect 150 0 217 2;
#X connect 151 0 217 3;
#X connect 152 0 1 0;
#X connect 153 0 214 0;
#X connect 154 0 239 0;
#X connect 155 0 239 0;
#X connect 156 0 239 0;
#X connect 158 0 336 0;
#X connect 159 0 214 0;
#X connect 160 0 331 0;
#X connect 161 0 265 0;
#X connect 164 0 215 2;
#X connect 165 0 215 3;
#X connect 166 0 270 1;
#X connect 167 0 215 0;
#X connect 168 0 215 0;
#X connect 169 0 168 0;
#X connect 170 0 215 3;
#X connect 171 0 215 0;
#X connect 172 0 215 0;
#X connect 173 0 215 0;
#X connect 174 0 172 0;
#X connect 175 0 167 0;
#X connect 176 0 173 0;
#X connect 177 0 270 0;
#X connect 178 0 177 1;
#X connect 179 0 215 4;
#X connect 180 0 215 0;
#X connect 181 0 293 0;
#X connect 182 0 291 0;
#X connect 183 1 177 0;
#X connect 184 0 30 0;
#X connect 184 1 45 0;
#X connect 184 2 271 2;
#X connect 184 3 227 4;
#X connect 185 0 268 1;
#X connect 186 0 185 0;
#X connect 187 0 261 1;
#X connect 188 0 230 0;
#X connect 188 1 189 0;
#X connect 189 0 221 0;
#X connect 190 0 198 0;
#X connect 193 0 228 0;
#X connect 194 0 193 1;
#X connect 195 0 126 0;
#X connect 197 0 60 0;
#X connect 197 1 193 0;
#X connect 198 0 194 0;
#X connect 198 1 259 2;
#X connect 198 2 228 4;
#X connect 200 0 252 2;
#X connect 201 0 152 0;
#X connect 202 0 201 0;
#X connect 203 0 202 1;
#X connect 204 1 60 5;
#X connect 204 3 60 2;
#X connect 204 4 60 3;
#X connect 204 5 60 4;
#X connect 204 6 269 2;
#X connect 204 7 225 4;
#X connect 204 8 3 0;
#X connect 204 9 203 0;
#X connect 205 0 213 0;
#X connect 205 0 289 0;
#X connect 206 0 212 0;
#X connect 207 0 12 0;
#X connect 208 0 209 0;
#X connect 209 0 295 2;
#X connect 210 0 211 0;
#X connect 211 0 296 2;
#X connect 212 0 296 2;
#X connect 213 0 295 2;
#X connect 216 0 299 0;
#X connect 217 0 303 0;
#X connect 218 0 263 0;
#X connect 219 0 264 0;
#X connect 220 0 32 0;
#X connect 221 0 266 0;
#X connect 222 0 261 0;
#X connect 223 0 268 0;
#X connect 224 0 290 0;
#X connect 225 0 269 0;
#X connect 226 0 292 0;
#X connect 227 0 25 0;
#X connect 228 0 259 0;
#X connect 229 0 92 3;
#X connect 230 0 231 0;
#X connect 231 1 232 0;
#X connect 233 0 230 1;
#X connect 234 0 233 0;
#X connect 235 0 0 0;
#X connect 235 0 201 0;
#X connect 236 0 235 0;
#X connect 237 0 254 0;
#X connect 238 0 299 1;
#X connect 238 0 336 1;
#X connect 239 0 157 0;
#X connect 240 0 303 1;
#X connect 241 0 295 1;
#X connect 242 0 296 1;
#X connect 243 0 76 2;
#X connect 244 0 15 1;
#X connect 245 0 216 0;
#X connect 246 0 141 0;
#X connect 246 1 261 2;
#X connect 246 2 143 0;
#X connect 246 3 251 3;
#X connect 246 4 251 2;
#X connect 246 5 222 4;
#X connect 246 6 261 1;
#X connect 246 7 143 0;
#X connect 248 0 223 0;
#X connect 249 0 296 0;
#X connect 250 0 217 0;
#X connect 251 0 143 0;
#X connect 252 0 76 0;
#X connect 253 0 295 0;
#X connect 254 0 0 0;
#X connect 255 0 84 0;
#X connect 255 0 85 0;
#X connect 255 1 257 4;
#X connect 255 2 256 2;
#X connect 256 0 257 0;
#X connect 257 0 77 0;
#X connect 258 0 220 0;
#X connect 259 0 191 0;
#X connect 260 0 245 0;
#X connect 261 0 251 0;
#X connect 262 0 250 0;
#X connect 263 0 253 0;
#X connect 264 0 249 0;
#X connect 265 0 252 0;
#X connect 266 0 15 0;
#X connect 267 0 224 0;
#X connect 268 0 336 0;
#X connect 269 0 31 0;
#X connect 270 0 226 0;
#X connect 271 0 227 0;
#X connect 272 0 256 1;
#X connect 273 0 272 0;
#X connect 274 0 281 0;
#X connect 275 0 274 1;
#X connect 276 0 280 1;
#X connect 277 0 281 1;
#X connect 278 0 280 2;
#X connect 279 0 286 0;
#X connect 280 0 279 0;
#X connect 281 0 280 0;
#X connect 282 0 188 0;
#X connect 282 1 274 0;
#X connect 284 0 162 0;
#X connect 284 1 163 0;
#X connect 284 2 133 0;
#X connect 284 3 134 0;
#X connect 284 4 199 0;
#X connect 284 5 92 4;
#X connect 285 0 318 0;
#X connect 286 0 283 0;
#X connect 287 0 214 1;
#X connect 288 0 215 1;
#X connect 289 0 214 0;
#X connect 289 0 215 0;
#X connect 290 0 214 0;
#X connect 291 0 129 0;
#X connect 291 1 111 0;
#X connect 291 2 267 2;
#X connect 291 3 214 2;
#X connect 291 4 214 3;
#X connect 291 5 214 0;
#X connect 291 6 224 4;
#X connect 291 7 121 0;
#X connect 291 8 214 4;
#X connect 291 9 287 0;
#X connect 291 10 290 3;
#X connect 292 0 215 0;
#X connect 293 0 178 0;
#X connect 293 1 166 0;
#X connect 293 2 270 2;
#X connect 293 3 215 2;
#X connect 293 4 215 3;
#X connect 293 5 215 0;
#X connect 293 6 226 4;
#X connect 293 7 174 0;
#X connect 293 8 215 4;
#X connect 293 9 288 0;
#X connect 293 10 292 3;
#X connect 294 0 80 0;
#X connect 294 1 81 0;
#X connect 294 2 76 3;
#X connect 294 3 265 2;
#X connect 294 4 95 0;
#X connect 294 5 161 4;
#X connect 294 6 252 3;
#X connect 294 7 243 0;
#X connect 294 8 76 7;
#X connect 297 0 14 0;
#X connect 297 1 41 0;
#X connect 297 2 263 2;
#X connect 297 3 218 4;
#X connect 297 4 241 0;
#X connect 297 5 253 3;
#X connect 297 6 295 3;
#X connect 298 0 23 0;
#X connect 298 1 39 0;
#X connect 298 2 249 3;
#X connect 298 3 49 0;
#X connect 298 4 264 2;
#X connect 298 5 219 4;
#X connect 298 6 242 0;
#X connect 298 7 296 3;
#X connect 300 0 12 0;
#X connect 300 1 46 0;
#X connect 300 2 245 3;
#X connect 300 3 50 0;
#X connect 300 4 260 2;
#X connect 300 5 216 4;
#X connect 300 6 238 0;
#X connect 300 7 299 3;
#X connect 301 0 302 0;
#X connect 302 0 299 2;
#X connect 304 0 305 0;
#X connect 305 0 303 2;
#X connect 306 0 56 0;
#X connect 306 1 58 0;
#X connect 306 2 250 3;
#X connect 306 3 59 0;
#X connect 306 4 262 2;
#X connect 306 5 217 4;
#X connect 306 6 240 0;
#X connect 306 7 303 3;
#X connect 307 0 8 0;
#X connect 307 1 48 0;
#X connect 307 3 18 0;
#X connect 307 4 19 0;
#X connect 307 5 266 2;
#X connect 307 6 221 4;
#X connect 307 7 244 0;
#X connect 307 8 15 5;
#X connect 307 9 15 4;
#X connect 308 0 258 0;
#X connect 309 0 308 1;
#X connect 310 0 308 2;
#X connect 311 0 315 0;
#X connect 312 0 313 1;
#X connect 312 0 314 0;
#X connect 313 0 312 0;
#X connect 314 0 32 3;
#X connect 315 0 313 0;
#X connect 316 0 312 1;
#X connect 317 0 34 0;
#X connect 317 1 43 0;
#X connect 317 2 258 2;
#X connect 317 3 32 8;
#X connect 317 4 32 2;
#X connect 317 5 32 4;
#X connect 317 6 32 5;
#X connect 317 7 32 6;
#X connect 317 8 32 7;
#X connect 317 9 32 3;
#X connect 317 9 313 1;
#X connect 317 10 220 4;
#X connect 317 11 308 3;
#X connect 317 12 311 0;
#X connect 317 13 312 1;
#X connect 318 0 275 0;
#X connect 318 1 277 0;
#X connect 318 2 280 3;
#X connect 318 3 280 2;
#X connect 318 4 281 2;
#X connect 318 5 279 4;
#X connect 318 6 283 2;
#X connect 319 0 323 0;
#X connect 320 0 324 0;
#X connect 321 0 322 0;
#X connect 322 0 336 4;
#X connect 323 0 336 2;
#X connect 324 0 336 3;
#X connect 325 0 326 0;
#X connect 326 0 336 5;
#X connect 327 0 329 0;
#X connect 328 0 333 0;
#X connect 329 0 336 2;
#X connect 331 0 130 0;
#X connect 331 1 268 2;
#X connect 331 2 336 0;
#X connect 331 3 248 3;
#X connect 331 4 248 2;
#X connect 331 5 223 4;
#X connect 331 6 268 1;
#X connect 331 7 336 0;
#X connect 331 8 327 0;
#X connect 331 9 336 3;
#X connect 331 10 336 4;
#X connect 331 11 336 5;
#X connect 331 12 333 0;
#X connect 331 13 332 0;
#X connect 331 14 335 0;
#X connect 332 0 334 0;
#X connect 333 0 336 0;
#X connect 334 0 336 0;
#X connect 335 0 336 0;
