#N canvas 0 32 995 619 8;
#X floatatom 150 376 5 0 0 0 - - -;
#X obj 28 323 3dp_draw sphere 4;
#X floatatom 178 360 5 0 0 0 - - -;
#X obj 277 402 metro 1000;
#X obj 277 377 tgl 15 0 empty empty empty 0 -6 0 8 -262144 -1 -1 0
1;
#X obj 277 431 random 50;
#X floatatom 207 377 5 0 0 0 - - -;
#X obj 277 455 random 50;
#X obj 277 477 random 1000;
#X floatatom 230 477 5 0 0 0 - - -;
#X floatatom 183 484 5 0 0 0 - - -;
#X obj 99 215 3dp_push;
#X obj 99 485 outlet;
#X obj 136 322 3dp_draw wsphere 4;
#X floatatom 334 377 5 0 0 0 - - -;
#X obj 137 287 spigot;
#X obj 168 259 tgl 15 0 empty empty empty 0 -6 0 8 -262144 -1 -1 0
1;
#X obj 63 69 inlet 3dp;
#X obj 128 40 inlet tex;
#X obj 28 291 spigot;
#X obj 53 270 tgl 15 0 empty empty empty 0 -6 0 8 -262144 -1 -1 0 1
;
#X obj 473 111 bng 15 250 50 0 empty autofiddle empty 0 -6 0 8 -43142
-24198 -1;
#X obj 495 110 bng 15 250 50 0 empty autoon empty 0 -6 0 8 -143491
-258699 -1;
#X obj 518 110 bng 15 250 50 0 empty autostep empty 0 -6 0 8 -62784
-44926 -1;
#X obj 539 133 random 360;
#X obj 257 320 3dp_draw cube 4;
#X obj 360 319 3dp_draw wcube 4;
#X obj 253 289 spigot;
#X obj 359 294 spigot;
#X obj 276 265 tgl 15 0 empty empty empty 0 -6 0 8 -262144 -1 -1 0
1;
#X obj 385 274 tgl 15 0 empty empty empty 0 -6 0 8 -262144 -1 -1 0
1;
#X obj 195 216 3dp_push;
#X obj 254 217 3dp_push;
#X floatatom 445 293 5 0 0 0 - - -;
#X obj 359 29 inlet object;
#X obj 482 288 spigot;
#X obj 588 293 spigot;
#X obj 505 264 tgl 15 0 empty empty empty 0 -6 0 8 -262144 -1 -1 1
1;
#X obj 614 273 tgl 15 0 empty empty empty 0 -6 0 8 -262144 -1 -1 0
1;
#X floatatom 674 292 5 0 0 0 - - -;
#X obj 330 196 3dp_push;
#X obj 406 197 3dp_push;
#X obj 353 72 route 1 2 3 4 5 6;
#X obj 483 312 3dp_view scalex 1.333;
#X obj 588 313 3dp_view scalex 1.333;
#X obj 470 26 inlet OSC;
#X obj 501 86 OSCroute;
#X obj 470 45 OSCroute /ball /ballmesh /cube /cubemesh /screen /screenmesh
;
#X obj 480 331 3dp_draw square 8;
#X obj 587 336 3dp_draw wsquare 4;
#X obj 498 198 3dp_push;
#X connect 0 0 1 2;
#X connect 0 0 13 2;
#X connect 2 0 1 3;
#X connect 2 0 13 3;
#X connect 3 0 5 0;
#X connect 3 0 7 0;
#X connect 3 0 8 0;
#X connect 4 0 3 0;
#X connect 5 0 2 0;
#X connect 6 0 1 4;
#X connect 6 0 13 4;
#X connect 7 0 6 0;
#X connect 9 0 1 4;
#X connect 9 0 13 4;
#X connect 10 0 2 0;
#X connect 11 0 31 0;
#X connect 11 1 19 0;
#X connect 14 0 3 1;
#X connect 15 0 13 0;
#X connect 16 0 15 1;
#X connect 17 0 11 0;
#X connect 18 0 1 1;
#X connect 18 0 25 1;
#X connect 18 0 48 1;
#X connect 19 0 1 0;
#X connect 20 0 19 1;
#X connect 21 0 5 0;
#X connect 21 0 7 0;
#X connect 23 0 24 0;
#X connect 27 0 25 0;
#X connect 28 0 26 0;
#X connect 29 0 27 1;
#X connect 30 0 28 1;
#X connect 31 0 32 0;
#X connect 31 1 15 0;
#X connect 32 0 40 0;
#X connect 32 1 28 0;
#X connect 33 0 26 2;
#X connect 34 0 42 0;
#X connect 35 0 43 0;
#X connect 36 0 44 0;
#X connect 37 0 35 1;
#X connect 38 0 36 1;
#X connect 39 0 49 2;
#X connect 40 0 41 0;
#X connect 40 1 27 0;
#X connect 41 0 50 0;
#X connect 41 1 35 0;
#X connect 42 0 20 0;
#X connect 42 1 16 0;
#X connect 42 2 29 0;
#X connect 42 3 30 0;
#X connect 42 4 37 0;
#X connect 42 5 38 0;
#X connect 43 0 48 0;
#X connect 44 0 49 0;
#X connect 45 0 47 0;
#X connect 47 0 20 0;
#X connect 47 1 16 0;
#X connect 47 2 29 0;
#X connect 47 3 30 0;
#X connect 47 4 37 0;
#X connect 47 5 38 0;
#X connect 50 1 36 0;
