#N canvas 347 137 652 528 10;
#X obj 167 364 3dp_push;
#X obj 218 434 3dp_view transxyz;
#X msg 276 354 normal;
#X obj 422 255 f;
#X floatatom 484 264 5 0 0 0 - - -;
#X msg 422 220 0;
#X obj 57 177 pdp_t p b;
#X obj 392 185 t b b;
#X msg 591 238 0.2;
#X msg 484 239 0;
#X obj 392 112 route press3;
#X obj 167 328 3dp_for 100;
#X obj 422 289 + 0.2;
#X obj 497 112 loadbang;
#X msg 519 238 0.01;
#N canvas 374 17 577 190 coordinates 0;
#X obj 51 100 *;
#X obj 51 72 elbat 100;
#X obj 165 99 *;
#X obj 165 71 elbat 100;
#X obj 276 97 *;
#X obj 276 69 elbat 100;
#X obj 51 19 inlet;
#X obj 125 18 inlet;
#X text 354 69 <- table read abstraction;
#X obj 51 130 outlet;
#X obj 165 127 outlet;
#X obj 276 125 outlet;
#X connect 0 0 9 0;
#X connect 1 0 0 0;
#X connect 2 0 10 0;
#X connect 3 0 2 0;
#X connect 4 0 11 0;
#X connect 5 0 4 0;
#X connect 6 0 1 0;
#X connect 6 0 3 0;
#X connect 6 0 5 0;
#X connect 7 0 0 1;
#X connect 7 0 2 1;
#X connect 7 0 4 1;
#X restore 239 403 pd coordinates;
#X msg 392 136 bang;
#X text 459 219 <- reset scaling to 0 (infinite density);
#X text 469 290 <- increment scaling for each new frame;
#X text 340 354 <- compute a new normal distributed set of points;
#X text 506 371 (velocity vectors);
#X text 545 264 <- diffusion speed;
#X msg 559 238 0.1;
#X floatatom 311 473 5 0 0 0 - - -;
#X floatatom 407 475 5 0 0 0 - - -;
#X floatatom 256 283 5 0 0 0 - - -;
#X floatatom 359 474 5 0 0 0 - - -;
#X msg 376 415 -3;
#X msg 412 415 2;
#X msg 447 416 50;
#X obj 410 375 loadbang;
#X obj 369 59 bng 15 250 50 0 empty empty empty 0 -6 0 8 -262144 -1
-1;
#X obj 372 81 metro;
#X floatatom 396 58 5 0 0 0 - - -;
#X msg 465 52 2000;
#X msg 464 78 3000;
#X obj 59 124 inlet;
#X obj 223 539 outlet;
#X obj 507 155 bng 15 250 50 0 empty empty empty 0 -6 0 8 -262144 -1
-1;
#X obj 220 502 3dp_draw wsphere 1 8 8;
#X obj 268 63 inlet bang;
#X connect 0 1 1 0;
#X connect 1 0 39 0;
#X connect 2 0 15 0;
#X connect 3 0 12 0;
#X connect 4 0 12 1;
#X connect 5 0 3 0;
#X connect 6 0 11 0;
#X connect 6 1 3 0;
#X connect 7 0 2 0;
#X connect 7 1 5 0;
#X connect 8 0 4 0;
#X connect 9 0 4 0;
#X connect 10 0 16 0;
#X connect 11 0 0 0;
#X connect 11 1 15 0;
#X connect 12 0 3 1;
#X connect 12 0 15 1;
#X connect 13 0 7 0;
#X connect 14 0 4 0;
#X connect 15 0 1 1;
#X connect 15 1 1 2;
#X connect 15 2 1 3;
#X connect 16 0 7 0;
#X connect 16 0 14 0;
#X connect 22 0 4 0;
#X connect 23 0 39 2;
#X connect 24 0 39 4;
#X connect 25 0 11 1;
#X connect 26 0 39 3;
#X connect 27 0 23 0;
#X connect 28 0 26 0;
#X connect 29 0 24 0;
#X connect 30 0 27 0;
#X connect 30 0 28 0;
#X connect 30 0 29 0;
#X connect 31 0 32 0;
#X connect 33 0 32 1;
#X connect 34 0 33 0;
#X connect 35 0 33 0;
#X connect 36 0 6 0;
#X connect 36 0 10 0;
#X connect 38 0 7 0;
#X connect 38 0 22 0;
#X connect 39 0 37 0;
#X connect 40 0 38 0;
