#N canvas 166 149 774 458 10;
#X obj 59 103 3dp_push;
#X obj 546 244 3dp_view transx 3;
#X obj 546 270 3dp_light;
#X obj 612 97 f;
#X floatatom 641 98 5 0 0 0 - - -;
#X obj 59 224 3dp_view roty;
#X obj 546 215 3dp_view roty 54;
#X obj 59 201 3dp_view rotx;
#X floatatom 179 192 5 0 0 0 - - -;
#X msg 349 252 400;
#X msg 311 252 -400;
#X obj 342 287 +;
#X text 544 189 light source;
#X obj 59 248 3dp_view scale 0.4;
#X obj 640 157 s counter;
#X obj 245 169 r counter;
#X obj 238 207 * 0.05;
#X obj 612 122 + 1;
#N canvas 107 49 483 321 interfaz_cangrejo 0;
#X obj 285 12 cnv 15 400 300 empty empty empty 20 12 1 14 -66577 -66577
0;
#X obj -35 12 hsl 128 15 0 127 0 0 a1 empty empty -2 -6 0 8 -262144
-1 -1 0 1;
#X floatatom -36 37 5 0 0 0 - - -;
#X obj -36 59 s cubesize;
#X obj -38 156 s torusr1;
#X floatatom -37 134 5 0 0 0 - - -;
#X floatatom -38 86 5 0 0 0 - - -;
#X obj -36 109 s torusr2;
#X text 103 13 render speed;
#X obj 57 36 hsl 128 15 0 127 0 0 empty empty empty -2 -6 0 8 -262144
-1 -1 0 1;
#X obj 59 86 hsl 128 15 0 127 0 0 empty empty empty -2 -6 0 8 -262144
-1 -1 0 1;
#X obj 59 134 hsl 128 15 0 127 0 0 empty empty empty -2 -6 0 8 -262144
-1 -1 0 1;
#X obj 13 36 / 10;
#X obj 12 85 / 10;
#X obj 12 131 / 10;
#X obj -37 182 hsl 128 15 0 127 0 0 a2 empty empty -2 -6 0 8 -262144
-1 -1 0 1;
#X obj -37 209 hsl 128 15 0 127 0 0 a3 empty empty -2 -6 0 8 -262144
-1 -1 0 1;
#X text 103 181 separacion;
#X text 102 209 luz rotacion y;
#X obj -36 236 hsl 128 15 -50 127 0 0 a4 empty empty -2 -6 0 8 -262144
-1 -1 0 1;
#X text 101 236 luz translacion x;
#X connect 2 0 3 0;
#X connect 5 0 4 0;
#X connect 6 0 7 0;
#X connect 9 0 12 0;
#X connect 10 0 13 0;
#X connect 11 0 14 0;
#X connect 12 0 2 0;
#X connect 13 0 6 0;
#X connect 14 0 5 0;
#X restore 351 112 pd interfaz_cangrejo;
#X obj 175 70 loadbang;
#X obj 189 106 bng 15 250 50 0 empty empty empty 0 -6 0 8 -262144 -1
-1;
#X obj 63 73 inlet;
#X floatatom 386 472 5 0 0 0 - - -;
#X floatatom 695 411 5 0 0 0 - - -;
#X floatatom 386 496 5 0 0 0 - - -;
#X floatatom 385 519 5 0 0 0 - - -;
#X floatatom 384 542 5 0 0 0 - - -;
#X floatatom 384 565 5 0 0 0 - - -;
#X floatatom 384 589 5 0 0 0 - - -;
#X floatatom 384 612 5 0 0 0 - - -;
#X floatatom 384 635 5 0 0 0 - - -;
#X obj 310 490 * 1;
#X obj 310 630 * -1;
#X floatatom 384 658 5 0 0 0 - - -;
#X obj 310 676 * -1.5;
#X obj 689 727 s roty;
#X floatatom 641 652 5 0 0 0 - - -;
#X floatatom 697 626 5 0 0 0 - - -;
#X obj 699 657 s scale;
#X floatatom 385 429 5 0 0 0 - - -;
#X obj 310 514 * -1.01;
#X obj 310 537 * 0.99;
#X obj 310 560 * -1.01;
#X obj 310 583 * 2.1;
#X obj 310 607 * -1.7;
#X msg 623 577 4;
#X obj 695 433 s cubesize;
#X msg 386 386 3.15;
#X obj 310 653 * 0.11;
#X obj 368 352 * 1;
#X floatatom 384 682 5 0 0 0 - - -;
#X floatatom 385 705 5 0 0 0 - - -;
#X floatatom 385 729 5 0 0 0 - - -;
#X floatatom 386 753 5 0 0 0 - - -;
#X obj 310 747 * -1;
#X floatatom 386 776 5 0 0 0 - - -;
#X obj 309 794 * -1.5;
#X obj 310 700 * 2.1;
#X obj 310 723 * -1.7;
#X obj 309 771 * 0.11;
#X obj 35 375 3dp_push;
#X floatatom 308 410 5 0 0 0 - a2 -;
#X obj 157 412 3dp_view transz;
#X obj 257 379 * -1;
#X msg 308 382 2;
#X obj 590 442 s drawtorus;
#X obj 590 415 tgl 15 0 empty empty empty 0 -6 0 8 -262144 -1 -1 1
1;
#X obj 700 537 s torusr1;
#X floatatom 698 514 5 0 0 0 - - -;
#X floatatom 693 460 5 0 0 0 - - -;
#X obj 695 483 s torusr2;
#X msg 590 390 1;
#X obj 632 691 *;
#X obj 35 478 3dp_view rotx;
#X floatatom 122 457 5 0 0 0 - - -;
#X obj 35 512 3dp_draw sphere 30 40;
#X obj 35 634 3dp_snap;
#X obj 499 528 / 1000;
#X floatatom 499 502 5 0 0 0 - - -;
#X obj 85 315 3dp_push;
#X obj 136 344 pdp_t p b;
#X obj 35 348 pdp_t p b;
#X msg 499 475 3;
#X obj 35 611 spigot;
#X obj 102 587 tgl 15 0 empty empty empty 0 -6 0 8 -262144 -1 -1 0
1;
#X text 54 562 texture feedback;
#X text 512 792 "no-bots in no-sphere";
#X text 485 809 a double dance of 13 segments;
#X text 575 775 ---;
#X text 575 828 ---;
#X obj 208 440 3dp_view transx;
#X obj 206 881 outlet;
#X obj 208 522 arm 3;
#X obj 208 545 arm 3;
#X obj 208 568 arm 3;
#X obj 208 497 arm 3;
#X obj 208 615 arm 3;
#X obj 208 638 arm 3;
#X obj 208 661 arm 3;
#X obj 208 591 arm 3;
#X obj 208 684 arm 3;
#X obj 208 731 arm 3;
#X obj 208 755 arm 3;
#X obj 208 779 arm 3;
#X obj 208 708 arm 3;
#X obj 208 802 arm 3;
#X floatatom 207 236 5 0 0 0 - - -;
#X obj 269 110 metro 100;
#X obj 299 72 tgl 15 0 empty empty empty 0 -6 0 8 -262144 -1 -1 0 1
;
#X floatatom 363 198 5 0 0 0 - - -;
#X floatatom 341 73 5 0 0 0 - - -;
#X obj 95 706 3dp_view roty;
#X floatatom 167 667 5 0 0 0 - - -;
#X obj 208 466 3dp_draw square 1.4;
#X obj 208 850 3dp_draw square 1.4;
#X obj 35 165 spigot;
#X obj 468 189 tgl 15 0 empty empty empty 0 -6 0 8 -262144 -1 -1 0
1;
#X obj 495 637 metro 100;
#X obj 499 665 random 100;
#X obj 489 611 tgl 15 0 empty empty empty 0 -6 0 8 -262144 -1 -1 0
1;
#X floatatom 554 605 5 0 0 0 - - -;
#X floatatom 655 635 5 0 0 0 - - -;
#X obj 252 137 int-control;
#X obj 741 321 inlet activate;
#X floatatom 688 700 5 0 0 0 - - -;
#X obj 448 280 inlet roty;
#X obj 504 299 inlet scale;
#X obj 544 330 inlet cubesize;
#X obj 570 353 inlet torusr2;
#X obj 596 370 inlet torusr3;
#X obj 304 25 inlet;
#X obj 373 4 inlet;
#X obj 41 434 spigot;
#X obj 77 406 tgl 15 0 empty empty empty 0 -6 0 8 -262144 -1 -1 0 1
;
#X connect 0 1 7 0;
#X connect 1 0 2 0;
#X connect 3 0 17 0;
#X connect 4 0 17 1;
#X connect 5 0 13 0;
#X connect 6 0 1 0;
#X connect 7 0 5 0;
#X connect 8 0 7 1;
#X connect 8 0 5 1;
#X connect 9 0 11 0;
#X connect 10 0 11 0;
#X connect 11 0 49 0;
#X connect 13 0 79 0;
#X connect 15 0 16 0;
#X connect 16 0 5 1;
#X connect 17 0 3 1;
#X connect 17 0 11 1;
#X connect 17 0 14 0;
#X connect 17 0 72 0;
#X connect 19 0 20 0;
#X connect 20 0 47 0;
#X connect 21 0 0 0;
#X connect 22 0 31 1;
#X connect 23 0 46 0;
#X connect 24 0 40 1;
#X connect 25 0 41 1;
#X connect 26 0 42 1;
#X connect 27 0 43 1;
#X connect 28 0 44 1;
#X connect 29 0 32 1;
#X connect 30 0 48 1;
#X connect 31 0 40 0;
#X connect 31 0 95 1;
#X connect 32 0 48 0;
#X connect 33 0 34 1;
#X connect 34 0 57 0;
#X connect 34 0 100 1;
#X connect 36 0 72 1;
#X connect 37 0 38 0;
#X connect 39 0 113 2;
#X connect 39 0 114 2;
#X connect 40 0 41 0;
#X connect 41 0 42 0;
#X connect 42 0 43 0;
#X connect 43 0 44 0;
#X connect 43 0 99 1;
#X connect 44 0 32 0;
#X connect 45 0 37 0;
#X connect 47 0 39 0;
#X connect 47 0 82 0;
#X connect 47 0 64 0;
#X connect 47 0 71 0;
#X connect 48 0 34 0;
#X connect 48 0 98 1;
#X connect 49 0 31 0;
#X connect 50 0 57 1;
#X connect 51 0 58 1;
#X connect 52 0 54 1;
#X connect 53 0 59 1;
#X connect 54 0 59 0;
#X connect 54 0 102 1;
#X connect 55 0 56 1;
#X connect 56 0 105 1;
#X connect 57 0 58 0;
#X connect 57 0 104 1;
#X connect 58 0 54 0;
#X connect 58 0 101 1;
#X connect 59 0 56 0;
#X connect 59 0 103 1;
#X connect 60 0 132 0;
#X connect 60 1 62 0;
#X connect 61 0 63 0;
#X connect 61 0 90 1;
#X connect 62 0 113 0;
#X connect 63 0 62 1;
#X connect 66 0 65 0;
#X connect 68 0 67 0;
#X connect 69 0 70 0;
#X connect 71 0 66 0;
#X connect 72 0 35 0;
#X connect 73 0 75 0;
#X connect 74 0 73 1;
#X connect 75 0 83 0;
#X connect 76 1 75 1;
#X connect 77 0 36 0;
#X connect 78 0 77 0;
#X connect 79 0 81 0;
#X connect 79 1 80 0;
#X connect 80 0 90 0;
#X connect 80 1 10 0;
#X connect 81 0 60 0;
#X connect 81 1 9 0;
#X connect 82 0 78 0;
#X connect 82 0 45 0;
#X connect 83 0 76 0;
#X connect 84 0 83 1;
#X connect 90 0 113 0;
#X connect 92 0 93 0;
#X connect 93 0 94 0;
#X connect 94 0 99 0;
#X connect 95 0 92 0;
#X connect 96 0 97 0;
#X connect 97 0 98 0;
#X connect 98 0 100 0;
#X connect 99 0 96 0;
#X connect 100 0 111 0;
#X connect 101 0 102 0;
#X connect 102 0 103 0;
#X connect 103 0 105 0;
#X connect 104 0 101 0;
#X connect 105 0 114 0;
#X connect 106 0 13 1;
#X connect 107 0 122 0;
#X connect 108 0 107 0;
#X connect 110 0 107 1;
#X connect 111 0 104 0;
#X connect 112 0 111 1;
#X connect 113 0 95 0;
#X connect 114 0 91 0;
#X connect 115 0 6 0;
#X connect 116 0 115 1;
#X connect 117 0 118 0;
#X connect 118 0 30 0;
#X connect 118 0 50 0;
#X connect 118 0 25 0;
#X connect 118 0 55 0;
#X connect 119 0 117 0;
#X connect 120 0 118 1;
#X connect 122 0 8 0;
#X connect 122 0 74 0;
#X connect 122 0 6 1;
#X connect 123 0 119 0;
#X connect 124 0 35 0;
#X connect 125 0 124 0;
#X connect 126 0 37 0;
#X connect 127 0 23 0;
#X connect 128 0 69 0;
#X connect 129 0 68 0;
#X connect 130 0 108 0;
#X connect 131 0 110 0;
#X connect 132 0 73 0;
#X connect 133 0 132 1;
#X connect 133 0 84 0;
