#N canvas 534 483 533 399 10;
#X obj 27 363 outlet;
#X obj 70 152 - 0.5;
#X obj 135 151 - 0.5;
#X obj 82 214 *;
#X obj 135 212 *;
#X obj 135 186 t f f;
#X obj 82 184 t f f;
#X obj 82 243 +;
#X obj 113 271 sqrt;
#X obj 113 298 * 360;
#X obj 27 329 3dp_view rota;
#X text 216 138 convert mouse coordinates to axis and angle;
#X obj 70 118 unpack 0 0;
#X obj 92 49 route drag1 press1;
#X msg 279 180 0;
#X obj 381 22 inlet reset;
#X obj 105 18 inlet mouse;
#X obj 27 19 inlet 3dp;
#X obj 239 24 inlet rotx;
#X obj 299 89 inlet rotz;
#X obj 275 52 inlet roty;
#X connect 1 0 6 0;
#X connect 1 0 10 2;
#X connect 2 0 5 0;
#X connect 2 0 10 1;
#X connect 3 0 7 0;
#X connect 4 0 7 1;
#X connect 5 0 4 0;
#X connect 5 1 4 1;
#X connect 6 0 3 0;
#X connect 6 1 3 1;
#X connect 7 0 8 0;
#X connect 8 0 9 0;
#X connect 9 0 10 4;
#X connect 10 0 0 0;
#X connect 12 0 1 0;
#X connect 12 1 2 0;
#X connect 13 0 12 0;
#X connect 13 1 12 0;
#X connect 14 0 10 4;
#X connect 14 0 10 3;
#X connect 14 0 10 2;
#X connect 14 0 10 1;
#X connect 15 0 14 0;
#X connect 16 0 13 0;
#X connect 17 0 10 0;
#X connect 18 0 10 1;
#X connect 19 0 10 3;
#X connect 20 0 10 2;
