#N canvas 279 6 1001 668 10;
#X obj 161 259 3dp_push;
#X obj 233 401 3dp_view transxyz;
#X msg 270 249 normal;
#X obj 422 255 f;
#X floatatom 482 268 5 0 0 0 - - -;
#X msg 422 223 0;
#X obj 57 177 pdp_t p b;
#X obj 392 185 t b b;
#X msg 591 239 0.2;
#X msg 484 239 0;
#X obj 240 124 route press3;
#X obj 161 223 3dp_for 100;
#X obj 497 112 loadbang;
#X msg 519 239 0.01;
#N canvas 374 17 577 190 coordinates 0;
#X obj 51 100 *;
#X obj 51 72 elbat 100;
#X obj 165 99 *;
#X obj 165 71 elbat 100;
#X obj 276 97 *;
#X obj 276 69 elbat 100;
#X obj 51 19 inlet;
#X obj 125 18 inlet;
#X text 354 69 <- table read abstraction;
#X obj 51 130 outlet;
#X obj 165 127 outlet;
#X obj 276 125 outlet;
#X connect 0 0 9 0;
#X connect 1 0 0 0;
#X connect 2 0 10 0;
#X connect 3 0 2 0;
#X connect 4 0 11 0;
#X connect 5 0 4 0;
#X connect 6 0 1 0;
#X connect 6 0 3 0;
#X connect 6 0 5 0;
#X connect 7 0 0 1;
#X connect 7 0 2 1;
#X connect 7 0 4 1;
#X restore 233 298 pd coordinates;
#X msg 396 143 bang;
#X msg 559 239 0.1;
#X floatatom 125 705 5 0 0 0 - - -;
#X floatatom 219 705 5 0 0 0 - - -;
#X floatatom 250 177 5 0 0 0 - - -;
#X floatatom 177 697 5 0 0 0 - - -;
#X msg 141 677 -3;
#X msg 177 677 2;
#X msg 212 677 50;
#X obj 175 639 loadbang;
#X obj 709 138 bng 15 250 50 0 empty empty empty 0 -6 0 8 -262144 -1
-1;
#X obj 699 185 metro;
#X msg 794 164 2000;
#X msg 794 184 3000;
#X obj 59 124 inlet;
#X obj 66 768 outlet;
#X obj 508 156 bng 15 250 50 0 empty empty empty 0 -6 0 8 -262144 -1
-1;
#X obj 54 736 3dp_draw wsphere 1 8 8;
#X obj 87 97 inlet bang;
#X obj 375 321 spigot;
#X obj 430 321 tgl 15 0 empty empty empty 0 -6 0 8 -262144 -1 -1 1
1;
#X obj 281 321 spigot;
#X obj 339 321 tgl 15 0 empty empty empty 0 -6 0 8 -262144 -1 -1 0
1;
#X obj 201 321 spigot;
#X obj 249 321 tgl 15 0 empty empty empty 0 -6 0 8 -262144 -1 -1 0
1;
#X obj 304 731 3dp_draw sphere 1 8 8;
#X obj 331 445 spigot;
#X obj 400 451 tgl 15 0 empty empty empty 0 -6 0 8 -262144 -1 -1 1
1;
#X obj 158 445 spigot;
#X obj 220 451 tgl 15 0 empty empty empty 0 -6 0 8 -262144 -1 -1 0
1;
#X floatatom 370 692 5 0 0 0 - - -;
#X floatatom 467 681 5 0 0 0 - - -;
#X floatatom 418 692 5 0 0 0 - - -;
#X obj 508 431 spigot;
#X obj 576 411 tgl 15 0 empty empty empty 0 -6 0 8 -262144 -1 -1 1
1;
#X floatatom 617 697 5 0 0 0 - - -;
#X floatatom 711 697 5 0 0 0 - - -;
#X floatatom 665 697 5 0 0 0 - - -;
#X obj 552 736 3dp_draw wtorus 1 8 8;
#X obj 798 411 spigot;
#X obj 869 411 tgl 15 0 empty empty empty 0 -6 0 8 -262144 -1 -1 1
1;
#X floatatom 837 692 5 0 0 0 - - -;
#X floatatom 927 692 5 0 0 0 - - -;
#X floatatom 883 692 5 0 0 0 - - -;
#X obj 790 731 3dp_draw torus 1 8 8;
#X obj 26 661 3dp_color;
#X obj 24 515 vsl 15 128 0 1 0 0 empty empty empty 0 -8 0 8 -262144
-1 -1 0 1;
#X obj 95 515 vsl 15 128 0 1 0 0 empty empty empty 0 -8 0 8 -262144
-1 -1 1905 1;
#X obj 49 515 vsl 15 128 0 1 0 0 empty empty empty 0 -8 0 8 -262144
-1 -1 7620 1;
#X obj 72 515 vsl 15 128 0 1 0 0 empty empty empty 0 -8 0 8 -262144
-1 -1 10160 1;
#X obj 310 671 3dp_color;
#X obj 301 522 vsl 15 128 0 1 0 0 empty empty empty 0 -8 0 8 -262144
-1 -1 5080 1;
#X obj 370 521 vsl 15 128 0 1 0 0 empty empty empty 0 -8 0 8 -262144
-1 -1 6858 1;
#X obj 324 521 vsl 15 128 0 1 0 0 empty empty empty 0 -8 0 8 -262144
-1 -1 11430 1;
#X obj 347 521 vsl 15 128 0 1 0 0 empty empty empty 0 -8 0 8 -262144
-1 -1 12700 1;
#X obj 530 665 3dp_color;
#X obj 514 515 vsl 15 128 0 1 0 0 empty empty empty 0 -8 0 8 -262144
-1 -1 5080 1;
#X obj 587 514 vsl 15 128 0 1 0 0 empty empty empty 0 -8 0 8 -262144
-1 -1 3048 1;
#X obj 539 515 vsl 15 128 0 1 0 0 empty empty empty 0 -8 0 8 -262144
-1 -1 11430 1;
#X obj 562 515 vsl 15 128 0 1 0 0 empty empty empty 0 -8 0 8 -262144
-1 -1 11430 1;
#X obj 775 664 3dp_color;
#X obj 763 507 vsl 15 128 0 1 0 0 empty empty empty 0 -8 0 8 -262144
-1 -1 2540 1;
#X obj 837 507 vsl 15 128 0 1 0 0 empty empty empty 0 -8 0 8 -262144
-1 -1 10160 1;
#X obj 788 507 vsl 15 128 0 1 0 0 empty empty empty 0 -8 0 8 -262144
-1 -1 5080 1;
#X obj 813 506 vsl 15 128 0 1 0 0 empty empty empty 0 -8 0 8 -262144
-1 -1 12700 1;
#X msg 794 144 7000;
#X msg 627 239 0.3;
#X msg 662 239 0.4;
#X msg 696 239 1;
#X obj 422 289 + 0.2;
#X obj 596 323 bng 15 250 50 0 empty empty empty 0 -6 0 8 -262144 -1
-1;
#X floatatom 624 346 5 0 0 0 - - -;
#X msg 629 312 18;
#X obj 601 268 bng 15 250 50 0 empty autoon empty 0 -6 0 8 -143491
-258699 -1;
#X obj 732 312 bng 15 250 50 0 empty empty empty 0 -6 0 8 -262144 -1
-1;
#X floatatom 760 321 5 0 0 0 - - -;
#X msg 768 298 18;
#X floatatom 693 366 5 0 0 0 - - -;
#X obj 693 346 random 150;
#X obj 796 229 bng 15 250 50 0 empty autostep empty 0 -6 0 8 -62784
-44926 -1;
#X obj 564 365 random 30;
#X obj 834 229 bng 15 250 50 0 empty autofiddle empty 0 -6 0 8 -43142
-24198 -1;
#X floatatom 877 325 5 0 0 0 - - -;
#X msg 877 305 18;
#X floatatom 817 374 5 0 0 0 - - -;
#X obj 819 346 random 150;
#X obj 654 426 loadbang;
#X msg 402 661 14;
#X msg 436 661 14;
#X msg 467 661 51;
#X msg 625 661 24;
#X msg 718 661 18;
#X msg 674 656 66;
#X msg 888 657 1;
#X msg 937 661 54;
#X msg 794 124 12000;
#X obj 570 134 spigot;
#X obj 656 138 tgl 15 0 empty empty empty 0 -6 0 8 -262144 -1 -1 0
1;
#X msg 588 486 0.24;
#X msg 547 487 0.9;
#X msg 514 487 0.4;
#X msg 336 489 0.9;
#X msg 298 489 0.4;
#X msg 377 489 1;
#X msg 408 489 0.54;
#X msg 841 478 1;
#X msg 763 479 0.2;
#X msg 800 478 0.4;
#X msg 872 478 0.8;
#X msg 324 191 33;
#X msg 729 239 2;
#X msg 28 483 0;
#X msg 66 483 0.6;
#X msg 107 483 0.8;
#X msg 138 483 0.15;
#X floatatom 682 275 5 0 0 0 - - -;
#X floatatom 663 323 5 0 0 0 - - -;
#X obj 665 296 + 1;
#X obj 734 269 random 3;
#X text 506 371 comment;
#X text 545 266 comment;
#X text 459 222 comment;
#X text 469 288 comment;
#X text 334 248 comment;
#X floatatom 732 169 5 0 0 0 - - -;
#X obj 339 345 route 0;
#X msg 339 365 0;
#X obj 431 346 route 0;
#X msg 431 366 0;
#X obj 250 349 route 0;
#X msg 250 369 0;
#X obj 596 56 inlet;
#X obj 592 82 OSCroute /x /y /z /bang /redcontrol /bluecontrol /greencontrol
;
#X obj 868 268 spigot;
#X obj 815 283 spigot;
#X obj 832 260 tgl 15 0 empty empty empty 17 7 0 10 -262144 -1 -1 1
1;
#X obj 806 318 spigot;
#X obj 936 251 tgl 15 0 empty empty empty 17 7 0 10 -262144 -1 -1 1
1;
#X obj 858 299 tgl 15 0 empty empty empty 17 7 0 10 -262144 -1 -1 1
1;
#X connect 0 1 1 0;
#X connect 1 0 41 0;
#X connect 1 0 43 0;
#X connect 1 0 54 0;
#X connect 1 0 48 0;
#X connect 2 0 14 0;
#X connect 3 0 84 0;
#X connect 4 0 84 1;
#X connect 5 0 3 0;
#X connect 6 0 11 0;
#X connect 6 1 3 0;
#X connect 7 0 2 0;
#X connect 7 1 5 0;
#X connect 8 0 4 0;
#X connect 9 0 4 0;
#X connect 10 0 15 0;
#X connect 11 0 0 0;
#X connect 11 1 14 0;
#X connect 12 0 7 0;
#X connect 12 0 124 0;
#X connect 12 0 35 0;
#X connect 13 0 4 0;
#X connect 14 0 38 0;
#X connect 14 1 36 0;
#X connect 14 2 34 0;
#X connect 15 0 7 0;
#X connect 15 0 13 0;
#X connect 16 0 4 0;
#X connect 17 0 32 2;
#X connect 18 0 32 4;
#X connect 19 0 11 1;
#X connect 20 0 32 3;
#X connect 21 0 17 0;
#X connect 22 0 20 0;
#X connect 23 0 18 0;
#X connect 24 0 21 0;
#X connect 24 0 22 0;
#X connect 24 0 23 0;
#X connect 25 0 26 0;
#X connect 26 0 111 0;
#X connect 27 0 139 0;
#X connect 28 0 139 0;
#X connect 29 0 6 0;
#X connect 29 0 10 0;
#X connect 31 0 7 0;
#X connect 31 0 125 0;
#X connect 32 0 30 0;
#X connect 33 0 31 0;
#X connect 34 0 1 3;
#X connect 35 0 34 1;
#X connect 35 0 142 0;
#X connect 36 0 1 2;
#X connect 37 0 36 1;
#X connect 37 0 140 0;
#X connect 38 0 1 1;
#X connect 39 0 38 1;
#X connect 39 0 144 0;
#X connect 41 0 65 0;
#X connect 42 0 41 1;
#X connect 43 0 60 0;
#X connect 44 0 43 1;
#X connect 45 0 40 2;
#X connect 46 0 40 4;
#X connect 47 0 40 3;
#X connect 48 0 70 0;
#X connect 49 0 48 1;
#X connect 50 0 53 2;
#X connect 51 0 53 4;
#X connect 52 0 53 3;
#X connect 54 0 75 0;
#X connect 55 0 54 1;
#X connect 56 0 59 2;
#X connect 57 0 59 4;
#X connect 58 0 59 3;
#X connect 60 1 32 0;
#X connect 61 0 60 1;
#X connect 62 0 60 4;
#X connect 63 0 60 2;
#X connect 64 0 60 3;
#X connect 65 1 40 0;
#X connect 66 0 65 1;
#X connect 67 0 65 4;
#X connect 68 0 65 2;
#X connect 69 0 65 3;
#X connect 70 1 53 0;
#X connect 71 0 70 1;
#X connect 72 0 70 4;
#X connect 73 0 70 2;
#X connect 74 0 70 3;
#X connect 75 1 59 0;
#X connect 76 0 75 1;
#X connect 77 0 75 4;
#X connect 78 0 75 2;
#X connect 79 0 75 3;
#X connect 80 0 139 0;
#X connect 81 0 4 0;
#X connect 82 0 4 0;
#X connect 83 0 4 0;
#X connect 84 0 3 1;
#X connect 84 0 14 1;
#X connect 85 0 95 0;
#X connect 86 0 95 1;
#X connect 87 0 86 0;
#X connect 88 0 151 0;
#X connect 89 0 93 0;
#X connect 90 0 93 1;
#X connect 91 0 90 0;
#X connect 92 0 58 0;
#X connect 92 0 50 0;
#X connect 93 0 92 0;
#X connect 94 0 149 0;
#X connect 95 0 45 0;
#X connect 96 0 148 0;
#X connect 97 0 100 1;
#X connect 98 0 97 0;
#X connect 99 0 56 0;
#X connect 100 0 99 0;
#X connect 101 0 102 0;
#X connect 101 0 103 0;
#X connect 101 0 104 0;
#X connect 101 0 105 0;
#X connect 101 0 107 0;
#X connect 101 0 106 0;
#X connect 101 0 108 0;
#X connect 101 0 109 0;
#X connect 101 0 49 0;
#X connect 101 0 55 0;
#X connect 101 0 42 0;
#X connect 101 0 114 0;
#X connect 101 0 113 0;
#X connect 101 0 115 0;
#X connect 101 0 119 0;
#X connect 101 0 118 0;
#X connect 101 0 116 0;
#X connect 101 0 117 0;
#X connect 101 0 121 0;
#X connect 101 0 122 0;
#X connect 101 0 120 0;
#X connect 101 0 123 0;
#X connect 101 0 126 0;
#X connect 101 0 127 0;
#X connect 101 0 128 0;
#X connect 101 0 129 0;
#X connect 102 0 45 0;
#X connect 103 0 47 0;
#X connect 104 0 46 0;
#X connect 105 0 50 0;
#X connect 106 0 51 0;
#X connect 107 0 52 0;
#X connect 108 0 56 0;
#X connect 109 0 57 0;
#X connect 110 0 139 0;
#X connect 111 0 31 0;
#X connect 112 0 111 1;
#X connect 113 0 72 0;
#X connect 114 0 73 0;
#X connect 114 0 74 0;
#X connect 115 0 71 0;
#X connect 116 0 68 0;
#X connect 117 0 66 0;
#X connect 118 0 69 0;
#X connect 119 0 67 0;
#X connect 120 0 79 0;
#X connect 121 0 76 0;
#X connect 122 0 78 0;
#X connect 123 0 77 0;
#X connect 124 0 19 0;
#X connect 125 0 4 0;
#X connect 126 0 61 0;
#X connect 127 0 63 0;
#X connect 128 0 64 0;
#X connect 129 0 62 0;
#X connect 130 0 132 0;
#X connect 131 0 4 0;
#X connect 132 0 131 0;
#X connect 133 0 130 0;
#X connect 139 0 26 1;
#X connect 140 0 141 0;
#X connect 141 0 1 2;
#X connect 142 0 143 0;
#X connect 143 0 1 3;
#X connect 144 0 145 0;
#X connect 145 0 1 1;
#X connect 146 0 147 0;
#X connect 147 0 39 0;
#X connect 147 1 37 0;
#X connect 147 2 35 0;
#X connect 147 3 31 0;
#X connect 147 4 151 1;
#X connect 147 5 149 1;
#X connect 147 6 148 1;
#X connect 148 0 100 0;
#X connect 149 0 133 0;
#X connect 149 0 89 0;
#X connect 150 0 149 1;
#X connect 151 0 95 0;
#X connect 152 0 148 1;
#X connect 153 0 151 1;
