#N canvas 737 317 522 491 10;
#X obj 393 15 inlet OSC;
#X obj 18 28 inlet 3dp;
#X obj 58 124 3dp_color;
#X floatatom 139 11 5 0 0 0 - - -;
#X floatatom 185 11 5 0 0 0 - - -;
#X floatatom 230 11 5 0 0 0 - - -;
#X floatatom 274 11 5 0 0 0 - - -;
#X obj 139 -48 vsl 15 50 0 1 0 0 empty empty empty 0 -8 0 8 -258699
-1 -1 4900 1;
#X obj 185 -49 vsl 15 50 0 1 0 0 empty empty empty 0 -8 0 8 -24198
-1 -1 4900 1;
#X obj 230 -49 vsl 15 50 0 1 0 0 empty empty empty 0 -8 0 8 -62784
-1 -1 4900 1;
#X obj 276 -50 vsl 15 50 0 1 0 0 empty empty empty 0 -8 0 8 -225271
-1 -1 0 1;
#X obj 42 245 outlet;
#X floatatom 276 170 5 0 0 0 - - -;
#X floatatom 311 206 5 0 0 0 - - -;
#X floatatom 313 235 5 0 0 0 - - -;
#X floatatom 191 153 5 0 0 0 - - -;
#X obj 23 190 3dp_view transxyz;
#X obj 51 222 3dp_view scale 1;
#X obj 268 52 inlet alpha;
#X msg 76 -26 1;
#X obj 52 -48 loadbang;
#X obj 352 146 metro 100;
#X obj 364 173 random 100;
#X obj 324 118 tgl 15 0 empty empty empty 0 -6 0 8 -262144 -1 -1 0
1;
#X obj 380 218 / 1000;
#X obj 19 282 3dp_toggle depth_test 0;
#X obj 193 309 3dp_toggle blend_add 1;
#X obj 189 274 tgl 15 0 empty empty empty 0 -6 0 8 -262144 -1 -1 0
1;
#X obj 308 295 tgl 15 0 empty empty empty 0 -6 0 8 -262144 -1 -1 0
1;
#X obj 546 244 3dp_view transx 3;
#X obj 546 215 3dp_view roty 54;
#X msg 276 137 0;
#X obj 410 309 float;
#X obj 459 309 + 1;
#X obj 420 276 metro 40;
#X obj 443 250 tgl 15 0 empty empty empty 17 7 0 10 -262144 -1 -1 0
1;
#X obj 401 354 sin;
#X floatatom 377 384 5 0 0 0 - - -;
#X obj 222 393 + 0;
#X obj 289 363 t b f;
#X floatatom 271 406 5 0 0 0 - - -;
#X floatatom 237 340 5 0 0 0 - - -;
#X obj 442 345 / 50;
#X obj 357 358 * 1;
#X floatatom 367 333 5 0 0 0 - - -;
#X floatatom 486 341 5 0 0 0 - - -;
#X obj 545 323 bng 15 250 50 0 empty autoon empty 0 -6 0 8 -143491
-258699 -1;
#X obj 568 323 bng 15 250 50 0 empty autostep empty 0 -6 0 8 -62784
-44926 -1;
#X obj 569 285 bng 15 250 50 0 empty autofiddle empty 0 -6 0 8 -43142
-24198 -1;
#X obj 220 76 OSCroute /x /y /z /r /g /b /a /scale /dtest /add /zsin
/zsinmusic /zsinspeed /zsinamp;
#X obj 497 260 spigot;
#X obj 503 236 tgl 15 0 empty empty empty 17 7 0 10 -262144 -1 -1 0
1;
#X obj 559 157 route 0;
#X msg 518 175 0;
#X floatatom 609 307 5 0 0 0 - - -;
#X connect 0 0 49 0;
#X connect 1 0 25 0;
#X connect 2 1 16 0;
#X connect 3 0 2 1;
#X connect 4 0 2 2;
#X connect 5 0 2 3;
#X connect 6 0 2 4;
#X connect 7 0 3 0;
#X connect 8 0 4 0;
#X connect 9 0 5 0;
#X connect 10 0 6 0;
#X connect 12 0 16 1;
#X connect 13 0 16 2;
#X connect 14 0 16 3;
#X connect 15 0 17 1;
#X connect 16 0 17 0;
#X connect 17 0 11 0;
#X connect 18 0 10 0;
#X connect 19 0 7 0;
#X connect 19 0 8 0;
#X connect 19 0 9 0;
#X connect 20 0 19 0;
#X connect 21 0 22 0;
#X connect 22 0 24 0;
#X connect 23 0 21 0;
#X connect 24 0 15 0;
#X connect 25 1 26 0;
#X connect 26 1 2 0;
#X connect 27 0 25 1;
#X connect 28 0 26 1;
#X connect 30 0 29 0;
#X connect 31 0 12 0;
#X connect 31 0 13 0;
#X connect 31 0 14 0;
#X connect 32 0 33 0;
#X connect 32 0 42 0;
#X connect 33 0 32 1;
#X connect 34 0 32 0;
#X connect 35 0 34 0;
#X connect 36 0 37 0;
#X connect 37 0 43 0;
#X connect 38 0 16 3;
#X connect 38 0 40 0;
#X connect 39 0 38 0;
#X connect 39 1 38 1;
#X connect 41 0 38 0;
#X connect 42 0 36 0;
#X connect 43 0 39 0;
#X connect 44 0 43 1;
#X connect 45 0 42 1;
#X connect 48 0 50 0;
#X connect 49 0 16 1;
#X connect 49 1 16 2;
#X connect 49 2 38 0;
#X connect 49 3 3 0;
#X connect 49 4 4 0;
#X connect 49 5 5 0;
#X connect 49 6 6 0;
#X connect 49 7 17 1;
#X connect 49 8 25 1;
#X connect 49 9 26 1;
#X connect 49 10 35 0;
#X connect 49 10 52 0;
#X connect 49 11 51 0;
#X connect 49 12 45 0;
#X connect 49 13 44 0;
#X connect 50 0 35 0;
#X connect 51 0 50 1;
#X connect 52 0 53 0;
#X connect 53 0 54 0;
#X connect 53 0 39 0;
