#N canvas 343 53 1001 632 10;
#X obj 176 423 3dp_view transxyz;
#X msg 226 296 reset;
#X obj 197 374 *;
#X obj 304 374 *;
#X floatatom 320 349 5 0 0 0 - - -;
#X obj 125 297 3dp_push;
#X obj 322 327 hsl 128 15 0.1 4 1 0 empty empty empty -2 -6 0 8 -262144
-1 -1 2132 1;
#X obj 226 224 route press3;
#X obj 125 272 3dp_for 100;
#X obj 265 536 3dp_draw cube 1;
#X floatatom 304 399 5 0 0 0 - - -;
#X floatatom 389 506 5 0 0 0 - - -;
#X obj 464 431 metro 50;
#X obj 465 408 tgl 15 0 empty empty empty 20 8 0 8 -262144 -1 -1 1
1;
#X floatatom 522 408 5 0 0 0 - - -;
#X floatatom 583 439 5 0 0 0 - - -;
#X obj 68 538 3dp_draw square 1;
#X floatatom 182 515 5 0 0 0 - - -;
#X obj 514 381 loadbang;
#X obj 464 459 countund 2;
#X floatatom 187 245 5 0 0 0 - - -;
#X obj 69 72 inlet;
#X obj 587 253 bng 15 250 50 0 empty empty empty 0 -6 0 8 -262144 -1
-1;
#X floatatom 624 268 5 0 0 0 - - -;
#X msg 624 243 18;
#X floatatom 541 333 5 0 0 0 - - -;
#X obj 552 312 random 150;
#X obj 707 290 metro 40;
#X obj 713 263 tgl 15 0 empty empty empty 0 -6 0 8 -262144 -1 -1 0
1;
#X floatatom 749 248 5 0 0 0 - - -;
#X obj 197 326 randomwalk2D 100;
#X obj 124 70 inlet walk;
#X obj 216 73 inlet tex;
#X obj 294 73 inlet beat;
#X floatatom 373 399 5 0 0 0 - - -;
#X obj 380 74 inlet size;
#X obj 68 503 spigot;
#X obj 265 499 spigot;
#X obj 463 75 inlet for;
#X obj 541 75 inlet squaresize;
#X obj 565 513 spigot;
#X obj 602 486 - 1;
#X obj 670 75 inlet OSC;
#X obj 131 31 OSCroute /for /distance /cubesize /squaresize /cubeson
/squareson /grow /reset;
#X obj 90 416 loadbang;
#X msg 90 445 1;
#X msg 368 359 0.2;
#X obj 105 476 tgl 15 0 empty empty empty 0 -6 0 8 -262144 -1 -1 0
1;
#X obj 303 473 tgl 15 0 empty empty empty 0 -6 0 8 -262144 -1 -1 0
1;
#X connect 0 0 36 0;
#X connect 0 0 37 0;
#X connect 1 0 30 0;
#X connect 2 0 0 1;
#X connect 3 0 0 2;
#X connect 3 0 34 0;
#X connect 4 0 3 1;
#X connect 4 0 2 1;
#X connect 5 1 0 0;
#X connect 6 0 4 0;
#X connect 7 0 1 0;
#X connect 8 0 5 0;
#X connect 8 1 30 0;
#X connect 10 0 0 3;
#X connect 11 0 9 2;
#X connect 12 0 19 0;
#X connect 13 0 12 0;
#X connect 13 0 41 0;
#X connect 14 0 12 1;
#X connect 15 0 19 1;
#X connect 15 0 40 0;
#X connect 17 0 16 2;
#X connect 18 0 13 0;
#X connect 18 0 46 0;
#X connect 19 0 11 0;
#X connect 20 0 8 1;
#X connect 21 0 8 0;
#X connect 22 0 26 0;
#X connect 23 0 26 1;
#X connect 24 0 23 0;
#X connect 26 0 25 0;
#X connect 27 0 22 0;
#X connect 28 0 27 0;
#X connect 29 0 27 1;
#X connect 30 0 2 0;
#X connect 30 1 3 0;
#X connect 31 0 6 0;
#X connect 32 0 9 1;
#X connect 32 0 16 1;
#X connect 33 0 13 0;
#X connect 35 0 15 0;
#X connect 36 0 16 0;
#X connect 37 0 9 0;
#X connect 38 0 20 0;
#X connect 39 0 17 0;
#X connect 40 0 11 0;
#X connect 41 0 40 1;
#X connect 42 0 43 0;
#X connect 43 0 20 0;
#X connect 43 1 6 0;
#X connect 43 2 15 0;
#X connect 43 3 17 0;
#X connect 43 4 37 1;
#X connect 43 5 36 1;
#X connect 43 6 13 0;
#X connect 43 7 1 0;
#X connect 44 0 45 0;
#X connect 45 0 47 0;
#X connect 45 0 48 0;
#X connect 46 0 4 0;
#X connect 47 0 36 1;
#X connect 48 0 37 1;
