#N canvas 263 177 729 460 10;
#X obj 141 88 3dp_view rotx;
#X obj 155 117 3dp_view roty;
#X obj 179 146 3dp_view rotz;
#X obj 177 206 outlet;
#X obj 34 10 inlet;
#X obj 302 77 tgl 15 0 empty empty empty 0 -6 0 8 -262144 -1 -1 0 1
;
#X floatatom 360 79 5 0 0 0 - - -;
#X obj 302 101 metro 40;
#X obj 412 119 tgl 15 0 empty empty empty 0 -6 0 8 -262144 -1 -1 0
1;
#X floatatom 470 121 5 0 0 0 - - -;
#X obj 412 143 metro 40;
#X obj 529 143 tgl 15 0 empty empty empty 0 -6 0 8 -262144 -1 -1 0
1;
#X floatatom 571 151 5 0 0 0 - - -;
#X obj 513 173 metro 40;
#X obj 227 -23 inlet;
#X obj 241 1 inlet;
#X obj 265 23 inlet;
#X obj 302 193 tgl 15 0 empty empty empty 0 -6 0 8 -262144 -1 -1 0
1;
#X floatatom 360 195 5 0 0 0 - - -;
#X obj 302 217 metro 40;
#X obj 412 235 tgl 15 0 empty empty empty 0 -6 0 8 -262144 -1 -1 0
1;
#X floatatom 470 237 5 0 0 0 - - -;
#X obj 412 259 metro 40;
#X obj 513 265 tgl 15 0 empty empty empty 0 -6 0 8 -262144 -1 -1 0
1;
#X floatatom 571 267 5 0 0 0 - - -;
#X obj 513 289 metro 40;
#X obj 302 239 random 360;
#X obj 425 293 random 360;
#X obj 513 311 random 360;
#X obj 395 3 bng 15 250 50 0 empty autofiddle empty 0 -6 0 8 -43142
-24198 -1;
#X obj 417 2 bng 15 250 50 0 empty autoon empty 0 -6 0 8 -143491 -258699
-1;
#X obj 440 2 bng 15 250 50 0 empty autostep empty 0 -6 0 8 -62784 -44926
-1;
#X obj 369 44 spigot;
#X obj 424 57 spigot;
#X obj 488 67 spigot;
#X obj 489 18 tgl 15 0 empty empty empty 0 -6 0 8 -262144 -1 -1 0 1
;
#X obj 540 20 tgl 15 0 empty empty empty 0 -6 0 8 -262144 -1 -1 0 1
;
#X obj 567 20 tgl 15 0 empty empty empty 0 -6 0 8 -262144 -1 -1 0 1
;
#X msg 187 25 0;
#X obj 499 -92 inlet OSC;
#X obj 230 253 bng 15 250 50 0 empty empty empty 0 -6 0 8 -262144 -1
-1;
#X obj 339 -52 OSCroute /x /y /z /autox /autoy /autoz /nervex /nervey
/nervez /speed;
#X obj 302 125 int-control-var;
#X obj 412 165 int-control-var;
#X obj 513 195 int-control-var;
#X connect 0 0 1 0;
#X connect 1 0 2 0;
#X connect 2 0 3 0;
#X connect 4 0 0 0;
#X connect 5 0 7 0;
#X connect 6 0 7 1;
#X connect 7 0 42 0;
#X connect 8 0 10 0;
#X connect 9 0 10 1;
#X connect 10 0 43 0;
#X connect 11 0 13 0;
#X connect 12 0 13 1;
#X connect 13 0 44 0;
#X connect 14 0 0 1;
#X connect 15 0 1 1;
#X connect 16 0 2 1;
#X connect 17 0 19 0;
#X connect 18 0 19 1;
#X connect 19 0 26 0;
#X connect 20 0 22 0;
#X connect 21 0 22 1;
#X connect 22 0 27 0;
#X connect 23 0 25 0;
#X connect 24 0 25 1;
#X connect 25 0 28 0;
#X connect 26 0 0 1;
#X connect 27 0 1 1;
#X connect 28 0 2 1;
#X connect 29 0 32 0;
#X connect 30 0 33 0;
#X connect 31 0 34 0;
#X connect 32 0 26 0;
#X connect 33 0 27 0;
#X connect 34 0 28 0;
#X connect 35 0 32 1;
#X connect 36 0 33 1;
#X connect 37 0 34 1;
#X connect 38 0 0 1;
#X connect 38 0 1 1;
#X connect 38 0 2 1;
#X connect 38 0 17 0;
#X connect 38 0 20 0;
#X connect 38 0 23 0;
#X connect 39 0 41 0;
#X connect 40 0 26 0;
#X connect 41 0 0 1;
#X connect 41 1 1 1;
#X connect 41 2 2 1;
#X connect 41 3 5 0;
#X connect 41 4 8 0;
#X connect 41 5 11 0;
#X connect 41 6 35 0;
#X connect 41 7 36 0;
#X connect 41 8 37 0;
#X connect 41 9 42 2;
#X connect 41 9 43 2;
#X connect 41 9 44 2;
#X connect 42 0 0 1;
#X connect 43 0 1 1;
#X connect 44 0 2 1;
