#N canvas 0 71 1001 656 8;
#X floatatom 165 53 5 0 0 0 - - -;
#X floatatom 156 121 5 0 0 0 - - -;
#X floatatom 159 193 5 0 0 0 - - -;
#X obj 128 164 3dp_view transxyz;
#X obj 28 5 inlet;
#X obj 134 277 outlet;
#X obj 232 81 * 1;
#X obj 227 131 * 1;
#X obj 233 220 * 1;
#X floatatom 260 62 5 0 0 0 - - -;
#X floatatom 254 123 5 0 0 0 - - -;
#X floatatom 261 207 5 0 0 0 - - -;
#X obj 99 66 3dp_for 5;
#X obj 98 139 3dp_for 5;
#X obj 99 204 3dp_for 5;
#X obj 58 87 3dp_push;
#X obj 64 169 3dp_push;
#X obj 99 222 3dp_push;
#X obj 134 240 3dp_view transxyz;
#X obj 122 99 3dp_view transxyz;
#X msg 314 94 8;
#X msg 313 38 -3;
#X obj 370 37 loadbang;
#X obj 207 62 - 2.5;
#X obj 220 107 - 2.5;
#X obj 215 201 - 2.5;
#X obj 309 -4 inlet separacion;
#X obj 107 15 inlet objetos;
#X obj 260 26 / -1;
#X obj 335 231 spigot;
#X obj 336 155 select 0 1 2 3;
#X floatatom 361 123 5 0 0 0 - - -;
#X obj 336 192 bng 15 250 50 0 empty empty empty 0 -6 0 8 -262144 -1
-1;
#X msg 382 97 0;
#X obj 352 179 bng 15 250 50 0 empty empty empty 0 -6 0 8 -262144 -1
-1;
#X msg 394 112 1;
#X msg 403 126 2;
#X msg 413 139 3;
#X obj 368 192 bng 15 250 50 0 empty empty empty 0 -6 0 8 -262144 -1
-1;
#X obj 384 176 bng 15 250 50 0 empty empty empty 0 -6 0 8 -262144 -1
-1;
#X obj 28 22 3dp_push;
#X obj 376 233 spigot;
#X obj 420 231 spigot;
#X obj 460 232 spigot;
#X msg 338 213 1;
#X msg 376 213 1;
#X msg 420 213 1;
#X msg 458 213 1;
#X msg 468 185 0;
#X obj 482 105 t i b;
#X obj 382 284 loadbang;
#X obj 544 44 bng 15 250 50 0 empty autofiddle empty 0 -6 0 8 -43142
-24198 -1;
#X obj 566 43 bng 15 250 50 0 empty autoon empty 0 -6 0 8 -143491 -258699
-1;
#X obj 589 43 bng 15 250 50 0 empty autostep empty 0 -6 0 8 -62784
-44926 -1;
#X obj 548 153 / 100;
#X obj 544 44 bng 15 250 50 0 empty autofiddle empty 0 -6 0 8 -43142
-24198 -1;
#X obj 566 43 bng 15 250 50 0 empty autoon empty 0 -6 0 8 -143491 -258699
-1;
#X obj 589 43 bng 15 250 50 0 empty autostep empty 0 -6 0 8 -62784
-44926 -1;
#X floatatom 597 74 5 0 0 0 - - -;
#X obj 619 117 metro 100;
#X obj 548 107 random 40;
#X obj 522 81 * 100;
#X obj 547 129 spigot;
#X obj 789 145 tgl 15 0 empty empty empty 0 -6 0 8 -262144 -1 -1 0.52
0.52;
#X obj 634 182 tgl 15 0 empty empty empty 0 -6 0 8 -262144 -1 -1 0
1;
#X obj 550 180 + 0;
#X floatatom 595 210 5 0 0 0 - - -;
#X obj 653 2 inlet OSC;
#X floatatom 309 13 5 0 0 0 - - -;
#X floatatom 479 57 5 0 0 0 - - -;
#X obj 668 88 bng 15 250 50 0 empty empty empty 0 -6 0 8 -262144 -1
-1;
#X obj 838 135 loadbang;
#X obj 747 9 OSCroute /objetos /separacion /auto /nerve /numero;
#X obj 211 27 * 0.5;
#X obj 205 5 - 1;
#X connect 0 0 12 1;
#X connect 0 0 13 1;
#X connect 0 0 14 1;
#X connect 0 0 74 0;
#X connect 1 0 13 1;
#X connect 2 0 14 1;
#X connect 3 0 14 0;
#X connect 4 0 40 0;
#X connect 6 0 19 3;
#X connect 7 0 3 2;
#X connect 8 0 18 1;
#X connect 9 0 6 1;
#X connect 10 0 7 1;
#X connect 11 0 8 1;
#X connect 12 0 15 0;
#X connect 12 1 23 0;
#X connect 13 0 16 0;
#X connect 13 1 24 0;
#X connect 14 0 17 0;
#X connect 14 1 25 0;
#X connect 15 1 19 0;
#X connect 16 1 3 0;
#X connect 17 1 18 0;
#X connect 18 0 5 0;
#X connect 19 0 13 0;
#X connect 20 0 10 0;
#X connect 20 0 11 0;
#X connect 21 0 9 0;
#X connect 22 0 21 0;
#X connect 22 0 20 0;
#X connect 23 0 6 0;
#X connect 24 0 7 0;
#X connect 25 0 8 0;
#X connect 26 0 68 0;
#X connect 27 0 49 0;
#X connect 28 0 9 0;
#X connect 29 0 5 0;
#X connect 30 0 32 0;
#X connect 30 1 34 0;
#X connect 30 2 38 0;
#X connect 30 3 39 0;
#X connect 32 0 44 0;
#X connect 33 0 49 0;
#X connect 34 0 45 0;
#X connect 35 0 49 0;
#X connect 36 0 49 0;
#X connect 37 0 49 0;
#X connect 38 0 46 0;
#X connect 39 0 47 0;
#X connect 40 0 29 0;
#X connect 40 0 41 0;
#X connect 40 0 42 0;
#X connect 40 0 43 0;
#X connect 41 0 14 0;
#X connect 42 0 13 0;
#X connect 43 0 12 0;
#X connect 44 0 29 1;
#X connect 45 0 41 1;
#X connect 46 0 42 1;
#X connect 47 0 43 1;
#X connect 48 0 43 1;
#X connect 48 0 42 1;
#X connect 48 0 41 1;
#X connect 48 0 29 1;
#X connect 49 0 30 0;
#X connect 49 1 48 0;
#X connect 50 0 44 0;
#X connect 54 0 65 0;
#X connect 56 0 70 0;
#X connect 58 0 60 1;
#X connect 59 0 60 0;
#X connect 60 0 62 0;
#X connect 61 0 60 1;
#X connect 61 0 63 0;
#X connect 62 0 54 0;
#X connect 63 0 62 1;
#X connect 63 0 59 0;
#X connect 64 0 62 1;
#X connect 65 0 28 0;
#X connect 65 0 10 0;
#X connect 65 0 11 0;
#X connect 66 0 65 1;
#X connect 67 0 72 0;
#X connect 68 0 28 0;
#X connect 68 0 10 0;
#X connect 68 0 11 0;
#X connect 68 0 65 1;
#X connect 69 0 61 0;
#X connect 70 0 60 0;
#X connect 71 0 63 0;
#X connect 72 0 49 0;
#X connect 72 1 68 0;
#X connect 72 2 63 0;
#X connect 72 3 61 0;
#X connect 72 4 0 0;
#X connect 73 0 23 1;
#X connect 73 0 24 1;
#X connect 73 0 25 1;
#X connect 74 0 73 0;
