#N canvas 149 93 775 458 10;
#X floatatom 137 305 5 0 0 0 multiplicacion - -;
#X msg 169 276 10;
#X obj 374 210 3dp_view rotx;
#X obj 374 257 3dp_view roty;
#X obj 374 302 3dp_view rotz;
#X obj 486 134 random 360;
#X obj 479 194 random 360;
#X obj 479 241 random 360;
#X obj 479 112 bng 15 250 50 0 empty empty empty 0 -6 0 8 -262144 -1
-1;
#X obj 324 136 3dp_push;
#X floatatom 544 110 5 0 0 0 - - -;
#X obj 73 326 3dp_for 10;
#X obj 11 24 3dp_view scale 4;
#X msg 544 85 18;
#X obj 521 324 3dp_draw torus 7;
#X floatatom 652 297 5 0 0 0 - - -;
#X floatatom 604 297 5 0 0 0 - - -;
#X floatatom 558 296 5 0 0 0 - - -;
#X msg 585 254 1;
#X obj 606 187 loadbang;
#X msg 625 256 -0.3;
#X msg 666 255 17;
#X obj 14 -40 inlet;
#X obj 525 372 outlet;
#X floatatom 137 -16 5 0 0 0 - - -;
#X msg 168 -48 2;
#X obj 291 -71 cnv 15 400 150 empty empty luz 20 12 1 25 -44926 -62784
0;
#X obj 295 28 3dp_view transz 5;
#X obj 295 52 3dp_light;
#X floatatom 409 1 5 0 0 0 - - -;
#X floatatom 395 -28 5 0 0 0 - - -;
#X msg 395 -53 75;
#X obj 295 3 3dp_view roty 2;
#X obj 551 -12 metro 50;
#X obj 551 -32 tgl 15 0 empty empty empty 20 8 0 8 -262144 -1 -1 0
1;
#X floatatom 610 -54 5 0 0 0 - - -;
#X obj 554 37 / 10;
#X floatatom 615 -31 5 0 0 0 - - -;
#X floatatom 590 38 5 0 0 0 - - -;
#X obj 12 -11 3dp_push;
#X text 199 344 electric ball / bola ionica by osirak@hackitectura.net
L.I.T. (Lavapies Institute of Technology);
#X obj 341 178 3dp_view transxyz;
#X floatatom 508 168 5 0 0 0 - - -;
#X obj 425 150 * 1;
#X floatatom 406 115 5 0 0 0 - - -;
#X obj 395 150 * 1;
#X floatatom 376 115 5 0 0 0 - - -;
#X obj 378 89 / 360;
#X obj 606 141 random 360;
#X obj 606 114 bng 15 250 50 0 empty empty empty 0 -6 0 8 -262144 -1
-1;
#X floatatom 671 112 5 0 0 0 - - -;
#X msg 671 87 18;
#X obj 551 11 int-control;
#X connect 0 0 11 1;
#X connect 1 0 0 0;
#X connect 2 0 3 0;
#X connect 3 0 4 0;
#X connect 4 0 14 0;
#X connect 5 0 2 1;
#X connect 6 0 3 1;
#X connect 7 0 4 1;
#X connect 8 0 5 0;
#X connect 8 0 6 0;
#X connect 8 0 7 0;
#X connect 9 1 41 0;
#X connect 10 0 5 1;
#X connect 10 0 6 1;
#X connect 10 0 7 1;
#X connect 11 0 9 0;
#X connect 11 1 8 0;
#X connect 11 1 43 0;
#X connect 11 1 45 0;
#X connect 11 1 49 0;
#X connect 12 0 11 0;
#X connect 13 0 10 0;
#X connect 14 0 23 0;
#X connect 15 0 14 4;
#X connect 16 0 14 3;
#X connect 17 0 14 2;
#X connect 18 0 17 0;
#X connect 19 0 18 0;
#X connect 19 0 20 0;
#X connect 19 0 21 0;
#X connect 19 0 25 0;
#X connect 20 0 16 0;
#X connect 21 0 15 0;
#X connect 22 0 39 0;
#X connect 24 0 12 1;
#X connect 25 0 24 0;
#X connect 27 0 28 0;
#X connect 29 0 27 1;
#X connect 30 0 32 1;
#X connect 31 0 30 0;
#X connect 32 0 27 0;
#X connect 33 0 52 0;
#X connect 34 0 33 0;
#X connect 35 0 33 1;
#X connect 36 0 30 0;
#X connect 38 0 36 1;
#X connect 39 0 12 0;
#X connect 39 1 32 0;
#X connect 41 0 2 0;
#X connect 43 0 41 3;
#X connect 44 0 43 1;
#X connect 45 0 41 2;
#X connect 46 0 45 1;
#X connect 47 0 44 0;
#X connect 48 0 47 0;
#X connect 49 0 48 0;
#X connect 50 0 48 1;
#X connect 51 0 50 0;
#X connect 52 0 36 0;
