#N canvas 294 55 702 562 8;
#X obj 98 188 3dp_view rotx;
#X obj 98 235 3dp_view roty;
#X obj 98 283 3dp_view rotz;
#X obj 184 157 random 360;
#X obj 184 212 random 360;
#X obj 184 260 random 360;
#X obj 183 131 bng 15 250 50 0 empty empty empty 0 -6 0 8 -262144 -1
-1;
#X floatatom 249 129 5 0 0 0 - - -;
#X obj 68 66 3dp_for 10;
#X obj 57 401 3dp_view transxyz;
#X floatatom 168 340 5 0 0 0 - - -;
#X obj 82 375 * 1;
#X obj 118 374 * 1;
#X obj 152 374 * 1;
#X floatatom 107 333 5 0 0 0 - - -;
#X floatatom 63 333 5 0 0 0 - - -;
#X msg 234 318 0;
#X obj 318 265 metro 100;
#X obj 318 294 random 100;
#X obj 306 223 tgl 15 0 empty empty nervous 0 -6 0 4 -260818 -1 -1
0 1.00787;
#X obj 406 307 - 50;
#X floatatom 405 251 5 0 0 0 - - -;
#X obj 421 276 / 2;
#X obj 309 328 / 100;
#X msg 210 94 0;
#X floatatom 138 39 5 0 0 0 - - -;
#X obj 275 276 + 0;
#X obj 219 298 + 0;
#X obj 243 282 + 0;
#X obj 332 90 s \$0-tex;
#X obj 322 411 r \$0-tex;
#X obj 129 123 * 0;
#X obj 181 62 nbx 12 12 -1e+37 1e+37 0 0 empty empty giro 0 -6 0 4
-225271 -1 -1 1.4 256;
#X floatatom 262 69 5 0 0 0 - - -;
#X obj 68 35 inlet 3dp;
#X obj 331 45 inlet tex;
#X obj 375 44 inlet giro;
#X obj 424 43 inlet distorsion;
#X obj 566 42 inlet OSC;
#X obj 536 443 loadbang;
#X msg 527 480 5 1;
#X obj 306 456 3dp_bola;
#X obj 511 42 inlet for;
#X connect 0 0 1 0;
#X connect 1 0 2 0;
#X connect 2 0 9 0;
#X connect 3 0 0 1;
#X connect 4 0 1 1;
#X connect 5 0 2 1;
#X connect 6 0 3 0;
#X connect 6 0 4 0;
#X connect 6 0 5 0;
#X connect 7 0 3 1;
#X connect 7 0 4 1;
#X connect 7 0 5 1;
#X connect 8 0 0 0;
#X connect 8 1 11 0;
#X connect 8 1 12 0;
#X connect 8 1 13 0;
#X connect 8 1 31 0;
#X connect 9 0 41 0;
#X connect 10 0 13 1;
#X connect 10 0 26 1;
#X connect 11 0 9 1;
#X connect 12 0 9 2;
#X connect 13 0 9 3;
#X connect 14 0 12 1;
#X connect 14 0 28 1;
#X connect 15 0 11 1;
#X connect 15 0 27 1;
#X connect 16 0 10 0;
#X connect 16 0 14 0;
#X connect 16 0 15 0;
#X connect 17 0 18 0;
#X connect 18 0 20 0;
#X connect 19 0 17 0;
#X connect 20 0 23 0;
#X connect 21 0 18 1;
#X connect 21 0 22 0;
#X connect 21 0 19 0;
#X connect 22 0 20 1;
#X connect 23 0 26 0;
#X connect 23 0 28 0;
#X connect 23 0 27 0;
#X connect 24 0 31 1;
#X connect 25 0 8 1;
#X connect 26 0 13 1;
#X connect 27 0 11 1;
#X connect 28 0 12 1;
#X connect 30 0 41 1;
#X connect 31 0 0 1;
#X connect 31 0 1 1;
#X connect 31 0 2 1;
#X connect 32 0 31 1;
#X connect 33 0 31 1;
#X connect 34 0 8 0;
#X connect 35 0 29 0;
#X connect 36 0 32 0;
#X connect 37 0 21 0;
#X connect 38 0 41 3;
#X connect 39 0 40 0;
#X connect 40 0 41 2;
#X connect 42 0 25 0;
