#N canvas 1110 68 450 300 10;
#X obj 160 150 pdp_spigot;
#X obj 225 124 tgl 15 0 empty empty empty 0 -6 0 8 -262144 -1 -1 0
1;
#X obj 225 97 spigot;
#X obj 262 64 tgl 15 0 empty empty empty 0 -6 0 8 -262144 -1 -1 0 1
;
#X obj 160 20 inlet;
#X obj 225 20 inlet;
#X obj 289 20 inlet;
#X obj 160 223 outlet;
#X obj 225 223 outlet;
#X text 159 1 video;
#X text 222 1 control;
#X text 287 1 on/off;
#X text 161 244 left;
#X text 226 245 right;
#X connect 0 0 7 0;
#X connect 0 1 8 0;
#X connect 1 0 0 1;
#X connect 2 0 1 0;
#X connect 3 0 2 1;
#X connect 4 0 0 0;
#X connect 5 0 2 0;
#X connect 6 0 3 0;
