#N canvas 542 84 590 514 10;
#X text 44 481 written by Yves Degoyon ( ydegoyon@free.fr );
#X text 43 466 pdp_capture : capture a portion of the screen;
#X floatatom 237 156 5 0 0 0 - - -;
#X floatatom 248 179 5 0 0 0 - - -;
#X floatatom 265 202 5 0 0 0 - - -;
#X floatatom 279 227 5 0 0 0 - - -;
#X msg 229 125 screen 0;
#X text 392 101 Sets the display;
#X text 296 125 Sets the screen number;
#X obj 172 292 pdp_scale 320 240;
#X obj 183 264 pdp_capture;
#X text 318 201 Width ( default : 320 );
#X text 301 178 Upper left Y position ( default : 0 );
#X text 290 155 Upper left X position ( default : 0 );
#X text 332 226 Height ( default : 240 );
#X msg 218 101 display 192.168.0.7:0;
#X obj 170 346 outlet;
#X obj 89 135 metro 100;
#X obj 82 49 inlet;
#X obj 398 265 bng 15 250 50 0 empty empty empty 0 -6 0 8 -262144 -1
-1;
#X obj 400 290 bng 15 250 50 0 empty empty empty 0 -6 0 8 -262144 -1
-1;
#X obj 400 315 bng 15 250 50 0 empty empty empty 0 -6 0 8 -262144 -1
-1;
#X msg 319 262 160;
#X msg 359 262 120;
#X msg 321 287 320;
#X msg 360 287 240;
#X msg 321 312 640;
#X msg 360 312 480;
#X obj 225 350 grid grid1 160 0 640 120 0 480 1 1 1 10 10 130 377;
#X obj 259 327 * -1;
#X obj 147 98 r gtempo;
#X connect 2 0 10 1;
#X connect 3 0 10 2;
#X connect 4 0 10 3;
#X connect 5 0 10 4;
#X connect 6 0 10 0;
#X connect 9 0 16 0;
#X connect 10 0 9 0;
#X connect 15 0 10 0;
#X connect 17 0 10 0;
#X connect 18 0 17 0;
#X connect 19 0 23 0;
#X connect 19 0 22 0;
#X connect 20 0 25 0;
#X connect 20 0 24 0;
#X connect 21 0 27 0;
#X connect 21 0 26 0;
#X connect 22 0 4 0;
#X connect 23 0 5 0;
#X connect 24 0 4 0;
#X connect 25 0 5 0;
#X connect 26 0 4 0;
#X connect 27 0 5 0;
#X connect 28 0 2 0;
#X connect 28 1 29 0;
#X connect 29 0 3 0;
#X connect 30 0 17 1;
