#N canvas 0 35 991 650 10;
#X obj 103 61 adc~;
#X obj 333 318 bonk~;
#X obj 83 95 spigot~;
#X obj 179 76 spigot~;
#X obj 269 42 tgl 15 0 empty empty empty 0 -6 0 8 -262144 -1 -1 1 1
;
#X obj 459 328 bonk~;
#X floatatom 385 235 5 0 0 0 - - -;
#X floatatom 516 246 5 0 0 0 - - -;
#X obj 353 448 outlet;
#X obj 503 448 outlet;
#X obj 686 353 filterbank~ 0 2000 30;
#X obj 645 404 env~;
#X obj 681 381 env~;
#X obj 680 403 env~;
#X obj 646 380 env~;
#X obj 660 433 vsl 8 128 0 127 0 0 empty empty empty 20 8 0 8 -262144
-1 -1 0 1;
#X obj 672 433 vsl 8 128 0 127 0 0 empty empty empty 20 8 0 8 -262144
-1 -1 0 1;
#X obj 684 434 vsl 8 128 0 127 0 0 empty empty empty 20 8 0 8 -262144
-1 -1 0 1;
#X obj 697 434 vsl 8 128 0 127 0 0 empty empty empty 20 8 0 8 -262144
-1 -1 0 1;
#X obj 715 405 env~;
#X obj 750 381 env~;
#X obj 750 404 env~;
#X obj 717 381 env~;
#X obj 730 434 vsl 8 128 0 127 0 0 empty empty empty 20 8 0 8 -262144
-1 -1 0 1;
#X obj 742 434 vsl 8 128 0 127 0 0 empty empty empty 20 8 0 8 -262144
-1 -1 0 1;
#X obj 754 434 vsl 8 128 0 127 0 0 empty empty empty 20 8 0 8 -262144
-1 -1 0 1;
#X obj 767 435 vsl 8 128 0 127 0 0 empty empty empty 20 8 0 8 -262144
-1 -1 0 1;
#X obj 786 405 env~;
#X obj 821 381 env~;
#X obj 821 404 env~;
#X obj 787 381 env~;
#X obj 801 434 vsl 8 128 0 127 0 0 empty empty empty 20 8 0 8 -262144
-1 -1 0 1;
#X obj 813 434 vsl 8 128 0 127 0 0 empty empty empty 20 8 0 8 -262144
-1 -1 0 1;
#X obj 825 434 vsl 8 128 0 127 0 0 empty empty empty 20 8 0 8 -262144
-1 -1 0 1;
#X obj 838 435 vsl 8 128 0 127 0 0 empty empty empty 20 8 0 8 -262144
-1 -1 0 1;
#X obj 856 405 env~;
#X obj 891 381 env~;
#X obj 891 404 env~;
#X obj 857 381 env~;
#X obj 871 434 vsl 8 128 0 127 0 0 empty empty empty 20 8 0 8 -262144
-1 -1 0 1;
#X obj 883 434 vsl 8 128 0 127 0 0 empty empty empty 20 8 0 8 -262144
-1 -1 0 1;
#X obj 895 434 vsl 8 128 0 127 0 0 empty empty empty 20 8 0 8 -262144
-1 -1 0 1;
#X obj 908 435 vsl 8 128 0 127 0 0 empty empty empty 20 8 0 8 -262144
-1 -1 0 1;
#X obj 926 405 env~;
#X obj 962 382 env~;
#X obj 961 404 env~;
#X obj 927 381 env~;
#X obj 941 434 vsl 8 128 0 127 0 0 empty empty empty 20 8 0 8 -262144
-1 -1 0 1;
#X obj 953 434 vsl 8 128 0 127 0 0 empty empty empty 20 8 0 8 -262144
-1 -1 0 1;
#X obj 965 434 vsl 8 128 0 127 0 0 empty empty empty 20 8 0 8 -262144
-1 -1 0 1;
#X obj 978 435 vsl 8 128 0 127 0 0 empty empty empty 20 8 0 8 -262144
-1 -1 0 1;
#X obj 997 404 env~;
#X obj 1032 380 env~;
#X obj 1032 403 env~;
#X obj 998 380 env~;
#X obj 1012 433 vsl 8 128 0 127 0 0 empty empty empty 20 8 0 8 -262144
-1 -1 0 1;
#X obj 1024 433 vsl 8 128 0 127 0 0 empty empty empty 20 8 0 8 -262144
-1 -1 0 1;
#X obj 1036 433 vsl 8 128 0 127 0 0 empty empty empty 20 8 0 8 -262144
-1 -1 0 1;
#X obj 1049 434 vsl 8 128 0 127 0 0 empty empty empty 20 8 0 8 -262144
-1 -1 0 1;
#X obj 1072 402 env~;
#X obj 1107 378 env~;
#X obj 1107 401 env~;
#X obj 1073 378 env~;
#X obj 1087 431 vsl 8 128 0 127 0 0 empty empty empty 20 8 0 8 -262144
-1 -1 0 1;
#X obj 1099 431 vsl 8 128 0 127 0 0 empty empty empty 20 8 0 8 -262144
-1 -1 0 1;
#X obj 1111 431 vsl 8 128 0 127 0 0 empty empty empty 20 8 0 8 -262144
-1 -1 0 1;
#X obj 1124 432 vsl 8 128 0 127 0 0 empty empty empty 20 8 0 8 -262144
-1 -1 0 1;
#X obj 1139 402 env~;
#X obj 1140 378 env~;
#X obj 1154 431 vsl 8 128 0 127 0 0 empty empty empty 20 8 0 8 -262144
-1 -1 0 1;
#X obj 1166 431 vsl 8 128 0 127 0 0 empty empty empty 20 8 0 8 -262144
-1 -1 0 1;
#X text 762 302 Step 2 : See the filterbank~ output;
#X text 1010 326 Step 3 : shift all the outputs randomly;
#X msg 1017 348 randomize 1;
#X msg 1106 348 randomize 0;
#X obj 691 592 bonk~;
#X obj 691 592 bonk~;
#X obj 836 587 bonk~;
#X obj 771 585 bonk~;
#X obj 868 617 bng 15 250 50 0 empty empty empty 0 -6 0 8 -262144 -1
-1;
#X obj 803 618 bng 15 250 50 0 empty empty empty 0 -6 0 8 -262144 -1
-1;
#X obj 726 624 bng 15 250 50 0 empty empty empty 0 -6 0 8 -262144 -1
-1;
#X obj 677 627 bng 15 250 50 0 empty empty empty 0 -6 0 8 -262144 -1
-1;
#X msg 948 606 minvel 10;
#X msg 948 576 thresh 0 50;
#X msg 948 636 mask 0 0.7;
#X obj 641 597 bonk~;
#X floatatom 607 540 5 0 0 0 - - -;
#X obj 587 567 *~;
#X obj 643 629 bng 15 250 50 0 empty empty empty 0 -6 0 8 -262144 -1
-1;
#X obj 177 443 outlet;
#X obj 458 280 hip~ 3000;
#X obj 334 284 lop~ 100;
#X obj 693 298 spigot~;
#X obj 732 266 tgl 15 0 empty empty empty 0 -6 0 8 -262144 -1 -1 0
1;
#X obj 186 304 fiddle~;
#X msg 840 90 disconnect;
#X obj 843 172 netsend 1;
#X floatatom 840 195 0 0 0 0 - - -;
#X msg 991 123 send /ritmo/ritmo/beat 1;
#X msg 997 167 send /ritmo/graves/beat 1;
#X msg 995 147 send /ritmo/agudos/beat 1;
#X obj 949 148 spigot;
#X obj 939 124 spigot;
#X obj 945 174 spigot;
#X obj 989 94 tgl 15 0 empty empty empty 0 -6 0 8 -262144 -1 -1 0 1
;
#X msg 842 44 connect 192.168.3.1 8666;
#X obj 726 37 metro 10000;
#X obj 727 10 tgl 15 0 empty empty empty 0 -6 0 8 -262144 -1 -1 0 1
;
#X obj 565 -190 inlet;
#X obj 178 370 metro 1000;
#X obj 178 344 tgl 15 0 empty empty empty 0 -6 0 8 -262144 -1 -1 0
1;
#X obj 503 351 metro 500;
#X obj 354 363 metro 700;
#X obj 572 -129 OSCroute /ritmo /graves /agudos;
#X obj 334 345 tgl 15 0 empty empty empty 0 -6 0 8 -262144 -1 -1 0
1;
#X obj 503 323 tgl 15 0 empty empty empty 0 -6 0 8 -262144 -1 -1 0
1;
#X obj 354 201 spigot~;
#X obj 271 201 spigot~;
#X obj 197 201 spigot~;
#X obj 403 182 tgl 15 0 empty empty empty 0 -6 0 8 -262144 -1 -1 1
1;
#X obj 317 170 tgl 15 0 empty empty empty 0 -6 0 8 -262144 -1 -1 1
1;
#X obj 241 171 tgl 15 0 empty empty empty 0 -6 0 8 -262144 -1 -1 1
1;
#X obj 395 -159 OSCroute /beat /auto /speed /beats /musicctl;
#X obj 630 -101 OSCroute /beat /auto /speed /beats /hz /musicctl;
#X obj 620 -51 OSCroute /beat /auto /speed /beats /hz /musicctl;
#X obj 320 38 inlet;
#X obj 200 404 int-control2;
#X floatatom 272 371 5 0 0 0 - - -;
#X obj 333 407 int-control2;
#X floatatom 412 384 5 0 0 0 - - -;
#X obj 456 410 int-control2;
#X floatatom 528 377 5 0 0 0 - - -;
#X msg 84 157 1;
#X obj 23 160 loadbang;
#X obj 300 480 bng 15 250 50 0 empty empty empty 0 -6 0 8 -262144 -1
-1;
#X obj 419 490 bng 15 250 50 0 empty empty empty 0 -6 0 8 -262144 -1
-1;
#X connect 0 0 2 0;
#X connect 0 1 3 0;
#X connect 1 0 129 0;
#X connect 2 1 118 0;
#X connect 2 1 117 0;
#X connect 3 1 93 0;
#X connect 3 1 119 0;
#X connect 3 1 118 0;
#X connect 3 1 117 0;
#X connect 4 0 3 1;
#X connect 4 0 2 1;
#X connect 5 1 131 0;
#X connect 6 0 92 1;
#X connect 7 0 91 1;
#X connect 10 0 14 0;
#X connect 10 0 88 0;
#X connect 10 1 11 0;
#X connect 10 2 12 0;
#X connect 10 3 13 0;
#X connect 10 4 22 0;
#X connect 10 5 19 0;
#X connect 10 6 20 0;
#X connect 10 7 21 0;
#X connect 10 7 76 0;
#X connect 10 8 30 0;
#X connect 10 9 27 0;
#X connect 10 10 28 0;
#X connect 10 11 29 0;
#X connect 10 12 38 0;
#X connect 10 13 35 0;
#X connect 10 13 78 0;
#X connect 10 14 36 0;
#X connect 10 15 37 0;
#X connect 10 16 46 0;
#X connect 10 17 43 0;
#X connect 10 18 44 0;
#X connect 10 18 45 0;
#X connect 10 20 54 0;
#X connect 10 21 51 0;
#X connect 10 22 52 0;
#X connect 10 23 53 0;
#X connect 10 24 62 0;
#X connect 10 25 59 0;
#X connect 10 25 77 0;
#X connect 10 26 60 0;
#X connect 10 27 61 0;
#X connect 10 28 68 0;
#X connect 10 29 67 0;
#X connect 11 0 16 0;
#X connect 12 0 17 0;
#X connect 13 0 18 0;
#X connect 14 0 15 0;
#X connect 19 0 24 0;
#X connect 20 0 25 0;
#X connect 21 0 26 0;
#X connect 22 0 23 0;
#X connect 27 0 32 0;
#X connect 28 0 33 0;
#X connect 29 0 34 0;
#X connect 30 0 31 0;
#X connect 35 0 40 0;
#X connect 36 0 41 0;
#X connect 37 0 42 0;
#X connect 38 0 39 0;
#X connect 43 0 48 0;
#X connect 44 0 49 0;
#X connect 45 0 50 0;
#X connect 46 0 47 0;
#X connect 51 0 56 0;
#X connect 52 0 57 0;
#X connect 53 0 58 0;
#X connect 54 0 55 0;
#X connect 59 0 64 0;
#X connect 60 0 65 0;
#X connect 61 0 66 0;
#X connect 62 0 63 0;
#X connect 67 0 70 0;
#X connect 68 0 69 0;
#X connect 73 0 10 0;
#X connect 74 0 10 0;
#X connect 76 1 81 0;
#X connect 77 1 79 0;
#X connect 78 1 80 0;
#X connect 83 0 86 0;
#X connect 84 0 86 0;
#X connect 85 0 86 0;
#X connect 86 0 89 0;
#X connect 86 1 82 0;
#X connect 87 0 88 1;
#X connect 88 0 86 0;
#X connect 91 0 5 0;
#X connect 92 0 1 0;
#X connect 93 1 10 0;
#X connect 94 0 93 1;
#X connect 95 1 127 0;
#X connect 96 0 97 0;
#X connect 97 0 98 0;
#X connect 97 0 105 0;
#X connect 99 0 97 0;
#X connect 100 0 97 0;
#X connect 101 0 97 0;
#X connect 102 0 101 0;
#X connect 103 0 99 0;
#X connect 104 0 100 0;
#X connect 105 0 103 1;
#X connect 105 0 102 1;
#X connect 105 0 104 1;
#X connect 106 0 97 0;
#X connect 107 0 106 0;
#X connect 108 0 107 0;
#X connect 109 0 114 0;
#X connect 110 0 90 0;
#X connect 111 0 110 0;
#X connect 112 0 9 0;
#X connect 113 0 8 0;
#X connect 114 0 123 0;
#X connect 114 1 124 0;
#X connect 114 2 125 0;
#X connect 115 0 113 0;
#X connect 116 0 112 0;
#X connect 117 1 91 0;
#X connect 118 1 92 0;
#X connect 119 1 95 0;
#X connect 120 0 117 1;
#X connect 121 0 118 1;
#X connect 122 0 119 1;
#X connect 123 0 90 0;
#X connect 123 1 111 0;
#X connect 123 2 110 1;
#X connect 123 3 128 0;
#X connect 123 4 122 0;
#X connect 124 0 8 0;
#X connect 124 1 115 0;
#X connect 124 2 113 1;
#X connect 124 3 130 0;
#X connect 124 4 6 0;
#X connect 124 5 121 0;
#X connect 125 0 9 0;
#X connect 125 1 116 0;
#X connect 125 2 112 1;
#X connect 125 3 132 0;
#X connect 125 4 7 0;
#X connect 125 5 120 0;
#X connect 126 0 4 0;
#X connect 127 1 90 0;
#X connect 127 1 103 0;
#X connect 127 1 135 0;
#X connect 128 0 127 2;
#X connect 129 1 8 0;
#X connect 129 1 104 0;
#X connect 129 1 136 0;
#X connect 130 0 129 2;
#X connect 131 1 9 0;
#X connect 131 1 102 0;
#X connect 132 0 131 2;
#X connect 133 0 122 0;
#X connect 133 0 121 0;
#X connect 133 0 120 0;
#X connect 133 0 128 0;
#X connect 133 0 130 0;
#X connect 133 0 132 0;
#X connect 134 0 133 0;
