#N canvas 118 133 450 300 10;
#X obj 130 90 bng 15 250 50 0 empty empty empty 0 -6 0 8 -262144 -1
-1;
#X obj 183 91 bng 15 250 50 0 empty empty empty 0 -6 0 8 -262144 -1
-1;
#X obj 156 91 bng 15 250 50 0 empty empty empty 0 -6 0 8 -262144 -1
-1;
#X obj 207 92 bng 15 250 50 0 empty empty empty 0 -6 0 8 -262144 -1
-1;
#X obj 260 93 bng 15 250 50 0 empty empty empty 0 -6 0 8 -262144 -1
-1;
#X obj 233 93 bng 15 250 50 0 empty empty empty 0 -6 0 8 -262144 -1
-1;
#X obj 283 94 bng 15 250 50 0 empty empty empty 0 -6 0 8 -262144 -1
-1;
#X obj 336 95 bng 15 250 50 0 empty empty empty 0 -6 0 8 -262144 -1
-1;
#X obj 309 95 bng 15 250 50 0 empty empty empty 0 -6 0 8 -262144 -1
-1;
#X obj 47 210 spigot;
#X obj 101 209 spigot;
#X obj 153 210 spigot;
#X obj 203 210 spigot;
#X obj 251 210 spigot;
#X obj 305 209 spigot;
#X obj 357 210 spigot;
#X obj 407 210 spigot;
#X obj 0 210 spigot;
#X msg 119 110 0;
#X msg 119 142 1;
#X msg 151 111 0;
#X msg 151 143 1;
#X msg 182 113 0;
#X msg 182 145 1;
#X msg 212 116 0;
#X msg 212 148 1;
#X msg 242 116 0;
#X msg 242 148 1;
#X msg 274 117 0;
#X msg 274 149 1;
#X msg 305 119 0;
#X msg 305 151 1;
#X msg 335 122 0;
#X msg 335 154 1;
#X msg 365 123 0;
#X msg 363 156 1;
#X obj 34 161 inlet;
#X obj 2 245 outlet;
#X obj 47 246 outlet;
#X obj 97 246 outlet;
#X obj 142 247 outlet;
#X obj 192 246 outlet;
#X obj 237 247 outlet;
#X obj 285 245 outlet;
#X obj 331 247 outlet;
#X obj 379 245 outlet;
#X obj 112 17 route 33 34 186 36 37 38 47 40 41 61 63 191;
#X connect 0 0 18 0;
#X connect 0 0 20 0;
#X connect 0 0 19 0;
#X connect 1 0 22 0;
#X connect 1 0 20 0;
#X connect 1 0 23 0;
#X connect 2 0 20 0;
#X connect 2 0 21 0;
#X connect 3 0 24 0;
#X connect 3 0 20 0;
#X connect 3 0 25 0;
#X connect 4 0 28 0;
#X connect 4 0 20 0;
#X connect 4 0 29 0;
#X connect 5 0 26 0;
#X connect 5 0 20 0;
#X connect 5 0 27 0;
#X connect 6 0 30 0;
#X connect 6 0 20 0;
#X connect 6 0 31 0;
#X connect 7 0 34 0;
#X connect 7 0 20 0;
#X connect 7 0 35 0;
#X connect 8 0 32 0;
#X connect 8 0 20 0;
#X connect 8 0 33 0;
#X connect 9 0 38 0;
#X connect 10 0 39 0;
#X connect 11 0 40 0;
#X connect 12 0 41 0;
#X connect 13 0 42 0;
#X connect 14 0 43 0;
#X connect 15 0 44 0;
#X connect 16 0 45 0;
#X connect 17 0 37 0;
#X connect 19 0 17 1;
#X connect 20 0 9 1;
#X connect 20 0 17 1;
#X connect 20 0 11 1;
#X connect 20 0 12 1;
#X connect 20 0 13 1;
#X connect 20 0 14 1;
#X connect 20 0 15 1;
#X connect 20 0 16 1;
#X connect 20 0 10 1;
#X connect 21 0 9 1;
#X connect 23 0 10 1;
#X connect 25 0 11 1;
#X connect 27 0 12 1;
#X connect 29 0 13 1;
#X connect 31 0 14 1;
#X connect 33 0 15 1;
#X connect 35 0 16 1;
#X connect 36 0 17 0;
#X connect 36 0 9 0;
#X connect 36 0 10 0;
#X connect 36 0 11 0;
#X connect 36 0 12 0;
#X connect 36 0 13 0;
#X connect 36 0 14 0;
#X connect 36 0 15 0;
#X connect 36 0 16 0;
#X connect 36 0 46 0;
#X connect 46 0 0 0;
#X connect 46 1 2 0;
#X connect 46 3 1 0;
#X connect 46 4 3 0;
#X connect 46 5 5 0;
#X connect 46 6 4 0;
#X connect 46 7 6 0;
#X connect 46 8 8 0;
