#N canvas 301 93 703 551 10;
#X obj 438 182 png2;
#X obj 290 183 pdp_load;
#X obj 296 437 text;
#X floatatom 223 86 5 0 0 0 - - -;
#X floatatom 265 86 5 0 0 0 - - -;
#X obj 41 53 openpanel;
#X obj 41 26 bng 15 250 50 0 empty empty empty 0 -6 0 8 -262144 -1
-1;
#X msg 43 115 clear;
#X obj 221 110 hsl 128 15 0 1 0 0 empty empty empty -2 -6 0 8 -262144
-1 -1 0 1;
#X obj 127 146 pdp_imgloader;
#X msg 41 77 load \$1;
#X msg 140 60 unhide \$1;
#X obj 140 39 hradio 15 1 0 8 empty empty empty 0 -6 0 8 -262144 -1
-1 0;
#X obj 128 84 r layer-1;
#X msg 226 59 load images/logo2.jpg;
#X obj 280 41 loadbang;
#X obj 158 307 loadbang;
#X obj 298 483 pdp_xv;
#X obj 296 381 pdp_canvas 640 480 2;
#X obj 503 -65 playlist all 125 200;
#X obj 390 -65 playlist all 100 200;
#X obj 340 148 tgl 15 0 empty empty empty 0 -6 0 8 -262144 -1 -1 0
1;
#X obj 457 144 tgl 15 0 empty empty empty 0 -6 0 8 -262144 -1 -1 0
1;
#X obj 213 221 pdp_scale 480 320;
#X msg 133 -28 location /home/caedes/PNG;
#X obj 59 -58 loadbang;
#X msg 160 333 offset 1 0 0;
#X msg 158 357 offset 2 480 0;
#X obj 438 220 pdp_scale 120 480;
#X obj 356 226 pdp_swf;
#X msg 368 181 file \$1;
#X msg 135 -70 location /home/caedes/SWF;
#X obj 504 308 metro 100;
#X obj 515 285 tgl 15 0 empty empty empty 0 -6 0 8 -262144 -1 -1 0
1;
#X connect 0 0 28 0;
#X connect 1 0 23 0;
#X connect 2 0 17 0;
#X connect 3 0 9 1;
#X connect 4 0 9 2;
#X connect 5 0 10 0;
#X connect 6 0 5 0;
#X connect 7 0 9 0;
#X connect 8 0 9 3;
#X connect 10 0 9 0;
#X connect 11 0 9 0;
#X connect 12 0 11 0;
#X connect 13 0 9 0;
#X connect 14 0 9 0;
#X connect 15 0 14 0;
#X connect 16 0 26 0;
#X connect 16 0 27 0;
#X connect 18 0 2 0;
#X connect 19 0 0 0;
#X connect 20 0 30 0;
#X connect 21 0 1 2;
#X connect 22 0 0 1;
#X connect 23 0 18 1;
#X connect 23 0 17 0;
#X connect 24 0 19 0;
#X connect 25 0 31 0;
#X connect 25 0 24 0;
#X connect 26 0 18 0;
#X connect 27 0 18 0;
#X connect 28 0 18 2;
#X connect 29 0 18 1;
#X connect 30 0 29 0;
#X connect 31 0 20 0;
#X connect 32 0 29 0;
#X connect 33 0 32 0;
