#N canvas 323 33 751 631 10;
#X obj 220 93 pdp_ascii;
#X obj 220 216 pdp_dice;
#X obj 216 38 pdp_zoom;
#X obj 401 15 tgl 15 0 empty empty empty 0 -6 0 8 -262144 -1 -1 0 1
;
#X floatatom 362 16 5 0 0 0 - - -;
#X floatatom 323 16 5 0 0 0 - - -;
#X floatatom 284 16 5 0 0 0 - - -;
#X obj 428 73 tgl 15 0 empty empty empty 0 -6 0 8 -262144 -1 -1 0 1
;
#X floatatom 383 73 5 0 0 0 - - -;
#X floatatom 338 73 5 0 0 0 - - -;
#X floatatom 295 73 5 0 0 0 - - -;
#X obj 413 196 tgl 15 0 empty empty empty 0 -6 0 8 -262144 -1 -1 0
1;
#X floatatom 371 196 5 0 0 0 - - -;
#X floatatom 328 196 5 0 0 0 - - -;
#X floatatom 286 196 5 0 0 0 - - -;
#X obj 419 303 tgl 15 0 empty empty empty 0 -6 0 8 -262144 -1 -1 0
1;
#X floatatom 378 304 5 0 0 0 - - -;
#X floatatom 337 304 5 0 0 0 - - -;
#X floatatom 297 303 5 0 0 0 - - -;
#X obj 143 93 tgl 15 0 empty empty empty 0 -6 0 8 -262144 -1 -1 0 1
;
#X obj 144 216 tgl 15 0 empty empty empty 0 -6 0 8 -262144 -1 -1 0
1;
#X obj 219 324 pdp_simura;
#X obj 411 447 tgl 15 0 empty empty empty 0 -6 0 8 -262144 -1 -1 0
1;
#X floatatom 370 448 5 0 0 0 - - -;
#X floatatom 329 447 5 0 0 0 - - -;
#X floatatom 289 446 5 0 0 0 - - -;
#X obj 142 469 tgl 15 0 empty empty empty 0 -6 0 8 -262144 -1 -1 0
1;
#X obj 144 325 tgl 15 0 empty empty empty 0 -6 0 8 -262144 -1 -1 0
1;
#X obj 166 93 spigot;
#X obj 203 70 tgl 15 0 empty asciiauto empty 0 -6 0 8 -262144 -1 -1
0 1;
#X obj 167 216 spigot;
#X obj 204 194 tgl 15 0 empty diceauto empty 0 -6 0 8 -262144 -1 -1
0 1;
#X obj 168 324 spigot;
#X obj 205 302 tgl 15 0 empty simuraauto empty 0 -6 0 8 -262144 -1
-1 0 1;
#X obj 161 468 spigot;
#X obj 198 446 tgl 15 0 empty erodeauto empty 0 -6 0 8 -262144 -1 -1
0 1;
#X obj 142 38 tgl 15 0 empty empty empty 0 -6 0 8 -262144 -1 -1 0 1
;
#X obj 163 38 spigot;
#X obj 200 16 tgl 15 0 empty zoomauto empty 0 -6 0 8 -262144 -1 -1
0 1;
#X obj 163 17 bng 15 250 50 0 empty autoon empty 0 -6 0 8 -143491 -258699
-1;
#X obj 167 195 bng 15 250 50 0 empty autoon empty 0 -6 0 8 -143491
-258699 -1;
#X obj 166 71 bng 15 250 50 0 empty autoon empty 0 -6 0 8 -143491 -258699
-1;
#X obj 168 303 bng 15 250 50 0 empty autoon empty 0 -6 0 8 -143491
-258699 -1;
#X obj 109 444 bng 15 250 50 0 empty autoon empty 0 -6 0 8 -143491
-258699 -1;
#X obj 295 93 auto-control 10 70 100;
#X obj 465 573 tgl 15 0 empty empty empty 0 -6 0 8 -262144 -1 -1 0
1;
#X floatatom 424 574 5 0 0 0 - - -;
#X floatatom 383 573 5 0 0 0 - - -;
#X floatatom 343 572 5 0 0 0 - - -;
#X obj 142 596 tgl 15 0 empty empty empty 0 -6 0 8 -262144 -1 -1 0
1;
#X obj 164 595 spigot;
#X obj 201 573 tgl 15 0 empty motionblurauto empty 0 -6 0 8 -262144
-1 -1 0 1;
#X obj 164 573 bng 15 250 50 0 empty autoon empty 0 -6 0 8 -143491
-258699 -1;
#X obj 217 595 pdp_motion_blur;
#X obj 465 351 tgl 15 0 empty empty empty 0 -6 0 8 -262144 -1 -1 0
1;
#X floatatom 424 352 5 0 0 0 - - -;
#X floatatom 383 351 5 0 0 0 - - -;
#X floatatom 343 350 5 0 0 0 - - -;
#X obj 142 374 tgl 15 0 empty empty empty 0 -6 0 8 -262144 -1 -1 0
1;
#X obj 164 373 spigot;
#X obj 201 351 tgl 15 0 empty contrastauto empty 0 -6 0 8 -262144 -1
-1 0 1;
#X obj 164 351 bng 15 250 50 0 empty autoon empty 0 -6 0 8 -143491
-258699 -1;
#X obj 465 249 tgl 15 0 empty empty empty 0 -6 0 8 -262144 -1 -1 0
1;
#X floatatom 424 250 5 0 0 0 - - -;
#X floatatom 383 249 5 0 0 0 - - -;
#X floatatom 343 248 5 0 0 0 - - -;
#X obj 142 272 tgl 15 0 empty empty empty 0 -6 0 8 -262144 -1 -1 0
1;
#X obj 164 271 spigot;
#X obj 201 249 tgl 15 0 empty rotateauto empty 0 -6 0 8 -262144 -1
-1 0 1;
#X obj 164 249 bng 15 250 50 0 empty autoon empty 0 -6 0 8 -143491
-258699 -1;
#X obj 217 271 pdp_rotate;
#X floatatom 333 616 5 0 0 0 - - -;
#X obj 60 623 outlet;
#X obj 602 18 tgl 15 0 empty empty empty 0 -6 0 8 -262144 -1 -1 0 1
;
#X obj 602 70 pdp_control;
#X msg 602 43 thread \$1;
#X floatatom 602 131 5 0 0 0 - - -;
#X obj 602 102 route pdp_drop;
#X floatatom 241 68 5 0 0 0 - - -;
#X obj 440 15 bng 15 250 50 0 empty autostep empty 0 -6 0 8 -62784
-44926 -1;
#X obj 452 73 bng 15 250 50 0 empty autostep empty 0 -6 0 8 -62784
-44926 -1;
#X obj 284 38 auto-control 50 100 100;
#X obj 286 215 auto-control 1 8 100;
#X obj 297 324 auto-control 1 9 100 ---;
#X obj 343 373 auto-control 100 100 100;
#X obj 343 271 auto-control 1 360 100;
#X obj 343 595 auto-control 100 30 100;
#X obj 437 196 bng 15 250 50 0 empty autostep empty 0 -6 0 8 -62784
-44926 -1;
#X obj 492 249 bng 15 250 50 0 empty autostep empty 0 -6 0 8 -62784
-44926 -1;
#X obj 506 351 bng 15 250 50 0 empty autostep empty 0 -6 0 8 -62784
-44926 -1;
#X obj 460 302 bng 15 250 50 0 empty autostep empty 0 -6 0 8 -62784
-44926 -1;
#X obj 452 446 bng 15 250 50 0 empty autostep empty 0 -6 0 8 -62784
-44926 -1;
#X obj 499 573 bng 15 250 50 0 empty autostep empty 0 -6 0 8 -62784
-44926 -1;
#X obj 472 394 tgl 15 0 empty empty empty 0 -6 0 8 -262144 -1 -1 0
1;
#X floatatom 431 395 5 0 0 0 - - -;
#X floatatom 390 394 5 0 0 0 - - -;
#X floatatom 350 393 5 0 0 0 - - -;
#X obj 513 394 bng 15 250 50 0 empty autostep empty 0 -6 0 8 -62784
-44926 -1;
#X obj 237 415 pdp_cycle;
#X obj 279 398 tgl 15 0 empty empty empty 0 -6 0 8 -262144 -1 -1 1
1;
#X obj 304 398 tgl 15 0 empty empty empty 0 -6 0 8 -262144 -1 -1 1
1;
#X obj 327 401 tgl 15 0 empty empty empty 0 -6 0 8 -262144 -1 -1 0
1;
#X floatatom 526 441 5 0 0 0 - - -;
#X obj 350 416 auto-control 1 3 100;
#X obj 565 396 select 0 1 2;
#X obj 142 418 tgl 15 0 empty empty empty 0 -6 0 8 -262144 -1 -1 0
1;
#X obj 164 417 spigot;
#X obj 201 395 tgl 15 0 empty cycleauto empty 0 -6 0 8 -262144 -1 -1
0 1;
#X obj 164 395 bng 15 250 50 0 empty autoon empty 0 -6 0 8 -143491
-258699 -1;
#X obj 217 528 pdp_motion_phase;
#X obj 465 506 tgl 15 0 empty empty empty 0 -6 0 8 -262144 -1 -1 0
1;
#X floatatom 424 507 5 0 0 0 - - -;
#X floatatom 383 506 5 0 0 0 - - -;
#X floatatom 343 505 5 0 0 0 - - -;
#X obj 142 529 tgl 15 0 empty empty empty 0 -6 0 8 -262144 -1 -1 0
1;
#X obj 164 528 spigot;
#X obj 201 506 tgl 15 0 empty motionphaseauto empty 0 -6 0 8 -262144
-1 -1 0 1;
#X obj 164 506 bng 15 250 50 0 empty autoon empty 0 -6 0 8 -143491
-258699 -1;
#X obj 343 528 auto-control 100 100 100;
#X obj 506 505 bng 15 250 50 0 empty autostep empty 0 -6 0 8 -62784
-44926 -1;
#X obj 213 469 soto_erode;
#X obj 289 469 auto-control 1 150 100;
#X obj 128 445 spigot;
#X obj 177 445 tgl 15 0 empty empty empty 0 -6 0 8 -262144 -1 -1 0
1;
#X obj 544 468 r phase-ctl;
#X obj 526 556 r blur-ctl;
#X obj 472 3 r zoom-ctl;
#X obj 478 39 r ascii-ctl;
#X obj 507 219 r rotate-ctl;
#X obj 498 288 r simura-ctl;
#X obj 511 324 r contrast-ctl;
#X obj 551 367 r cycle-ctl;
#X obj 479 175 r dice-ctl;
#X obj 61 -116 inlet pdp;
#X obj 64 38 pdp_route;
#X obj 64 92 pdp_route;
#X obj 64 215 pdp_route;
#X obj 63 277 pdp_route;
#X obj 64 325 pdp_route;
#X obj 63 373 pdp_route;
#X obj 63 417 pdp_route;
#X obj 63 468 pdp_route;
#X obj 63 528 pdp_route;
#X obj 63 595 pdp_route;
#X obj 474 -44 tgl 15 0 empty empty empty 0 -6 0 8 -262144 -1 -1 0
1;
#X floatatom 433 -43 5 0 0 0 - - -;
#X floatatom 392 -44 5 0 0 0 - - -;
#X floatatom 352 -45 5 0 0 0 - - -;
#X obj 515 -44 bng 15 250 50 0 empty autostep empty 0 -6 0 8 -62784
-44926 -1;
#X obj 144 -22 tgl 15 0 empty empty empty 0 -6 0 8 -262144 -1 -1 0
1;
#X obj 166 -21 spigot;
#X obj 203 -43 tgl 15 0 empty warholauto empty 0 -6 0 8 -262144 -1
-1 0 1;
#X obj 166 -43 bng 15 250 50 0 empty autoon empty 0 -6 0 8 -143491
-258699 -1;
#X obj 65 -21 pdp_route;
#X obj 222 -19 pdp_warhol;
#X floatatom 292 -42 5 0 0 0 - - -;
#X obj 352 -22 auto-control 1 7 100;
#X obj 585 -73 r warhol-ctl;
#X obj 470 432 r zoom-ctl;
#X obj 465 -111 tgl 15 0 empty empty empty 0 -6 0 8 -262144 -1 -1 0
1;
#X floatatom 416 -109 5 0 0 0 - - -;
#X floatatom 368 -111 5 0 0 0 - - -;
#X floatatom 325 -111 5 0 0 0 - - -;
#X obj 489 -111 bng 15 250 50 0 empty autostep empty 0 -6 0 8 -62784
-44926 -1;
#X obj 119 -87 tgl 15 0 empty empty empty 0 -6 0 8 -262144 -1 -1 0
1;
#X obj 141 -86 spigot;
#X obj 179 -110 tgl 15 0 empty agingauto empty 0 -6 0 8 -262144 -1
-1 0 1;
#X obj 138 -115 bng 15 250 50 0 empty autoon empty 0 -6 0 8 -143491
-258699 -1;
#X obj 42 -68 pdp_route;
#X floatatom 253 -112 5 0 0 0 - - -;
#X obj 320 -77 auto-control 1 7 100;
#X obj 198 -84 pdp_aging;
#X obj 523 -110 r aging-ctl;
#X obj 217 373 pdp_contrast;
#X obj 219 162 pdp_radioactiv;
#X obj 143 160 tgl 15 0 empty empty empty 0 -6 0 8 -262144 -1 -1 0
1;
#X obj 166 160 spigot;
#X obj 203 137 tgl 15 0 empty radioactivauto empty 0 -6 0 8 -262144
-1 -1 0 1;
#X obj 166 138 bng 15 250 50 0 empty autoon empty 0 -6 0 8 -143491
-258699 -1;
#X obj 64 159 pdp_route;
#X obj 461 131 tgl 15 0 empty empty empty 0 -6 0 8 -262144 -1 -1 0
1;
#X floatatom 416 131 5 0 0 0 - - -;
#X floatatom 371 131 5 0 0 0 - - -;
#X floatatom 328 131 5 0 0 0 - - -;
#X obj 485 131 bng 15 250 50 0 empty autostep empty 0 -6 0 8 -62784
-44926 -1;
#X obj 511 97 r radioactiv-ctl;
#X obj 328 151 auto-control 1 3 100;
#X floatatom 258 127 5 0 0 0 - - -;
#X connect 0 0 179 0;
#X connect 1 0 137 0;
#X connect 2 0 135 0;
#X connect 3 0 81 3;
#X connect 4 0 81 2;
#X connect 5 0 81 1;
#X connect 6 0 81 0;
#X connect 7 0 44 3;
#X connect 8 0 44 2;
#X connect 9 0 44 1;
#X connect 10 0 44 0;
#X connect 11 0 82 3;
#X connect 12 0 82 2;
#X connect 13 0 82 1;
#X connect 14 0 82 0;
#X connect 15 0 83 3;
#X connect 16 0 83 2;
#X connect 17 0 83 1;
#X connect 18 0 83 0;
#X connect 19 0 135 1;
#X connect 20 0 136 1;
#X connect 21 0 139 0;
#X connect 22 0 121 3;
#X connect 23 0 121 2;
#X connect 24 0 121 1;
#X connect 25 0 121 0;
#X connect 26 0 141 1;
#X connect 27 0 138 1;
#X connect 28 0 19 0;
#X connect 29 0 28 1;
#X connect 29 0 19 0;
#X connect 30 0 20 0;
#X connect 31 0 30 1;
#X connect 31 0 20 0;
#X connect 32 0 27 0;
#X connect 33 0 32 1;
#X connect 33 0 27 0;
#X connect 34 0 26 0;
#X connect 35 0 34 1;
#X connect 35 0 26 0;
#X connect 36 0 134 1;
#X connect 37 0 36 0;
#X connect 38 0 37 1;
#X connect 38 0 78 0;
#X connect 38 0 36 0;
#X connect 39 0 37 0;
#X connect 40 0 30 0;
#X connect 41 0 28 0;
#X connect 42 0 32 0;
#X connect 43 0 122 0;
#X connect 44 0 0 1;
#X connect 45 0 86 3;
#X connect 46 0 86 2;
#X connect 47 0 86 1;
#X connect 48 0 86 0;
#X connect 49 0 143 1;
#X connect 50 0 49 0;
#X connect 51 0 50 1;
#X connect 51 0 49 0;
#X connect 52 0 50 0;
#X connect 53 0 72 0;
#X connect 54 0 84 3;
#X connect 55 0 84 2;
#X connect 56 0 84 1;
#X connect 57 0 84 0;
#X connect 58 0 139 1;
#X connect 59 0 58 0;
#X connect 60 0 59 1;
#X connect 60 0 58 0;
#X connect 61 0 59 0;
#X connect 62 0 85 3;
#X connect 63 0 85 2;
#X connect 64 0 85 1;
#X connect 65 0 85 0;
#X connect 66 0 137 1;
#X connect 67 0 66 0;
#X connect 68 0 67 1;
#X connect 68 0 66 0;
#X connect 69 0 67 0;
#X connect 70 0 138 0;
#X connect 73 0 75 0;
#X connect 74 0 77 0;
#X connect 75 0 74 0;
#X connect 77 0 76 0;
#X connect 79 0 81 4;
#X connect 80 0 44 4;
#X connect 81 0 2 1;
#X connect 82 0 1 1;
#X connect 83 0 21 2;
#X connect 84 0 173 1;
#X connect 85 0 70 1;
#X connect 86 0 53 1;
#X connect 86 0 71 0;
#X connect 87 0 82 4;
#X connect 88 0 85 4;
#X connect 89 0 84 4;
#X connect 90 0 83 4;
#X connect 91 0 121 4;
#X connect 92 0 86 4;
#X connect 93 0 103 3;
#X connect 94 0 103 2;
#X connect 95 0 103 1;
#X connect 96 0 103 0;
#X connect 97 0 103 4;
#X connect 98 0 141 0;
#X connect 99 0 98 1;
#X connect 100 0 98 2;
#X connect 101 0 98 3;
#X connect 103 0 102 0;
#X connect 103 0 104 0;
#X connect 104 0 99 0;
#X connect 104 1 100 0;
#X connect 104 2 101 0;
#X connect 105 0 140 1;
#X connect 106 0 105 0;
#X connect 107 0 106 1;
#X connect 107 0 105 0;
#X connect 108 0 106 0;
#X connect 109 0 143 0;
#X connect 110 0 118 3;
#X connect 111 0 118 2;
#X connect 112 0 118 1;
#X connect 113 0 118 0;
#X connect 114 0 142 1;
#X connect 115 0 114 0;
#X connect 116 0 115 1;
#X connect 116 0 114 0;
#X connect 117 0 115 0;
#X connect 118 0 109 1;
#X connect 119 0 118 4;
#X connect 120 0 142 0;
#X connect 121 0 120 1;
#X connect 122 0 34 0;
#X connect 123 0 122 1;
#X connect 124 0 119 0;
#X connect 125 0 92 0;
#X connect 126 0 79 0;
#X connect 127 0 80 0;
#X connect 128 0 88 0;
#X connect 129 0 90 0;
#X connect 130 0 89 0;
#X connect 131 0 97 0;
#X connect 132 0 87 0;
#X connect 133 0 168 0;
#X connect 134 0 135 0;
#X connect 134 1 2 0;
#X connect 135 0 179 0;
#X connect 135 1 0 0;
#X connect 136 0 137 0;
#X connect 136 1 1 0;
#X connect 137 0 138 0;
#X connect 137 1 70 0;
#X connect 138 0 139 0;
#X connect 138 1 21 0;
#X connect 139 0 140 0;
#X connect 139 1 173 0;
#X connect 140 0 141 0;
#X connect 140 1 98 0;
#X connect 141 0 142 0;
#X connect 141 1 120 0;
#X connect 142 0 143 0;
#X connect 142 1 109 0;
#X connect 143 0 72 0;
#X connect 143 1 53 0;
#X connect 144 0 156 3;
#X connect 145 0 156 2;
#X connect 146 0 156 1;
#X connect 147 0 156 0;
#X connect 148 0 156 4;
#X connect 149 0 153 1;
#X connect 150 0 149 0;
#X connect 151 0 150 1;
#X connect 151 0 149 0;
#X connect 152 0 150 0;
#X connect 153 0 134 0;
#X connect 153 1 154 0;
#X connect 154 0 134 0;
#X connect 155 0 154 2;
#X connect 155 0 154 1;
#X connect 156 0 155 0;
#X connect 157 0 148 0;
#X connect 159 0 170 3;
#X connect 160 0 170 2;
#X connect 161 0 170 1;
#X connect 162 0 170 0;
#X connect 163 0 170 4;
#X connect 164 0 168 1;
#X connect 165 0 164 0;
#X connect 166 0 165 1;
#X connect 166 0 164 0;
#X connect 167 0 165 0;
#X connect 168 0 153 0;
#X connect 168 1 171 0;
#X connect 169 0 171 2;
#X connect 169 0 171 1;
#X connect 170 0 169 0;
#X connect 171 0 153 0;
#X connect 172 0 163 0;
#X connect 173 0 140 0;
#X connect 174 0 136 0;
#X connect 175 0 179 1;
#X connect 176 0 175 0;
#X connect 177 0 176 1;
#X connect 177 0 175 0;
#X connect 178 0 176 0;
#X connect 179 0 136 0;
#X connect 179 1 174 0;
#X connect 180 0 186 3;
#X connect 181 0 186 2;
#X connect 182 0 186 1;
#X connect 183 0 186 0;
#X connect 184 0 186 4;
#X connect 185 0 184 0;
#X connect 186 0 187 0;
#X connect 187 0 174 1;
