#N canvas 712 586 454 474 10;
#X obj 228 161 abs;
#X obj 229 181 exp;
#X obj 229 203 - 1;
#X obj 200 183 * 2;
#X obj 200 205 - 1;
#X obj 209 227 *;
#X obj 195 160 >= 0;
#X obj 206 129 t f f;
#X obj 183 58 inlet number;
#X obj 174 290 outlet exp_signed;
#X connect 0 0 1 0;
#X connect 1 0 2 0;
#X connect 2 0 5 1;
#X connect 3 0 4 0;
#X connect 4 0 5 0;
#X connect 5 0 9 0;
#X connect 6 0 3 0;
#X connect 7 0 6 0;
#X connect 7 1 0 0;
#X connect 8 0 7 0;
