#N canvas 354 464 949 504 12;
#X obj 353 229 r f1;
#X obj 368 254 r f0;
#X floatatom 415 255 5 0 0 0 - - -;
#X floatatom 424 277 5 0 0 0 - - -;
#X obj 680 261 r f0;
#X floatatom 727 262 5 0 0 0 - - -;
#X floatatom 736 284 5 0 0 0 - - -;
#X obj 834 260 r f0;
#X floatatom 881 261 5 0 0 0 - - -;
#X floatatom 890 283 5 0 0 0 - - -;
#X obj 521 256 r f0;
#X floatatom 568 257 5 0 0 0 - - -;
#X floatatom 577 279 5 0 0 0 - - -;
#X obj 651 327 cube;
#X obj 805 327 cube;
#X obj 492 325 cube;
#X obj 339 323 cube;
#X obj 797 111 + 2;
#X obj 838 111 + 2;
#X floatatom 797 59 5 0 0 0 - - -;
#X obj 874 111 + 2;
#X obj 915 111 + 2;
#X obj 948 111 + 2;
#X obj 989 111 + 2;
#X obj 1025 111 + 2;
#X obj 1066 111 + 2;
#X floatatom 885 60 5 0 0 0 - - -;
#X obj 979 262 r f0;
#X floatatom 1026 263 5 0 0 0 - - -;
#X floatatom 1035 285 5 0 0 0 - - -;
#X obj 1291 269 r f0;
#X floatatom 1338 270 5 0 0 0 - - -;
#X floatatom 1347 292 5 0 0 0 - - -;
#X obj 1445 268 r f0;
#X floatatom 1492 269 5 0 0 0 - - -;
#X floatatom 1501 291 5 0 0 0 - - -;
#X obj 1132 264 r f0;
#X floatatom 1179 265 5 0 0 0 - - -;
#X floatatom 1188 287 5 0 0 0 - - -;
#X obj 1262 335 cube;
#X obj 1416 335 cube;
#X obj 1103 333 cube;
#X obj 950 331 cube;
#X obj 894 13 bng 15 250 50 0 empty empty empty 0 -6 0 8 -262144 -1
-1;
#X obj 506 231 r f2;
#X obj 665 236 r f3;
#X obj 820 236 r f4;
#X obj 964 238 r f5;
#X obj 1118 238 r f6;
#X obj 1276 244 r f7;
#X obj 1432 243 r f8;
#X floatatom 1133 111 5 0 0 0 - - -;
#X obj 1131 38 inlet;
#X floatatom 1213 111 5 0 0 0 - - -;
#X obj 1211 38 inlet;
#X obj 1306 36 inlet;
#X obj 1441 34 inlet;
#X obj 339 298 gemcubo;
#X obj 651 305 gemcubo;
#X obj 805 304 gemcubo;
#X obj 492 300 gemcubo;
#X obj 950 306 gemcubo;
#X obj 1262 313 gemcubo;
#X obj 1416 312 gemcubo;
#X obj 1103 308 gemcubo;
#X connect 0 0 57 1;
#X connect 1 0 57 2;
#X connect 2 0 57 3;
#X connect 3 0 57 4;
#X connect 4 0 58 2;
#X connect 5 0 58 3;
#X connect 6 0 58 4;
#X connect 7 0 59 2;
#X connect 8 0 59 3;
#X connect 9 0 59 4;
#X connect 10 0 60 2;
#X connect 11 0 60 3;
#X connect 12 0 60 4;
#X connect 17 0 18 0;
#X connect 17 0 57 3;
#X connect 18 0 20 0;
#X connect 18 0 60 3;
#X connect 19 0 17 0;
#X connect 20 0 21 0;
#X connect 20 0 58 3;
#X connect 21 0 22 0;
#X connect 21 0 59 3;
#X connect 22 0 23 0;
#X connect 22 0 61 3;
#X connect 23 0 24 0;
#X connect 23 0 64 3;
#X connect 24 0 25 0;
#X connect 24 0 62 3;
#X connect 25 0 63 3;
#X connect 26 0 17 1;
#X connect 26 0 18 1;
#X connect 26 0 20 1;
#X connect 26 0 21 1;
#X connect 26 0 23 1;
#X connect 26 0 22 1;
#X connect 26 0 24 1;
#X connect 26 0 25 1;
#X connect 26 0 43 0;
#X connect 27 0 61 2;
#X connect 28 0 61 3;
#X connect 29 0 61 4;
#X connect 30 0 62 2;
#X connect 31 0 62 3;
#X connect 32 0 62 4;
#X connect 33 0 63 2;
#X connect 34 0 63 3;
#X connect 35 0 63 4;
#X connect 36 0 64 2;
#X connect 37 0 64 3;
#X connect 38 0 64 4;
#X connect 43 0 19 0;
#X connect 44 0 60 1;
#X connect 45 0 58 1;
#X connect 46 0 59 1;
#X connect 47 0 61 1;
#X connect 48 0 64 1;
#X connect 49 0 62 1;
#X connect 50 0 63 1;
#X connect 51 0 57 4;
#X connect 51 0 58 4;
#X connect 51 0 59 4;
#X connect 51 0 60 4;
#X connect 51 0 61 4;
#X connect 51 0 62 4;
#X connect 51 0 63 4;
#X connect 51 0 64 4;
#X connect 52 0 51 0;
#X connect 53 0 57 5;
#X connect 53 0 58 5;
#X connect 53 0 59 5;
#X connect 53 0 60 5;
#X connect 53 0 61 5;
#X connect 53 0 62 5;
#X connect 53 0 63 5;
#X connect 53 0 64 5;
#X connect 54 0 53 0;
#X connect 55 0 19 0;
#X connect 56 0 26 0;
#X connect 57 0 16 0;
#X connect 58 0 13 0;
#X connect 59 0 14 0;
#X connect 60 0 15 0;
#X connect 61 0 42 0;
#X connect 62 0 39 0;
#X connect 63 0 40 0;
#X connect 64 0 41 0;
