#N canvas 510 441 719 432 10;
#X obj 31 78 color;
#X msg 120 59 1 1 1;
#X obj 31 129 rotateXYZ;
#X msg 120 24 1 1 0;
#X obj 32 189 translateXYZ;
#X floatatom 143 247 5 0 0 0 - - -;
#X floatatom 180 222 5 0 0 0 - - -;
#X obj 119 159 / 80;
#X floatatom 94 98 5 0 0 0 - - -;
#X obj 26 29 inlet;
#X obj 195 52 inlet;
#X obj 311 54 inlet;
#X obj 372 55 inlet;
#X obj 255 55 inlet;
#X obj 95 263 outlet;
#X obj 69 21 gemhead;
#X obj 419 54 inlet;
#X obj 152 187 + 0;
#X floatatom 512 241 0 0 0 0 - - -;
#X text 553 241 control which frame;
#X msg 277 123 open ../data/homer.avi;
#X msg 516 209 auto \$1;
#X obj 516 190 tgl 15 0 empty empty empty 20 8 0 8 -262144 -1 -1 1
1;
#X text 406 124 Win32;
#X text 417 177 linux;
#X msg 287 166 open ../data/anim-1.mov;
#X msg 297 192 open ../data/alea.mpg;
#X obj 527 148 loadbang;
#X obj 259 255 pix_movie;
#X obj 337 302 t f b;
#X connect 1 0 0 1;
#X connect 2 0 4 0;
#X connect 3 0 0 1;
#X connect 4 0 14 0;
#X connect 5 0 4 2;
#X connect 6 0 4 3;
#X connect 7 0 17 0;
#X connect 8 0 2 1;
#X connect 8 0 2 2;
#X connect 8 0 2 3;
#X connect 10 0 7 0;
#X connect 11 0 4 1;
#X connect 12 0 4 2;
#X connect 13 0 7 1;
#X connect 15 0 28 0;
#X connect 16 0 17 1;
#X connect 17 0 4 3;
#X connect 18 0 28 1;
#X connect 20 0 28 0;
#X connect 21 0 28 0;
#X connect 22 0 21 0;
#X connect 25 0 28 0;
#X connect 26 0 28 0;
#X connect 27 0 22 0;
#X connect 28 0 2 0;
#X connect 28 2 29 0;
#X connect 29 0 28 1;
