#N canvas 8 359 764 504 12;
#X obj 38 229 gemwin;
#X msg 70 12 create;
#X msg 76 39 destroy;
#X msg 15 88 1;
#X msg 14 113 0;
#X obj 228 166 gemhead;
#X obj 228 188 world_light;
#N canvas 203 0 600 400 init 0;
#X obj 73 30 loadbang;
#X obj 73 53 t b b;
#X msg 113 77 reset;
#X msg 73 103 lighting 1;
#X obj 73 129 outlet;
#X connect 0 0 1 0;
#X connect 1 0 3 0;
#X connect 1 1 2 0;
#X connect 2 0 4 0;
#X connect 3 0 4 0;
#X restore 92 156 pd init;
#X text 77 415 ==========================================================
;
#X text 77 469 ==========================================================
;
#X text 292 19 Gem field;
#X obj 297 441 gem2pdp;
#X msg 158 436 stop;
#X obj 127 282 tgl 15 0 empty empty empty 0 -6 0 8 -262144 -1 -1 1
1;
#X text 359 437 Convert to PDP frames;
#X msg 84 99 dimen 320 240;
#X obj 84 73 loadbang;
#X obj 538 516 outlet;
#X obj 216 53 inlet;
#X msg 330 128 lighting 0;
#X obj 399 59 inlet;
#X obj 427 499 spigot;
#X floatatom 263 374 5 0 0 0 - - -;
#X obj 205 436 metro 22;
#X obj 1120 111 + 2;
#X obj 1161 111 + 2;
#X floatatom 1120 59 5 0 0 0 - - -;
#X obj 1197 111 + 2;
#X obj 1238 111 + 2;
#X obj 1271 111 + 2;
#X obj 1312 111 + 2;
#X obj 1348 111 + 2;
#X obj 1389 111 + 2;
#X floatatom 1208 60 5 0 0 0 - - -;
#X obj 692 185 gemcuberow;
#X floatatom 571 90 5 0 0 0 - - -;
#X obj 904 185 gemcuberow;
#X obj 1009 185 gemcuberow;
#X obj 1119 185 gemcuberow;
#X obj 1227 185 gemcuberow;
#X obj 477 185 gemcuberow;
#X obj 582 185 gemcuberow;
#X obj 800 185 gemcuberow;
#X floatatom 705 49 5 0 0 0 - - -;
#X floatatom 778 48 5 0 0 0 - - -;
#X obj 1172 21 bng 15 250 50 0 empty empty empty 0 -6 0 8 -262144 -1
-1;
#X obj 758 293 gemhead;
#X obj 726 480 cube;
#X obj 759 364 rotateXYZ;
#X floatatom 882 332 5 0 0 0 - - -;
#X obj 883 277 + 0.001;
#X obj 954 215 tgl 15 0 empty empty empty 0 -6 0 8 -262144 -1 -1 0
1;
#X obj 758 326 color 1 0 0;
#X msg 1039 352 1 1 0;
#X obj 951 238 metro 60;
#X floatatom 879 243 5 0 0 0 - - -;
#X obj 601 311 translateXYZ;
#X floatatom 686 265 5 0 0 0 - - -;
#X obj 755 393 scaleXYZ;
#X floatatom 863 406 5 0 0 0 - - -;
#X msg 1006 311 1 0 0;
#X msg 1036 282 0 1 0;
#X msg 575 38 -5;
#X msg 861 51 -13;
#X msg 841 20 3.36;
#X msg 1065 15 -21;
#X msg 1065 46 4;
#X obj 925 0 loadbang;
#X floatatom 1358 382 0 0 0 0 - - -;
#X text 1399 382 control which frame;
#X msg 1362 350 auto \$1;
#X obj 1362 331 tgl 15 0 empty empty empty 20 8 0 8 -262144 -1 -1 1
1;
#X obj 1373 289 loadbang;
#X obj 1105 397 pix_movie;
#X obj 1183 443 t f b;
#X msg 1123 264 open \$1;
#X obj 1462 58 playlist all 125 200;
#X msg 944 394 1 1 1;
#X obj 820 479 plane;
#X obj 943 487 square;
#X obj 640 231 hsl 128 15 0 5 0 0 empty empty empty -2 -6 0 8 -262144
-1 -1 5500 1;
#X msg 1289 1 location /home/biblioteca/LOOPSV/;
#X connect 1 0 0 0;
#X connect 2 0 0 0;
#X connect 3 0 0 0;
#X connect 4 0 0 0;
#X connect 5 0 6 0;
#X connect 7 0 0 0;
#X connect 11 1 21 0;
#X connect 12 0 23 0;
#X connect 13 0 23 0;
#X connect 15 0 0 0;
#X connect 16 0 15 0;
#X connect 18 0 1 0;
#X connect 18 0 0 0;
#X connect 18 0 3 0;
#X connect 18 0 13 0;
#X connect 19 0 0 0;
#X connect 20 0 21 1;
#X connect 21 0 17 0;
#X connect 22 0 23 1;
#X connect 23 0 11 0;
#X connect 24 0 25 0;
#X connect 24 0 40 0;
#X connect 25 0 27 0;
#X connect 25 0 41 0;
#X connect 26 0 24 0;
#X connect 27 0 28 0;
#X connect 27 0 34 0;
#X connect 28 0 29 0;
#X connect 28 0 42 0;
#X connect 29 0 30 0;
#X connect 29 0 36 0;
#X connect 30 0 31 0;
#X connect 30 0 37 0;
#X connect 31 0 32 0;
#X connect 31 0 38 0;
#X connect 32 0 39 0;
#X connect 33 0 24 1;
#X connect 33 0 25 1;
#X connect 33 0 27 1;
#X connect 33 0 28 1;
#X connect 33 0 30 1;
#X connect 33 0 29 1;
#X connect 33 0 31 1;
#X connect 33 0 32 1;
#X connect 33 0 45 0;
#X connect 35 0 34 1;
#X connect 35 0 36 1;
#X connect 35 0 37 1;
#X connect 35 0 38 1;
#X connect 35 0 39 1;
#X connect 35 0 40 1;
#X connect 35 0 41 1;
#X connect 35 0 42 1;
#X connect 43 0 40 2;
#X connect 43 0 41 2;
#X connect 43 0 34 2;
#X connect 43 0 42 2;
#X connect 43 0 36 2;
#X connect 43 0 37 2;
#X connect 43 0 38 2;
#X connect 43 0 39 2;
#X connect 44 0 40 3;
#X connect 44 0 41 3;
#X connect 44 0 34 3;
#X connect 44 0 42 3;
#X connect 44 0 36 3;
#X connect 44 0 37 3;
#X connect 44 0 38 3;
#X connect 44 0 39 3;
#X connect 45 0 26 0;
#X connect 46 0 73 0;
#X connect 48 0 58 0;
#X connect 49 0 48 1;
#X connect 49 0 48 2;
#X connect 49 0 48 3;
#X connect 49 0 50 1;
#X connect 50 0 49 0;
#X connect 51 0 54 0;
#X connect 52 0 56 0;
#X connect 53 0 52 1;
#X connect 53 0 52 0;
#X connect 54 0 55 0;
#X connect 55 0 50 0;
#X connect 56 0 48 0;
#X connect 57 0 56 3;
#X connect 58 0 79 0;
#X connect 59 0 58 1;
#X connect 59 0 58 2;
#X connect 59 0 58 3;
#X connect 60 0 52 1;
#X connect 61 0 52 1;
#X connect 62 0 35 0;
#X connect 63 0 43 0;
#X connect 64 0 44 0;
#X connect 65 0 26 0;
#X connect 66 0 33 0;
#X connect 67 0 65 0;
#X connect 67 0 66 0;
#X connect 67 0 64 0;
#X connect 67 0 63 0;
#X connect 67 0 62 0;
#X connect 68 0 73 1;
#X connect 70 0 73 0;
#X connect 71 0 70 0;
#X connect 72 0 71 0;
#X connect 73 0 52 0;
#X connect 73 2 74 0;
#X connect 74 0 73 1;
#X connect 75 0 73 0;
#X connect 76 0 75 0;
#X connect 77 0 52 1;
#X connect 80 0 57 0;
#X connect 81 0 76 0;
