#N canvas 91 187 575 277 10;
#X obj 46 198 pdp_noise;
#X msg 174 71 dim 320 240;
#X text 270 71 set packet dimensions;
#X msg 174 98 type grey;
#X msg 174 121 type yv12;
#X text 270 100 generate greyscale;
#X text 270 119 generate colour (default);
#X msg 174 152 seed 123;
#X text 270 152 set seed value;
#X text 167 21 pdp_noise creates a random image (with uniform distribution
between -1 and 1) when a bang is received;
#X obj 48 255 outlet;
#X obj 16 21 tgl 15 0 empty empty empty 0 -6 0 8 -262144 -1 -1 1 1
;
#X obj 49 19 inlet;
#X obj 18 71 metro 70;
#X obj 103 21 r gtempo;
#X msg 175 47 dim 640 480;
#X connect 0 0 10 0;
#X connect 1 0 0 0;
#X connect 3 0 0 0;
#X connect 4 0 0 0;
#X connect 7 0 0 0;
#X connect 11 0 13 0;
#X connect 12 0 11 0;
#X connect 13 0 0 0;
#X connect 14 0 13 1;
#X connect 15 0 0 0;
