#N canvas 655 0 575 333 10;
#X msg 174 71 dim 320 240;
#X text 270 71 set packet dimensions;
#X msg 174 98 type grey;
#X msg 174 121 type yv12;
#X text 270 100 generate greyscale;
#X text 270 119 generate colour (default);
#X msg 174 152 seed 123;
#X text 270 152 set seed value;
#X obj 79 199 pdp_plasma;
#X floatatom 174 176 5 0 0 0 - - -;
#X text 270 176 turbulence;
#X obj 79 239 pdp_reg;
#X obj 49 200 bng 15 250 50 0 empty empty empty 0 -6 0 8 -262144 -1
-1;
#X obj 79 275 outlet;
#X obj 79 9 inlet;
#X obj 79 93 metro 70;
#X obj 130 49 r gtempo;
#X connect 0 0 8 0;
#X connect 2 0 8 0;
#X connect 3 0 8 0;
#X connect 6 0 8 0;
#X connect 8 0 11 0;
#X connect 9 0 8 1;
#X connect 11 0 13 0;
#X connect 12 0 11 0;
#X connect 14 0 15 0;
#X connect 15 0 8 0;
#X connect 16 0 15 1;
