#N canvas 0 0 948 573 10;
#X obj -174 125 pdp_rec~;
#X msg -332 255 stop;
#X floatatom -206 187 5 0 0 0 Frames - framesrec;
#X text -336 236 3 - For ending record:;
#X obj -178 285 r startrec;
#X obj -235 259 r stoprec;
#X obj -344 22 cnv 15 140 23 empty empty RECORDING 20 12 1 16 -261681
-355 0;
#X msg -313 208 start;
#X text -332 67 when you want;
#X obj -337 208 bng 15 250 50 0 empty empty empty 0 -6 0 8 -262144
-1 -1;
#X obj -332 99 bng 15 250 50 0 empty empty START_RECORD 0 -6 1 14 -258699
-260818 -1;
#X obj -341 154 makefilename /tmp/noguilt-%d.mov;
#X msg -340 177 open \$1;
#X text -331 51 Start recording;
#X obj -531 117 r counterreset;
#X obj -514 166 bng 15 250 50 0 empty empty empty 0 -6 0 8 -262144
-1 -1;
#X msg -363 362 jpeg \$1;
#X floatatom -300 363 5 0 0 0 - - -;
#X text -251 361 JPEG quality factor ( if using jpeg compressor );
#X msg -365 387 framerate \$1;
#X floatatom -267 385 5 0 0 0 - - -;
#X text -219 386 Frame rate : if not set \, it will be calculated;
#X text -258 340 Set a compressor supported by libquicktime ( 0.9.1
);
#X msg -365 285 symbol jpeg;
#X msg -364 339 compressor \$1;
#X msg -365 309 symbol raw;
#X msg -285 308 symbol divx;
#X msg -197 309 symbol dv;
#X msg -277 285 symbol yuv2;
#X obj -485 227 loadbang;
#X obj -437 175 spigot;
#X obj -388 137 tgl 15 0 empty empty empty 0 -6 0 8 -262144 -1 -1 0
1;
#X obj -90 199 env~;
#X floatatom -66 224 5 0 0 0 - - -;
#X msg -486 303 100;
#X msg -497 360 acompressor \$1;
#X msg -440 289 symbol twos;
#X msg -492 397 symbol raw;
#X obj -94 240 vsl 15 128 50 127 0 0 empty empty empty 0 -8 0 8 -262144
-1 -1 0 1;
#X msg -505 424 25;
#X obj -132 84 adc~;
#X obj -518 -29 inlet;
#X obj -141 30 spigot;
#X obj -91 -3 tgl 15 0 empty empty empty 0 -6 0 8 -262144 -1 -1 1 1
;
#X obj -306 103 t b b b;
#X msg -182 39 1;
#X obj 31 -29 inlet;
#X obj -353 -27 inlet;
#X obj -438 49 select 0;
#X obj 28 200 outlet;
#X obj -352 130 int-control;
#X obj 132 10 inlet;
#X obj 92 49 OSCroute /record /start /stop /file;
#X obj -445 20 tgl 15 0 empty empty empty 0 -6 0 8 -262144 -1 -1 1
1;
#X obj 211 160;
#X msg 214 217 1;
#X msg 244 253 0;
#X obj -442 100;
#X obj -426 219 s startrecord;
#X connect 0 0 2 0;
#X connect 0 0 49 0;
#X connect 1 0 0 0;
#X connect 4 0 10 0;
#X connect 5 0 1 0;
#X connect 7 0 0 0;
#X connect 9 0 7 0;
#X connect 10 0 44 0;
#X connect 11 0 12 0;
#X connect 12 0 0 0;
#X connect 14 0 15 0;
#X connect 15 0 30 0;
#X connect 16 0 0 0;
#X connect 17 0 16 0;
#X connect 19 0 0 0;
#X connect 20 0 19 0;
#X connect 23 0 24 0;
#X connect 24 0 0 0;
#X connect 25 0 24 0;
#X connect 26 0 24 0;
#X connect 27 0 24 0;
#X connect 28 0 24 0;
#X connect 29 0 34 0;
#X connect 29 0 39 0;
#X connect 29 0 23 0;
#X connect 30 0 10 0;
#X connect 31 0 30 1;
#X connect 32 0 33 0;
#X connect 32 0 38 0;
#X connect 34 0 17 0;
#X connect 35 0 0 0;
#X connect 36 0 35 0;
#X connect 37 0 35 0;
#X connect 39 0 20 0;
#X connect 40 0 0 0;
#X connect 40 1 0 1;
#X connect 40 1 32 0;
#X connect 41 0 42 0;
#X connect 42 0 0 0;
#X connect 43 0 42 1;
#X connect 44 0 9 0;
#X connect 44 1 50 0;
#X connect 44 2 45 0;
#X connect 45 0 43 0;
#X connect 46 0 43 0;
#X connect 47 0 53 0;
#X connect 48 0 1 0;
#X connect 48 1 10 0;
#X connect 50 0 11 0;
#X connect 51 0 52 0;
#X connect 52 0 0 0;
#X connect 52 1 55 0;
#X connect 52 2 56 0;
#X connect 52 3 11 0;
#X connect 53 0 48 0;
#X connect 53 0 58 0;
#X connect 55 0 53 0;
#X connect 56 0 53 0;
