#N canvas 368 0 781 666 10;
#X obj 341 20 bng 15 250 50 0 empty empty empty 20 8 0 8 -262144 -1
-1;
#X msg 196 92 loop \$1;
#X obj 197 70 tgl 15 0 empty empty empty 20 8 0 8 -262144 -1 -1 0 1
;
#X msg 453 93 open \$1;
#X obj 452 69 openpanel;
#X obj 437 52 bng 15 250 50 0 empty empty empty 20 8 0 8 -262144 -1
-1;
#X floatatom 389 55 5 0 0 0 - - -;
#X msg 298 21 stop;
#X obj 396 24 hsl 300 15 0 1000 0 0 empty empty empty -2 -6 0 8 -262144
-1 -1 0 1;
#X obj 330 91 metro 70;
#X obj 325 123 pdp_yqt;
#X obj 25 193 pdp_v4l;
#X obj 34 162 metro 70;
#X obj 79 128 bng 15 250 50 0 empty empty empty 20 8 0 8 -262144 -1
-1;
#X msg 36 129 stop;
#X msg 121 160 open /dev/video;
#X obj 594 197 tgl 15 0 empty empty empty 0 -6 0 8 -262144 -1 -1 0
1;
#X obj 594 249 pdp_control;
#X msg 594 222 thread \$1;
#X floatatom 594 310 5 0 0 0 - - -;
#X obj 594 281 route pdp_drop;
#X obj 114 481 pdp_glx;
#X obj 114 339 pdp_distance ----;
#X obj 114 289 pdp_grey ----;
#X obj 31 328 pdp_glx;
#X text 297 552 morphology : skeletization;
#X text 297 570 written by Yves Degoyon ( ydegoyon@free.fr );
#X floatatom 225 393 5 0 0 0 - - -;
#X floatatom 151 459 5 0 0 0 - - -;
#X floatatom 201 460 5 0 0 0 - - -;
#X floatatom 248 459 5 0 0 0 - - -;
#X text 271 392 Tolerance ( default = 55 );
#X obj 115 420 pdp_binary ----;
#X floatatom 178 375 5 0 0 0 - - -;
#X text 225 373 Luma component;
#X obj 276 356 pdp_glx;
#X obj 79 375 loadbang;
#X msg 144 374 200;
#X obj 246 421 loadbang;
#X msg 314 420 20;
#X connect 0 0 9 0;
#X connect 1 0 10 0;
#X connect 2 0 1 0;
#X connect 3 0 10 0;
#X connect 4 0 3 0;
#X connect 5 0 4 0;
#X connect 6 0 9 1;
#X connect 7 0 9 0;
#X connect 8 0 6 0;
#X connect 9 0 10 0;
#X connect 12 0 11 0;
#X connect 13 0 12 0;
#X connect 14 0 12 0;
#X connect 15 0 11 0;
#X connect 16 0 18 0;
#X connect 17 0 20 0;
#X connect 18 0 17 0;
#X connect 20 0 19 0;
#X connect 22 0 32 0;
#X connect 22 0 35 0;
#X connect 27 0 32 6;
#X connect 32 0 21 0;
#X connect 32 1 28 0;
#X connect 32 2 29 0;
#X connect 32 3 30 0;
#X connect 33 0 32 1;
#X connect 36 0 37 0;
#X connect 37 0 33 0;
#X connect 38 0 39 0;
#X connect 39 0 27 0;
