#N canvas 0 0 450 300 10;
#X obj 15 123 spigot;
#X obj -3 93 tgl 15 0 empty empty empty 0 -6 0 8 -262144 -1 -1 1 1
;
#X obj 53 94 tgl 15 0 empty empty empty 0 -6 0 8 -262144 -1 -1 0 1
;
#X obj -41 122 spigot;
#X obj 0 66 bng 15 250 50 0 empty empty empty 0 -6 0 8 -262144 -1 -1
;
#X obj -66 91 loadbang;
#X floatatom -13 170 0 0 0 0 - - -;
#X obj 110 152 float;
#X obj -41 145 + 1;
#X obj 16 146 - 1;
#X obj 59 34 bng 15 250 50 0 empty empty empty 0 -6 0 8 -262144 -1
-1;
#X msg 59 68 1;
#X msg 90 67 0;
#X obj 124 37 bng 15 250 50 0 empty empty empty 0 -6 0 8 -262144 -1
-1;
#X msg 124 71 1;
#X msg 155 70 0;
#X obj 16 195 outlet;
#X obj 11 8 inlet more;
#X obj 75 7 inlet less;
#X obj 190 19 inlet speed;
#X connect 0 0 9 0;
#X connect 1 0 3 1;
#X connect 2 0 0 1;
#X connect 3 0 8 0;
#X connect 4 0 1 0;
#X connect 4 0 2 0;
#X connect 5 0 1 0;
#X connect 6 0 16 0;
#X connect 7 0 0 0;
#X connect 7 0 3 0;
#X connect 8 0 7 1;
#X connect 8 0 6 0;
#X connect 9 0 7 1;
#X connect 9 0 6 0;
#X connect 10 0 11 0;
#X connect 10 0 12 0;
#X connect 10 0 7 0;
#X connect 11 0 1 0;
#X connect 12 0 2 0;
#X connect 13 0 14 0;
#X connect 13 0 15 0;
#X connect 13 0 7 0;
#X connect 14 0 2 0;
#X connect 15 0 1 0;
#X connect 17 0 10 0;
#X connect 18 0 13 0;
#X connect 19 0 9 1;
#X connect 19 0 8 1;
