#N canvas 0 0 450 300 10;
#X obj 176 158 spigot;
#X obj 158 128 tgl 15 0 empty empty empty 0 -6 0 8 -262144 -1 -1 1
1;
#X obj 214 129 tgl 15 0 empty empty empty 0 -6 0 8 -262144 -1 -1 0
1;
#X obj 120 157 spigot;
#X obj 161 101 bng 15 250 50 0 empty empty empty 0 -6 0 8 -262144 -1
-1;
#X obj 95 126 loadbang;
#X floatatom 148 205 0 0 0 0 - - -;
#X obj 264 170 float;
#X obj 120 180 + 1;
#X obj 177 181 - 1;
#X obj 220 69 bng 15 250 50 0 empty empty empty 0 -6 0 8 -262144 -1
-1;
#X msg 220 103 1;
#X msg 251 102 0;
#X obj 285 72 bng 15 250 50 0 empty empty empty 0 -6 0 8 -262144 -1
-1;
#X msg 285 106 1;
#X msg 316 105 0;
#X obj 172 43 inlet;
#X obj 236 42 inlet;
#X obj 148 263 outlet;
#X obj 408 31 inlet;
#X obj 408 235 bng 15 250 50 0 empty empty empty 0 -6 0 8 -262144 -1
-1;
#X floatatom 408 79 5 1 10000 0 - - -;
#X obj 406 270 outlet;
#X obj 364 137 moses 10;
#X msg 329 153 -1;
#X connect 0 0 9 0;
#X connect 1 0 3 1;
#X connect 2 0 0 1;
#X connect 3 0 8 0;
#X connect 4 0 1 0;
#X connect 4 0 2 0;
#X connect 5 0 1 0;
#X connect 6 0 18 0;
#X connect 6 0 23 0;
#X connect 7 0 0 0;
#X connect 7 0 3 0;
#X connect 8 0 7 1;
#X connect 8 0 6 0;
#X connect 9 0 7 1;
#X connect 9 0 6 0;
#X connect 10 0 11 0;
#X connect 10 0 12 0;
#X connect 10 0 7 0;
#X connect 11 0 1 0;
#X connect 12 0 2 0;
#X connect 13 0 14 0;
#X connect 13 0 15 0;
#X connect 13 0 7 0;
#X connect 14 0 2 0;
#X connect 15 0 1 0;
#X connect 16 0 10 0;
#X connect 17 0 13 0;
#X connect 19 0 21 0;
#X connect 20 0 22 0;
#X connect 21 0 23 1;
#X connect 23 1 20 0;
#X connect 23 1 24 0;
#X connect 24 0 6 0;
#X connect 24 0 7 0;
