#N canvas 405 34 491 551 10;
#X obj 681 598 cnv 15 150 110 empty empty empty 20 12 0 14 -258699
-66577 0;
#X obj 34 93 cnv 15 400 400 empty empty empty 20 12 0 14 -260001 -66577
0;
#X obj 449 93 cnv 15 400 400 empty empty empty 20 12 0 14 -260818 -66577
0;
#X obj 197 518 cnv 15 400 250 empty empty empty 20 12 0 14 -241291
-66577 0;
#X obj 195 789 cnv 15 400 250 empty empty empty 20 12 0 14 -24198 -66577
0;
#X obj 38 9 cnv 15 810 70 empty empty empty 20 12 0 14 -238397 -66577
0;
#X obj 47 11 loadbang;
#X obj 285 35 s imgloc;
#X obj 285 58 s vidloc;
#X obj 269 185 playlist all 125 200;
#X obj 98 422 pdp_loadx;
#X obj 463 200 playlist all 125 200;
#X obj 270 1000 pdp_xv;
#X obj 162 423 webcam;
#X obj 593 200 playlist all 100 200;
#X obj 714 309 tgl 15 0 empty ch2foto empty 0 -6 0 8 -262144 -1 -1
0 127;
#X obj 714 288 tgl 15 0 empty ch2video empty 0 -6 0 8 -262144 -1 -1
0 1;
#X obj 123 268 tgl 15 0 empty ch1video empty 0 -6 0 8 -262144 -1 -1
0 1;
#X obj 122 292 tgl 15 1 empty ch1webcam empty 0 -6 0 8 -262144 -1 -1
0 1;
#X text 69 291 webcam;
#X obj 270 840 text;
#X obj 212 423 png2;
#X obj 122 312 tgl 15 0 empty ch1foto empty 0 -6 0 8 -262144 -1 -1
0 1;
#X obj 165 184 playlist all 100 200;
#X obj 114 446 capture;
#X obj 122 334 tgl 15 0 empty ch1capture empty 0 -6 0 8 -262144 -1
-1 0 1;
#X text 67 336 capture;
#X obj 386 925 movimiento;
#X obj 270 927 pdp_spigot;
#X obj 352 927 tgl 15 0 empty empty empty 0 -6 0 8 -262144 -1 -1 0
1;
#X msg -39 795 text Cielito%32Lindo 500 510;
#X obj 234 561 mix2;
#X obj 169 446 gen_noise;
#X obj 700 644 core-coms-xsto-9;
#X floatatom 681 832 5 0 0 0 - - -;
#X floatatom 723 832 5 0 0 0 - - -;
#X obj 685 850 hsl 128 15 0 1 0 0 empty empty empty -2 -6 0 8 -262144
-1 -1 12000 1;
#X obj 309 813 pdp_imgloader;
#X msg 682 811 load \$1;
#X obj 123 245 tgl 15 0 empty ch1plasma empty 0 -6 0 8 -262144 -1 -1
1 1;
#X obj 123 220 tgl 15 0 empty ch1noise empty 0 -6 0 8 -262144 -1 -1
0 1;
#X text 71 246 plasma;
#X text 74 220 noise;
#X obj 791 98 r chsel;
#X obj 41 98 r chsel;
#X obj 772 677 s chsel;
#X obj 832 835 playlist all 100 200;
#X obj 714 329 tgl 15 0 empty ch2plasma empty 0 -6 0 8 -262144 -1 -1
0 127;
#X obj 314 428 gen_plasma;
#X symbolatom 454 11 50 0 0 0 - - -;
#X obj 350 100 unpack s s;
#X obj 398 32 route 320 330 321 322 331 332;
#X obj 270 872 pdp_zoom;
#X msg -4 904 zoomx \$1;
#X msg 62 904 zoomy \$1;
#X obj -67 881 route 847 848 849;
#X obj 464 56 bng 15 250 50 0 empty empty empty 0 -6 0 8 -262144 -1
-1;
#X obj 497 56 bng 15 250 50 0 empty empty empty 0 -6 0 8 -262144 -1
-1;
#X obj 530 56 bng 15 250 50 0 empty empty empty 0 -6 0 8 -262144 -1
-1;
#X obj 563 56 bng 15 250 50 0 empty empty empty 0 -6 0 8 -262144 -1
-1;
#X obj 455 98 unpack s s;
#X obj -67 859 r net1;
#X obj 690 608 r net1;
#X obj -39 814 r net1;
#X obj 551 531 r net1;
#X obj 398 10 r net1;
#X obj 739 608 r key1;
#X obj 293 472 pdp-effects;
#X obj 87 191 loadbang;
#X obj 929 803 r imgloc;
#X obj 593 151 r imgloc;
#X obj 164 146 r imgloc;
#X obj 269 145 r vidloc;
#X obj 463 153 r vidloc;
#N canvas 0 0 450 300 xvparams 0;
#X msg 82 73 dim 320 240;
#X msg 65 93 dim 640 480;
#X msg 50 112 dim 320 500;
#X msg 43 133 pos 0 0;
#X msg 38 157 fullscreen;
#X msg 113 137 dim 160 120;
#X obj 237 68 outlet;
#X msg 198 19 display 192.168.10.21:0;
#X msg 316 45 cursor 1;
#X connect 0 0 6 0;
#X connect 1 0 6 0;
#X connect 2 0 6 0;
#X connect 3 0 6 0;
#X connect 4 0 6 0;
#X connect 5 0 6 0;
#X connect 7 0 6 0;
#X connect 8 0 6 0;
#X restore 74 992 pd xvparams;
#N canvas 0 0 450 300 record 0;
#X floatatom 118 194 5 0 0 0 - - -;
#X msg 211 118 open /tmp/output.mov;
#X msg 212 141 start;
#X msg 211 163 stop;
#X obj 134 122 adc~;
#X obj 118 166 pdp_rec~;
#X msg 212 186 framerate 10;
#X obj 66 81 inlet;
#X obj 184 54 inlet;
#X obj 185 81 route 0 1;
#X connect 1 0 5 0;
#X connect 2 0 5 0;
#X connect 3 0 5 0;
#X connect 4 0 5 0;
#X connect 4 1 5 1;
#X connect 5 0 0 0;
#X connect 6 0 5 0;
#X connect 7 0 5 0;
#X connect 8 0 9 0;
#X connect 9 0 3 0;
#X connect 9 1 1 0;
#X connect 9 1 2 0;
#X restore 428 968 pd record;
#N canvas 0 0 450 300 saveimage 0;
#X obj 95 211 pdp_imgsaver;
#X obj 147 153 metro 1000;
#X msg 134 180 save /var/www/pd/capture.jpg;
#X obj 44 76 inlet;
#X obj 166 74 inlet;
#X connect 1 0 2 0;
#X connect 2 0 0 0;
#X connect 3 0 0 0;
#X connect 4 0 1 0;
#X restore 428 990 pd saveimage;
#X obj -115 517 cnv 15 275 250 empty empty empty 20 12 0 14 -1 -66577
0;
#X obj -89 651 cnv 15 70 90 empty empty empty 20 12 0 14 -261681 -66577
0;
#X obj -80 660 key;
#X obj -80 708 s key1;
#X obj -80 685 spigot;
#X obj -43 659 tgl 15 1 empty empty empty 0 -6 0 8 -262144 -1 -1 0
1;
#X obj -5 652 cnv 15 140 90 empty empty empty 20 12 0 14 -225280 -66577
0;
#X obj 4 685 route 95;
#X obj 58 656 r net1;
#X obj 4 656 r key1;
#X obj 4 712 s general;
#X obj -79 538 cnv 15 200 90 empty empty empty 20 12 0 14 -257472 -66577
0;
#X obj -60 555 netreceive 3006 1;
#X symbolatom -8 599 10 0 0 0 - - -;
#X floatatom 70 599 5 0 0 0 - - -;
#X obj -60 597 s net1;
#X obj 859 9 cnv 15 320 210 empty empty empty 20 12 0 14 -233017 -66577
0;
#X obj 874 41 route 300 301 302 303 304 305 306 307 308;
#X obj 874 12 r net1;
#X obj 876 92 s ch1noise;
#X obj 875 118 s ch1plasma;
#X obj 878 145 s ch1video;
#X obj 877 170 s ch1webcam;
#X obj 975 92 s ch1foto;
#X obj 975 120 s ch1capture;
#X obj 1071 92 s ch2video;
#X obj 1071 141 s ch2plasma;
#X obj 1071 117 s ch2foto;
#X text 36 81 canal 1;
#X text 452 81 canal 2;
#X text 196 505 mezcla de canales;
#X text 195 776 canal final;
#X text 668 583 control de comunicaciones;
#X text -85 503 inputs (red y teclado);
#X text -75 617 red;
#X text -85 730 teclado;
#X text 74 268 video;
#X text 81 315 foto;
#X text 738 284 video;
#X text 736 311 foto;
#X text 735 330 plasma;
#X text 861 -3 control entradas de canales;
#X text 40 -2 inicializacion y control videos;
#X obj 1012 184 select 86 66 90 88 67;
#X obj 42 120 select 99 120;
#X obj 661 122 select 98;
#X obj 69 146 seek-control;
#X obj 661 151 seek-control;
#X obj 832 802 seek-control;
#X obj 247 101 seek-control;
#X obj 539 119 seek-control;
#X obj 740 131 tgl 15 0 empty empty auto 0 -6 0 8 -262144 -1 -1 1 1
;
#X obj 148 124 tgl 15 0 empty empty auto 0 -6 0 8 -262144 -1 -1 0 1
;
#X obj 46 446 geminput;
#X obj 122 358 tgl 15 0 empty empty empty 0 -6 0 8 -262144 -1 -1 0
1;
#X text 84 359 gem;
#X obj 46 418 bng 15 250 50 0 empty empty on 0 -6 0 8 -262144 -1 -1
;
#X obj 713 529 controlbysound;
#X text 702 514 control por sonido;
#X msg 48 58 location /home/biblioteca/LOOPSV/;
#X obj 428 1011 stream_to_ffserver;
#X obj 549 992 tgl 15 0 empty empty empty 0 -6 0 8 -262144 -1 -1 0
1;
#X obj 507 971 tgl 15 0 empty empty empty 0 -6 0 8 -262144 -1 -1 0
1;
#X obj 486 950 tgl 15 0 empty empty empty 0 -6 0 8 -262144 -1 -1 0
1;
#X obj 911 773 tgl 15 0 empty empty empty 0 -6 0 8 -262144 -1 -1 0
1;
#X obj 681 531 tgl 15 0 empty empty on 0 -6 0 8 -262144 -1 -1 0 1;
#X obj -88 342 cnv 15 100 150 empty empty empty 20 12 0 14 -1 -66577
0;
#X obj -84 347 cnv 15 90 140 empty empty empty 20 12 0 14 -62784 -66577
0;
#X obj -72 454 s gtempo;
#X floatatom -72 419 5 0 0 0 - - -;
#X msg -71 380 70;
#X msg -28 380 35;
#X text -81 350 tempo global;
#X obj 132 473 pidip_effects_rack;
#X obj 270 964 pdp-effects;
#X obj 689 454 pdp-effects;
#X obj 270 896 pidip_effects_rack;
#X obj 536 455 pidip_effects_rack;
#X obj 93 713 bng 15 250 50 0 empty empty empty 0 -6 0 8 -262144 -1
-1;
#X text -4 731 reset general;
#X obj -107 747 nbx 5 14 -1e+37 1e+37 0 0 empty empty empty 0 -6 0
10 -262144 -1 -1 0 256;
#X text -418 11 TECLAS: shift+1: chan 1 pidip shift+2: chan 2 pdp shift+4:
chan 2 pidip shift+5: chan 2 pdp shift+6: mezcla shift+7: chan mix
pidip shift+8: chan mix pdp PDP: q-l PIDIP: 1-4 \, q-l MIX: z-b (siempre)
;
#X obj 488 409 pdp_loadx;
#X obj 582 409 gen_plasma;
#X obj 550 409 png2;
#X obj -87 174 cnv 15 100 150 empty empty empty 20 12 0 14 -1 -66577
0;
#X obj -82 179 cnv 15 90 140 empty empty empty 20 12 0 14 -152896 -66577
0;
#X floatatom -71 251 5 0 0 0 - - -;
#X msg -70 212 70;
#X msg -27 212 35;
#X text -84 179 tempo efectos;
#X obj -71 286 s etempo;
#X obj 902 666;
#X obj 985 702 metro 100;
#X obj 986 637 tgl 15 0 empty empty empty 0 -6 0 8 -262144 -1 -1 1
1;
#X floatatom 1032 665 5 0 0 0 - - -;
#X msg 65 34 location /home/caedes/PNG;
#X connect 6 0 173 0;
#X connect 6 0 136 0;
#X connect 9 0 10 0;
#X connect 10 0 150 0;
#X connect 11 0 159 0;
#X connect 13 0 150 0;
#X connect 14 0 161 0;
#X connect 15 0 161 1;
#X connect 16 0 159 2;
#X connect 17 0 10 2;
#X connect 18 0 13 0;
#X connect 20 0 52 0;
#X connect 21 0 150 0;
#X connect 22 0 21 1;
#X connect 23 0 21 0;
#X connect 24 0 150 0;
#X connect 25 0 24 0;
#X connect 27 0 151 0;
#X connect 28 0 151 0;
#X connect 28 1 27 0;
#X connect 29 0 28 1;
#X connect 30 0 20 0;
#X connect 31 0 20 0;
#X connect 32 0 150 0;
#X connect 33 0 45 0;
#X connect 33 0 150 1;
#X connect 33 1 45 0;
#X connect 33 1 154 1;
#X connect 33 1 67 1;
#X connect 33 2 45 0;
#X connect 33 3 45 0;
#X connect 33 3 152 1;
#X connect 33 4 31 2;
#X connect 33 4 45 0;
#X connect 33 5 45 0;
#X connect 33 5 153 1;
#X connect 33 6 45 0;
#X connect 33 6 151 1;
#X connect 34 0 37 1;
#X connect 35 0 37 2;
#X connect 36 0 37 3;
#X connect 37 0 150 0;
#X connect 38 0 37 0;
#X connect 39 0 48 0;
#X connect 40 0 32 0;
#X connect 43 0 122 0;
#X connect 44 0 121 0;
#X connect 46 0 38 0;
#X connect 47 0 160 0;
#X connect 48 0 37 0;
#X connect 49 0 10 0;
#X connect 50 0 49 0;
#X connect 51 0 50 0;
#X connect 51 1 60 0;
#X connect 51 2 56 0;
#X connect 51 3 57 0;
#X connect 51 4 58 0;
#X connect 51 5 59 0;
#X connect 52 0 153 0;
#X connect 53 0 52 0;
#X connect 54 0 52 0;
#X connect 55 0 53 0;
#X connect 55 1 54 0;
#X connect 55 2 52 1;
#X connect 56 0 126 0;
#X connect 57 0 126 1;
#X connect 58 0 127 0;
#X connect 59 0 127 1;
#X connect 60 0 159 0;
#X connect 61 0 55 0;
#X connect 62 0 33 0;
#X connect 63 0 20 1;
#X connect 64 0 31 3;
#X connect 65 0 51 0;
#X connect 66 0 33 0;
#X connect 67 0 31 0;
#X connect 68 0 40 0;
#X connect 69 0 46 0;
#X connect 70 0 14 0;
#X connect 71 0 23 0;
#X connect 72 0 9 0;
#X connect 73 0 11 0;
#X connect 74 0 12 0;
#X connect 79 0 81 0;
#X connect 81 0 80 0;
#X connect 81 0 157 0;
#X connect 82 0 81 1;
#X connect 84 0 87 0;
#X connect 84 0 155 0;
#X connect 85 0 84 0;
#X connect 86 0 84 0;
#X connect 89 0 90 0;
#X connect 89 0 91 0;
#X connect 89 0 92 0;
#X connect 94 0 96 0;
#X connect 94 1 97 0;
#X connect 94 2 98 0;
#X connect 94 3 99 0;
#X connect 94 4 100 0;
#X connect 94 5 101 0;
#X connect 94 6 103 0;
#X connect 94 7 102 0;
#X connect 94 8 104 0;
#X connect 95 0 94 0;
#X connect 120 0 102 0;
#X connect 120 1 104 0;
#X connect 120 2 99 0;
#X connect 120 3 100 0;
#X connect 120 4 98 0;
#X connect 121 1 123 0;
#X connect 122 0 124 0;
#X connect 123 0 23 0;
#X connect 124 0 14 0;
#X connect 125 0 46 0;
#X connect 126 0 9 0;
#X connect 127 0 11 0;
#X connect 128 0 124 2;
#X connect 129 0 123 2;
#X connect 130 0 150 0;
#X connect 131 0 130 1;
#X connect 133 0 130 0;
#X connect 136 0 8 0;
#X connect 138 0 137 1;
#X connect 139 0 76 1;
#X connect 140 0 75 1;
#X connect 141 0 125 2;
#X connect 142 0 134 0;
#X connect 146 0 145 0;
#X connect 147 0 146 0;
#X connect 148 0 146 0;
#X connect 150 0 67 0;
#X connect 151 0 12 0;
#X connect 151 0 75 0;
#X connect 151 0 76 0;
#X connect 151 0 137 0;
#X connect 152 0 31 1;
#X connect 153 0 28 0;
#X connect 154 0 152 0;
#X connect 159 0 154 0;
#X connect 160 0 154 0;
#X connect 161 0 154 0;
#X connect 164 0 168 0;
#X connect 165 0 164 0;
#X connect 166 0 164 0;
#X connect 170 0 125 0;
#X connect 171 0 170 0;
#X connect 172 0 170 1;
#X connect 173 0 7 0;
