#N canvas 0 0 498 221 10;
#X obj 22 126 pdp_mix;
#X obj 8 83 hsl 128 15 0 1 0 1 empty empty empty -2 -6 0 8 -258699
-1 -1 12700 0;
#X obj 137 115 pdp_juxta;
#X obj 206 115 pdp_compose ----;
#X obj 7 54 pdp_spigot;
#X obj 106 54 pdp_spigot;
#X obj 136 103 pdp_spigot;
#X obj 238 104 pdp_spigot;
#X obj 171 32 tgl 15 0 empty empty empty 0 -6 0 8 -262144 -1 -1 1 1
;
#X obj 230 31 tgl 15 0 empty empty empty 0 -6 0 8 -262144 -1 -1 0 1
;
#X floatatom 342 32 5 0 0 0 r - -;
#X floatatom 344 73 5 0 0 0 g - -;
#X floatatom 344 116 5 0 0 0 b - -;
#X floatatom 344 152 5 0 0 0 x - -;
#X floatatom 345 186 5 0 0 0 y - -;
#X floatatom 457 147 5 0 0 2 toler - -;
#X obj 4 17 inlet;
#X obj 105 18 inlet;
#X obj 21 165 outlet;
#X obj 89 190 pdp_scale 320 240;
#X obj 289 7 inlet;
#X obj 309 6 select 110 109;
#X obj 465 27 bng 15 250 50 0 empty empty empty 0 -6 0 8 -262144 -1
-1;
#X obj 463 72 bng 15 250 50 0 empty empty empty 0 -6 0 8 -262144 -1
-1;
#X msg 427 29 3;
#X msg 430 72 250;
#X obj 6 150 bng 15 250 50 0 empty empty f 0 -6 0 8 -262144 -1 -1;
#X obj 55 150 bng 15 250 50 0 empty empty 2 0 -6 0 8 -262144 -1 -1
;
#X obj 106 149 bng 15 250 50 0 empty empty + 0 -6 0 8 -262144 -1 -1
;
#X obj 159 149 bng 15 250 50 0 empty empty c 0 -6 0 8 -262144 -1 -1
;
#X msg 206 164 0;
#X msg 275 165 1;
#X msg 305 165 0;
#X msg 330 145 1;
#X msg 225 140 1;
#X msg 256 145 0;
#X obj 121 156 pdp_spigot;
#X obj 223 157 pdp_spigot;
#X obj 289 31 tgl 15 0 empty empty empty 0 -6 0 8 -262144 -1 -1 0 1
;
#X obj 75 133 pdp_and;
#X connect 0 0 18 0;
#X connect 1 0 0 2;
#X connect 2 0 19 0;
#X connect 3 0 18 0;
#X connect 4 0 0 0;
#X connect 4 1 6 0;
#X connect 5 0 0 1;
#X connect 5 1 7 0;
#X connect 6 0 2 0;
#X connect 6 1 36 0;
#X connect 7 0 2 1;
#X connect 7 1 37 0;
#X connect 8 0 4 1;
#X connect 8 0 5 1;
#X connect 9 0 6 1;
#X connect 9 0 7 1;
#X connect 10 0 3 2;
#X connect 11 0 3 3;
#X connect 12 0 3 4;
#X connect 13 0 3 5;
#X connect 14 0 3 6;
#X connect 15 0 3 7;
#X connect 16 0 4 0;
#X connect 17 0 5 0;
#X connect 19 0 18 0;
#X connect 20 0 21 0;
#X connect 21 0 8 0;
#X connect 21 1 9 0;
#X connect 22 0 24 0;
#X connect 23 0 25 0;
#X connect 24 0 12 0;
#X connect 24 0 11 0;
#X connect 24 0 10 0;
#X connect 25 0 12 0;
#X connect 25 0 11 0;
#X connect 25 0 10 0;
#X connect 26 0 30 0;
#X connect 27 0 34 0;
#X connect 27 0 35 0;
#X connect 28 0 31 0;
#X connect 28 0 32 0;
#X connect 29 0 33 0;
#X connect 30 0 8 0;
#X connect 30 0 9 0;
#X connect 30 0 38 0;
#X connect 31 0 8 0;
#X connect 31 0 9 0;
#X connect 32 0 38 0;
#X connect 33 0 8 0;
#X connect 33 0 9 0;
#X connect 33 0 38 0;
#X connect 34 0 8 0;
#X connect 35 0 9 0;
#X connect 35 0 38 0;
#X connect 36 0 39 0;
#X connect 36 1 3 0;
#X connect 37 0 39 1;
#X connect 37 1 3 1;
#X connect 38 0 36 1;
#X connect 38 0 37 1;
#X connect 39 0 18 0;
#X coords 0 0 1 1 200 140 1;
