#N canvas 0 28 762 486 10;
#X obj 18 304 pdp_mix;
#X obj 8 83 hsl 128 15 0 1 0 1 empty empty empty -2 -6 0 8 -258699
-1 -1 8000 0;
#X obj 76 304 pdp_juxta;
#X obj 202 304 pdp_compose ----;
#X obj 7 54 pdp_spigot;
#X obj 106 54 pdp_spigot;
#X obj 71 110 pdp_spigot;
#X obj 166 109 pdp_spigot;
#X floatatom 598 62 5 0 0 0 r - -;
#X floatatom 600 103 5 0 0 0 g - -;
#X floatatom 600 146 5 0 0 0 b - -;
#X floatatom 600 182 5 0 0 0 x - -;
#X floatatom 601 216 5 0 0 0 y - -;
#X floatatom 713 177 5 0 0 2 toler - -;
#X obj 4 17 inlet;
#X obj 105 18 inlet;
#X obj 49 429 outlet;
#X obj 96 307 pdp_scale 320 240;
#X obj 266 9 inlet;
#X obj 721 57 bng 15 250 50 0 empty empty empty 0 -6 0 8 -260818 -1
-1;
#X obj 719 102 bng 15 250 50 0 empty empty empty 0 -6 0 8 -260818 -1
-1;
#X msg 683 59 3;
#X msg 686 102 250;
#X obj 125 382 bng 15 250 50 0 empty empty or 0 -6 0 8 -262144 -1 -1
;
#X obj 222 382 bng 15 250 50 0 empty empty * 0 -6 0 8 -262144 -1 -1
;
#X obj 321 383 bng 15 250 50 0 empty empty xor 0 -6 0 8 -262144 -1
-1;
#X obj 409 383 bng 15 250 50 0 empty empty f2 0 -6 0 8 -241291 -1 -1
;
#X msg 494 433 0;
#X msg 595 439 1;
#X msg 597 461 0;
#X msg 640 441 1;
#X msg 543 455 1;
#X msg 547 434 0;
#X obj 136 134 pdp_spigot;
#X obj 231 134 pdp_spigot;
#X obj 145 304 pdp_add;
#X obj 341 307 pdp_and;
#X obj 211 286 bng 15 250 50 0 empty empty + 0 -6 0 8 -262144 -1 -1
;
#X obj 319 288 bng 15 250 50 0 empty empty c 0 -6 0 8 -260818 -1 -1
;
#X obj 43 383 bng 15 250 50 0 empty empty and 0 -6 0 8 -262144 -1 -1
;
#X obj 384 304 pdp_or;
#X obj 439 304 pdp_mul;
#X obj 43 284 bng 15 250 50 0 empty empty f 0 -6 0 8 -258699 -1 -1
;
#X obj 124 286 bng 15 250 50 0 empty empty 2 0 -6 0 8 -262144 -1 -1
;
#X obj 503 304 pdp_xor;
#X obj 560 304 pdp_mix2;
#X obj 201 157 pdp_spigot;
#X obj 296 157 pdp_spigot;
#X obj 266 177 pdp_spigot;
#X obj 361 177 pdp_spigot;
#X obj 331 196 pdp_spigot;
#X obj 426 196 pdp_spigot;
#X obj 396 217 pdp_spigot;
#X obj 492 218 pdp_spigot;
#X obj 459 237 pdp_spigot;
#X obj 554 237 pdp_spigot;
#X msg 447 457 1;
#X msg 445 435 0;
#X msg 397 460 1;
#X msg 395 438 0;
#X msg 346 458 1;
#X msg 344 436 0;
#X msg 298 458 1;
#X msg 298 434 0;
#X msg 250 456 1;
#X msg 248 434 0;
#X msg 494 455 1;
#X obj 682 316 hsl 64 15 -1 1 0 1 empty empty 1 -2 -6 0 8 -241291 -1
-1 3000 0;
#X obj 683 425 hsl 64 15 -1 1 0 1 empty empty 2 -2 -6 0 8 -241291 -1
-1 6300 0;
#X obj 343 -31 route 113 119 101 114 116 121 117 105 111 112 600;
#X connect 0 0 16 0;
#X connect 1 0 0 2;
#X connect 2 0 17 0;
#X connect 3 0 16 0;
#X connect 4 0 0 0;
#X connect 4 1 6 0;
#X connect 5 0 0 1;
#X connect 5 1 7 0;
#X connect 6 0 2 0;
#X connect 6 1 33 0;
#X connect 7 0 2 1;
#X connect 7 1 34 0;
#X connect 8 0 3 2;
#X connect 9 0 3 3;
#X connect 10 0 3 4;
#X connect 11 0 3 5;
#X connect 12 0 3 6;
#X connect 13 0 3 7;
#X connect 14 0 4 0;
#X connect 15 0 5 0;
#X connect 17 0 16 0;
#X connect 18 0 69 0;
#X connect 19 0 21 0;
#X connect 20 0 22 0;
#X connect 21 0 10 0;
#X connect 21 0 9 0;
#X connect 21 0 8 0;
#X connect 22 0 10 0;
#X connect 22 0 9 0;
#X connect 22 0 8 0;
#X connect 23 0 27 0;
#X connect 23 0 66 0;
#X connect 24 0 31 0;
#X connect 24 0 32 0;
#X connect 25 0 28 0;
#X connect 25 0 29 0;
#X connect 26 0 30 0;
#X connect 27 0 51 1;
#X connect 27 0 50 1;
#X connect 28 0 53 1;
#X connect 28 0 52 1;
#X connect 28 0 51 1;
#X connect 28 0 50 1;
#X connect 28 0 49 1;
#X connect 28 0 48 1;
#X connect 28 0 47 1;
#X connect 28 0 46 1;
#X connect 28 0 34 1;
#X connect 28 0 33 1;
#X connect 28 0 7 1;
#X connect 28 0 6 1;
#X connect 28 0 5 1;
#X connect 28 0 4 1;
#X connect 29 0 55 1;
#X connect 29 0 54 1;
#X connect 30 0 55 1;
#X connect 30 0 54 1;
#X connect 30 0 53 1;
#X connect 30 0 52 1;
#X connect 30 0 51 1;
#X connect 30 0 50 1;
#X connect 30 0 49 1;
#X connect 30 0 48 1;
#X connect 30 0 47 1;
#X connect 30 0 46 1;
#X connect 30 0 34 1;
#X connect 30 0 33 1;
#X connect 30 0 7 1;
#X connect 30 0 6 1;
#X connect 30 0 5 1;
#X connect 30 0 4 1;
#X connect 31 0 51 1;
#X connect 31 0 50 1;
#X connect 31 0 49 1;
#X connect 31 0 48 1;
#X connect 31 0 47 1;
#X connect 31 0 46 1;
#X connect 31 0 34 1;
#X connect 31 0 33 1;
#X connect 31 0 7 1;
#X connect 31 0 6 1;
#X connect 31 0 5 1;
#X connect 31 0 4 1;
#X connect 32 0 53 1;
#X connect 32 0 52 1;
#X connect 33 0 35 0;
#X connect 33 1 46 0;
#X connect 34 0 35 1;
#X connect 34 1 47 0;
#X connect 35 0 16 0;
#X connect 36 0 16 0;
#X connect 37 0 61 0;
#X connect 37 0 60 0;
#X connect 38 0 59 0;
#X connect 38 0 58 0;
#X connect 39 0 57 0;
#X connect 39 0 56 0;
#X connect 40 0 16 0;
#X connect 41 0 16 0;
#X connect 42 0 65 0;
#X connect 42 0 64 0;
#X connect 43 0 63 0;
#X connect 43 0 62 0;
#X connect 44 0 16 0;
#X connect 45 0 16 0;
#X connect 46 0 3 0;
#X connect 46 1 48 0;
#X connect 47 0 3 1;
#X connect 47 1 49 0;
#X connect 48 0 36 0;
#X connect 48 1 50 0;
#X connect 49 0 36 1;
#X connect 49 1 51 0;
#X connect 50 0 40 0;
#X connect 50 1 52 0;
#X connect 51 0 40 1;
#X connect 51 1 53 0;
#X connect 52 0 41 0;
#X connect 52 1 54 0;
#X connect 53 0 41 1;
#X connect 53 1 55 0;
#X connect 54 0 44 0;
#X connect 54 1 45 0;
#X connect 55 0 44 1;
#X connect 55 1 45 1;
#X connect 56 0 47 1;
#X connect 56 0 46 1;
#X connect 56 0 34 1;
#X connect 56 0 33 1;
#X connect 56 0 7 1;
#X connect 56 0 6 1;
#X connect 56 0 5 1;
#X connect 56 0 4 1;
#X connect 57 0 48 1;
#X connect 57 0 49 1;
#X connect 58 0 34 1;
#X connect 58 0 33 1;
#X connect 58 0 7 1;
#X connect 58 0 6 1;
#X connect 58 0 5 1;
#X connect 58 0 4 1;
#X connect 59 0 46 1;
#X connect 59 0 47 1;
#X connect 60 0 7 1;
#X connect 60 0 6 1;
#X connect 60 0 5 1;
#X connect 60 0 4 1;
#X connect 61 0 7 1;
#X connect 61 0 33 1;
#X connect 61 0 34 1;
#X connect 62 0 4 1;
#X connect 62 0 5 1;
#X connect 63 0 6 1;
#X connect 63 0 7 1;
#X connect 65 0 4 1;
#X connect 65 0 5 1;
#X connect 66 0 49 1;
#X connect 66 0 48 1;
#X connect 66 0 47 1;
#X connect 66 0 46 1;
#X connect 66 0 34 1;
#X connect 66 0 33 1;
#X connect 66 0 7 1;
#X connect 66 0 6 1;
#X connect 66 0 5 1;
#X connect 66 0 4 1;
#X connect 67 0 45 2;
#X connect 68 0 45 3;
#X connect 69 0 42 0;
#X connect 69 1 43 0;
#X connect 69 2 37 0;
#X connect 69 3 38 0;
#X connect 69 4 39 0;
#X connect 69 5 23 0;
#X connect 69 6 24 0;
#X connect 69 7 25 0;
#X connect 69 8 26 0;
#X connect 69 10 1 0;
#X coords 0 0 1 1 200 140 1;
