#N canvas 494 401 1066 575 10;
#X msg 139 160 text Delirium Systems;
#X msg 355 82 text data-j;
#X obj 165 -89 spigot;
#X obj 185 -62 hradio 8 1 0 4 empty empty empty 0 -6 0 8 -262144 -1
-1 0;
#X obj 239 -107 tgl 18 0 empty empty texto 0 -6 0 8 -260818 -1 -1 1
1;
#X msg 40 242 font /usr/X11R6/lib/X11/fonts/TTF/baveuse.ttf;
#X floatatom 292 12 5 0 0 0 - - -;
#X obj 292 -60 vsl 15 50 0 1 0 1 empty empty empty 0 -8 0 8 -233017
-1 -1 4500 1;
#X obj 182 12 3dp_rotate;
#X obj 173 -18 3dp_superfor;
#X obj 263 58 3dp_compose;
#X obj 614 -56 unpack s;
#X msg 757 -62 reverse \$1;
#X msg 613 -9 rendertype \$1;
#X msg 843 -62 fontsize \$1;
#X obj 436 279 3dp_fttext extrude 0 0 0 0;
#X obj 937 -70 texture_receiver;
#X obj 323 -147 OSCroute /on /compose /text /superfor /separacion /rotate
/alpha /font /extrusion /frontsize /backsize /glyphseparation /reverse
/rendertype /fontsize /texture;
#X floatatom 229 -62 5 0 0 0 - - -;
#X obj 471 -35 exp_signed;
#X obj 493 42 exp_signed;
#X obj 508 2 exp_signed;
#X obj 337 -195 inlet command;
#X obj 128 -195 inlet trigger;
#X connect 0 0 15 0;
#X connect 1 0 15 0;
#X connect 2 0 9 0;
#X connect 3 0 9 1;
#X connect 4 0 2 1;
#X connect 5 0 15 0;
#X connect 6 0 10 1;
#X connect 7 0 6 0;
#X connect 8 0 10 0;
#X connect 9 0 8 0;
#X connect 10 0 15 0;
#X connect 11 0 13 0;
#X connect 12 0 15 0;
#X connect 13 0 15 0;
#X connect 14 0 15 0;
#X connect 16 0 15 1;
#X connect 17 0 4 0;
#X connect 17 1 10 2;
#X connect 17 2 15 0;
#X connect 17 3 9 3;
#X connect 17 4 9 2;
#X connect 17 5 8 4;
#X connect 17 6 10 1;
#X connect 17 7 15 0;
#X connect 17 8 19 0;
#X connect 17 9 20 0;
#X connect 17 10 21 0;
#X connect 17 11 15 5;
#X connect 17 12 12 0;
#X connect 17 13 11 0;
#X connect 17 14 14 0;
#X connect 17 15 16 0;
#X connect 18 0 9 2;
#X connect 19 0 15 2;
#X connect 20 0 15 3;
#X connect 21 0 15 4;
#X connect 22 0 17 0;
#X connect 23 0 2 0;
