#N canvas 32 349 814 300 10;
#X obj 413 36 bng 15 250 50 0 empty empty empty 20 8 0 8 -262144 -1
-1;
#X msg 331 75 loop \$1;
#X obj 332 53 tgl 15 1 empty empty empty 20 8 0 8 -262144 -1 -1 1 1
;
#X msg 189 101 open \$1;
#X obj 189 72 openpanel;
#X obj 189 49 bng 15 250 50 0 empty empty empty 20 8 0 8 -262144 -1
-1;
#X floatatom 445 53 5 0 0 2 vel - -;
#X msg 370 37 stop;
#X obj 394 73 metro 70;
#X text 5 50 Load;
#X obj 147 283 outlet;
#X obj 79 14 inlet;
#X obj 445 15 inlet;
#X obj 595 15 inlet;
#X text 277 -2 velocidad;
#X obj 658 96 vsl 15 128 0 28 0 0 empty empty frame 0 -8 0 8 -260818
-1 -1 0 0;
#X floatatom 345 177 5 0 0 0 - - -;
#X floatatom 360 199 5 0 0 0 - - -;
#X msg 406 222 range 0 \$1;
#X obj 486 14 r gtempo;
#X obj 331 143 pdp_xine;
#X floatatom 571 85 5 0 0 2 fps - -;
#X obj 525 109 /;
#X msg 525 84 1000;
#X floatatom 530 140 5 0 0 0 - - -;
#X obj 682 16 inlet;
#X obj 666 48 / 127;
#X floatatom 395 101 5 0 0 0 - - -;
#X text 450 116 Frame command;
#X obj 394 120 t b f;
#X obj 488 178 *;
#X obj 260 92 random 10;
#X obj 280 68 bng 15 250 50 0 empty empty empty 0 -6 0 8 -262144 -1
-1;
#X obj 245 26 bng 15 250 50 0 empty autofiddle empty 0 -6 0 8 -43142
-24198 -1;
#X obj 288 17 bng 15 250 50 0 empty autoon empty 0 -6 0 8 -143491 -258699
-1;
#X obj 307 12 bng 15 250 50 0 empty autostep empty 0 -6 0 8 -62784
-44926 -1;
#X obj 589 44 tgl 15 0 empty empty empty 0 -6 0 8 -262144 -1 -1 1 1
;
#X obj 279 114 spigot;
#X floatatom 404 183 5 0 0 0 - - -;
#X obj 740 130 tgl 15 0 empty nerveauto empty 0 -6 0 8 -262144 -1 -1
0 1;
#X obj 700 149 spigot;
#X obj 753 168 bng 15 250 50 0 empty autoon empty 0 -6 0 8 -143491
-258699 -1;
#X obj 700 189 spigot;
#X obj 750 191 tgl 15 0 empty empty empty 0 -6 0 8 -262144 -1 -1 0
1;
#X obj 709 119 bng 15 250 50 0 empty autostep empty 0 -6 0 8 -62784
-44926 -1;
#X obj 557 226 random 100;
#X obj 726 76 r nerve-ctl;
#X connect 0 0 8 0;
#X connect 1 0 20 0;
#X connect 2 0 1 0;
#X connect 3 0 20 0;
#X connect 4 0 3 0;
#X connect 5 0 4 0;
#X connect 6 0 8 1;
#X connect 7 0 8 0;
#X connect 8 0 20 0;
#X connect 11 0 3 0;
#X connect 12 0 21 0;
#X connect 13 0 36 0;
#X connect 16 0 15 0;
#X connect 17 0 18 0;
#X connect 17 0 30 1;
#X connect 18 0 15 0;
#X connect 19 0 6 0;
#X connect 20 0 10 0;
#X connect 20 1 16 0;
#X connect 20 2 17 0;
#X connect 20 2 31 1;
#X connect 20 2 45 1;
#X connect 20 3 38 0;
#X connect 21 0 22 1;
#X connect 21 0 23 0;
#X connect 22 0 24 0;
#X connect 23 0 22 0;
#X connect 24 0 6 0;
#X connect 25 0 26 0;
#X connect 26 0 30 0;
#X connect 27 0 29 0;
#X connect 29 0 20 0;
#X connect 29 1 20 1;
#X connect 30 0 27 0;
#X connect 30 0 15 0;
#X connect 31 0 37 0;
#X connect 32 0 31 0;
#X connect 36 0 8 0;
#X connect 36 0 37 1;
#X connect 37 0 27 0;
#X connect 39 0 40 1;
#X connect 39 0 43 0;
#X connect 40 0 42 0;
#X connect 41 0 43 0;
#X connect 42 0 45 0;
#X connect 43 0 42 1;
#X connect 44 0 40 0;
#X connect 45 0 20 1;
#X connect 46 0 44 0;
