#N canvas 46 163 1010 490 10;
#X obj 413 36 bng 15 250 50 0 empty empty empty 20 8 0 8 -262144 -1
-1;
#X msg 331 75 loop \$1;
#X obj 332 53 tgl 15 1 empty empty empty 20 8 0 8 -262144 -1 -1 1 1
;
#X msg 189 101 open \$1;
#X obj 197 71 openpanel;
#X obj 189 49 bng 15 250 50 0 empty empty empty 20 8 0 8 -262144 -1
-1;
#X floatatom 445 53 5 0 0 2 vel - -;
#X msg 370 37 stop;
#X text 5 50 Load;
#X obj 147 283 outlet;
#X obj 79 14 inlet;
#X obj 445 15 inlet;
#X obj 595 15 inlet;
#X text 277 -2 velocidad;
#X obj 658 96 vsl 15 128 0 28 0 0 empty empty frame 0 -8 0 8 -260818
-1 -1 0 0;
#X floatatom 345 177 5 0 0 0 - - -;
#X floatatom 360 199 5 0 0 0 - - -;
#X msg 406 222 range 0 \$1;
#X obj 486 14 r gtempo;
#X floatatom 517 62 5 0 0 2 fps - -;
#X obj 525 109 /;
#X msg 525 84 1000;
#X floatatom 530 140 5 0 0 0 - - -;
#X obj 682 16 inlet;
#X obj 666 48 / 127;
#X floatatom 395 101 5 0 0 0 - - -;
#X text 450 116 Frame command;
#X obj 394 120 t b f;
#X obj 488 178 *;
#X obj 245 26 bng 15 250 50 0 empty autofiddle empty 0 -6 0 8 -43142
-24198 -1;
#X obj 288 17 bng 15 250 50 0 empty autoon empty 0 -6 0 8 -143491 -258699
-1;
#X obj 307 12 bng 15 250 50 0 empty autostep empty 0 -6 0 8 -62784
-44926 -1;
#X obj 576 38 tgl 15 0 empty empty empty 0 -6 0 8 -262144 -1 -1 1 1
;
#X floatatom 404 183 5 0 0 0 - - -;
#X obj 740 130 tgl 15 0 empty nerveauto empty 0 -6 0 8 -262144 -1 -1
0 1;
#X obj 700 149 spigot;
#X obj 753 168 bng 15 250 50 0 empty autoon empty 0 -6 0 8 -143491
-258699 -1;
#X obj 676 171 spigot;
#X obj 750 191 tgl 15 0 empty empty empty 0 -6 0 8 -262144 -1 -1 0
1;
#X obj 709 119 bng 15 250 50 0 empty autostep empty 0 -6 0 8 -62784
-44926 -1;
#X obj 561 246 random 100;
#X obj 726 76 r nerve-ctl;
#X obj 839 174 pdp_constant;
#X obj 846 80 tgl 15 0 empty empty empty 0 -6 0 8 -262144 -1 -1 0 1
;
#X obj 839 141 metro 40;
#X obj 394 73 metro 40;
#X obj 813 26 inlet;
#X obj 786 107 - 1;
#X obj 157 160 pdp_xine;
#X obj 188 127 spigot;
#X obj 119 127 spigot;
#X msg 96 93 1;
#X obj 72 54 loadbang;
#X obj 577 59 spigot;
#X obj 845 109 spigot;
#X obj 901 110 route 1 0;
#X msg 924 140 0;
#X msg 954 138 0;
#X obj 876 15 inlet;
#X obj 877 41 OSCroute /player;
#X obj 285 291 route 1 0;
#X msg 282 323 0;
#X msg 376 323 1;
#X msg 254 323 1;
#X msg 343 322 0;
#X obj 341 132 pdp_qt;
#X connect 0 0 45 0;
#X connect 1 0 48 0;
#X connect 1 0 65 0;
#X connect 2 0 1 0;
#X connect 3 0 49 0;
#X connect 3 0 50 0;
#X connect 4 0 3 0;
#X connect 5 0 4 0;
#X connect 6 0 45 1;
#X connect 7 0 45 0;
#X connect 10 0 3 0;
#X connect 11 0 19 0;
#X connect 12 0 32 0;
#X connect 15 0 14 0;
#X connect 16 0 17 0;
#X connect 16 0 28 1;
#X connect 17 0 14 0;
#X connect 18 0 6 0;
#X connect 19 0 20 1;
#X connect 19 0 21 0;
#X connect 20 0 22 0;
#X connect 21 0 20 0;
#X connect 22 0 6 0;
#X connect 23 0 24 0;
#X connect 24 0 28 0;
#X connect 25 0 27 0;
#X connect 27 0 65 0;
#X connect 27 1 65 1;
#X connect 28 0 25 0;
#X connect 28 0 14 0;
#X connect 32 0 53 0;
#X connect 32 0 54 0;
#X connect 34 0 35 1;
#X connect 34 0 38 0;
#X connect 35 0 37 0;
#X connect 36 0 38 0;
#X connect 37 0 40 0;
#X connect 38 0 37 1;
#X connect 39 0 35 0;
#X connect 40 0 48 1;
#X connect 40 0 65 1;
#X connect 41 0 39 0;
#X connect 42 0 9 0;
#X connect 43 0 44 0;
#X connect 43 0 47 0;
#X connect 43 0 54 1;
#X connect 43 0 55 0;
#X connect 44 0 42 0;
#X connect 45 0 49 0;
#X connect 45 0 50 0;
#X connect 46 0 43 0;
#X connect 47 0 53 1;
#X connect 48 0 9 0;
#X connect 49 0 65 0;
#X connect 50 0 48 0;
#X connect 51 0 53 1;
#X connect 51 0 49 1;
#X connect 52 0 51 0;
#X connect 53 0 45 0;
#X connect 54 0 44 0;
#X connect 55 0 56 0;
#X connect 56 0 45 0;
#X connect 57 0 44 0;
#X connect 58 0 59 0;
#X connect 59 0 60 0;
#X connect 60 0 63 0;
#X connect 60 0 61 0;
#X connect 60 1 62 0;
#X connect 60 1 64 0;
#X connect 61 0 49 1;
#X connect 62 0 49 1;
#X connect 63 0 50 1;
#X connect 64 0 50 1;
#X connect 65 0 9 0;
#X connect 65 1 15 0;
#X connect 65 2 16 0;
#X connect 65 2 40 1;
