#N canvas 359 24 590 514 10;
#X obj 494 427 tgl 15 0 empty empty empty 0 -6 0 8 -262144 -1 -1 0
1;
#X obj 494 479 pdp_control;
#X msg 494 452 thread \$1;
#X floatatom 494 540 5 0 0 0 - - -;
#X obj 494 511 route pdp_drop;
#X text 44 481 written by Yves Degoyon ( ydegoyon@free.fr );
#X text 43 466 pdp_capture : capture a portion of the screen;
#X floatatom 237 156 5 0 0 0 - - -;
#X floatatom 248 179 5 0 0 0 - - -;
#X floatatom 265 202 5 0 0 0 - - -;
#X floatatom 279 227 5 0 0 0 - - -;
#X msg 72 90 bang;
#X msg 125 89 stop;
#X msg 229 125 screen 0;
#X text 392 101 Sets the display;
#X text 296 125 Sets the screen number;
#X obj 183 300 pdp_scale 320 240;
#X obj 89 135 metro 200;
#X obj 183 264 pdp_capture;
#X text 318 201 Width ( default : 320 );
#X text 301 178 Upper left Y position ( default : 0 );
#X text 290 155 Upper left X position ( default : 0 );
#X text 332 226 Height ( default : 240 );
#X floatatom 174 109 5 0 0 0 - - -;
#X msg 218 101 display 192.168.0.7:0;
#X obj 170 346 outlet;
#X connect 0 0 2 0;
#X connect 1 0 4 0;
#X connect 2 0 1 0;
#X connect 4 0 3 0;
#X connect 7 0 18 1;
#X connect 8 0 18 2;
#X connect 9 0 18 3;
#X connect 10 0 18 4;
#X connect 11 0 17 0;
#X connect 12 0 17 0;
#X connect 13 0 18 0;
#X connect 16 0 25 0;
#X connect 17 0 18 0;
#X connect 18 0 16 0;
#X connect 23 0 17 1;
#X connect 24 0 18 0;
