#N canvas 352 28 411 432 10;
#X msg 18 190 load \$1 64 32;
#X obj 92 241 pdp_imgloader;
#X floatatom 188 69 5 0 0 0 - - -;
#X text 235 71 X Offset;
#X floatatom 188 97 5 0 0 0 - - -;
#X text 234 96 Y Offset;
#X obj 190 38 hsl 128 15 0 1 0 0 empty empty empty -2 -6 0 8 -262144
-1 -1 12700 1;
#X text 189 21 Blending factor;
#X msg 192 250 hide 0 23 250 25 67 235;
#X msg 211 234 unhide 1;
#X msg 72 161 rawhide 0 0.823 0.15 0.234 0.892 0.678;
#X msg 20 225 clear;
#X msg 80 -143 seek \$1;
#X floatatom 134 -142 5 0 0 0 - - -;
#X obj 33 -67 playlist all 100 200;
#X obj 176 -123 inlet;
#X obj 244 208 outlet;
#X msg 84 -102 location /home/knoppix/PD/VISUALES;
#X obj -18 -126 loadbang;
#X obj 118 138 r rawhide;
#X connect 0 0 1 0;
#X connect 1 0 16 0;
#X connect 2 0 1 1;
#X connect 4 0 1 2;
#X connect 6 0 1 3;
#X connect 8 0 1 0;
#X connect 9 0 1 0;
#X connect 10 0 1 3;
#X connect 10 0 1 0;
#X connect 11 0 1 0;
#X connect 12 0 14 0;
#X connect 13 0 12 0;
#X connect 14 0 0 0;
#X connect 15 0 1 0;
#X connect 17 0 14 0;
#X connect 18 0 17 0;
#X connect 19 0 1 0;
