#N canvas 438 147 933 663 10;
#X obj 130 99 tgl 15 0 empty empty empty 0 -6 0 8 -262144 -1 -1 0 1
;
#X obj 48 111 pdp_spigot;
#X obj 272 101 tgl 15 0 empty empty empty 0 -6 0 8 -262144 -1 -1 0
1;
#X obj 190 113 pdp_spigot;
#X floatatom 46 167 5 0 0 0 - - -;
#X floatatom 93 168 5 0 0 0 - - -;
#X obj 46 141 pdp_aging;
#X obj 190 140 pdp_baltan;
#X floatatom 189 164 10 0 0 0 - - -;
#X obj 403 102 tgl 15 0 empty empty empty 0 -6 0 8 -262144 -1 -1 0
1;
#X obj 321 114 pdp_spigot;
#X obj 320 141 pdp_edge;
#X obj 518 104 tgl 15 0 empty empty empty 0 -6 0 8 -262144 -1 -1 0
1;
#X obj 436 116 pdp_spigot;
#X msg 436 165 bang;
#X floatatom 476 166 5 0 0 0 - - -;
#X obj 436 141 pdp_intrusion;
#X obj 648 106 tgl 15 0 empty empty empty 0 -6 0 8 -262144 -1 -1 0
1;
#X obj 566 118 pdp_spigot;
#X obj 566 144 pdp_lens;
#X floatatom 561 173 5 0 0 0 - - -;
#X floatatom 609 173 5 0 0 0 - - -;
#X floatatom 561 189 5 0 0 0 - - -;
#X floatatom 608 190 5 0 0 0 - - -;
#X obj 658 188 tgl 15 0 empty empty empty 0 -6 0 8 -262144 -1 -1 0
1;
#X obj 778 105 tgl 15 0 empty empty empty 0 -6 0 8 -262144 -1 -1 0
1;
#X obj 696 117 pdp_spigot;
#X msg 697 164 bang;
#X obj 697 142 pdp_mosaic;
#X floatatom 740 166 5 0 0 0 - - -;
#X obj 863 204 tgl 15 0 empty empty empty 0 -6 0 8 -262144 -1 -1 0
1;
#X obj 781 216 pdp_spigot;
#X obj 782 241 pdp_nervous;
#X obj 784 267 tgl 15 0 empty empty empty 0 -6 0 8 -262144 -1 -1 0
1;
#X obj 659 209 tgl 15 0 empty empty empty 0 -6 0 8 -262144 -1 -1 0
1;
#X obj 577 221 pdp_spigot;
#X obj 578 247 pdp_quark;
#X obj 531 207 tgl 15 0 empty empty empty 0 -6 0 8 -262144 -1 -1 0
1;
#X obj 449 219 pdp_spigot;
#X floatatom 450 290 5 0 0 0 - - -;
#X obj 449 245 pdp_radioactiv;
#X obj 449 270 hdl 15 1 0 4 empty empty empty 0 -6 0 8 -262144 -1 -1
1;
#X floatatom 500 289 5 0 0 0 - - -;
#X obj 413 208 tgl 15 0 empty empty empty 0 -6 0 8 -262144 -1 -1 0
1;
#X obj 331 220 pdp_spigot;
#X floatatom 329 267 5 0 0 0 - - -;
#X floatatom 375 267 5 0 0 0 - - -;
#X floatatom 329 284 5 0 0 0 - - -;
#X floatatom 375 286 5 0 0 0 - - -;
#X obj 331 245 pdp_rev;
#X obj 285 205 tgl 15 0 empty empty empty 0 -6 0 8 -262144 -1 -1 0
1;
#X obj 203 217 pdp_spigot;
#X msg 218 270 bang;
#X obj 199 272 tgl 15 0 empty empty empty 0 -6 0 8 -262144 -1 -1 0
1;
#X obj 202 247 pdp_ripple;
#X floatatom 198 292 5 0 0 0 - - -;
#X floatatom 242 291 5 0 0 0 - - -;
#X obj 147 201 tgl 15 0 empty empty empty 0 -6 0 8 -262144 -1 -1 0
1;
#X obj 65 213 pdp_spigot;
#X obj 65 240 pdp_simura;
#X floatatom 62 283 5 0 0 0 - - -;
#X obj 48 263 hdl 15 1 0 9 empty empty empty 0 -6 0 8 -262144 -1 -1
0;
#X obj 126 310 tgl 15 0 empty empty empty 0 -6 0 8 -262144 -1 -1 0
1;
#X obj 44 322 pdp_spigot;
#X floatatom 44 387 5 0 0 0 - - -;
#X obj 44 366 hdl 15 1 0 8 empty empty empty 0 -6 0 8 -262144 -1 -1
1;
#X floatatom 91 386 5 0 0 0 - - -;
#X floatatom 139 386 5 0 0 0 - - -;
#X floatatom 45 407 5 0 0 0 - - -;
#X floatatom 93 406 5 0 0 0 - - -;
#X obj 141 405 tgl 15 0 empty empty empty 0 -6 0 8 -262144 -1 -1 0
1;
#X obj 162 405 tgl 15 0 empty empty empty 0 -6 0 8 -262144 -1 -1 0
1;
#X obj 44 346 pdp_spiral;
#X obj 284 309 tgl 15 0 empty empty empty 0 -6 0 8 -262144 -1 -1 0
1;
#X obj 202 321 pdp_spigot;
#X floatatom 201 367 5 0 0 0 - - -;
#X obj 201 343 pdp_underwatch;
#X obj 422 309 tgl 15 0 empty empty empty 0 -6 0 8 -262144 -1 -1 0
1;
#X obj 340 321 pdp_spigot;
#X obj 562 310 tgl 15 0 empty empty empty 0 -6 0 8 -262144 -1 -1 0
1;
#X obj 696 312 tgl 15 0 empty empty empty 0 -6 0 8 -262144 -1 -1 0
1;
#X obj 617 323 pdp_spigot;
#X obj 339 342 pdp_vertigo;
#X floatatom 338 365 5 0 0 0 - - -;
#X floatatom 381 365 5 0 0 0 - - -;
#X floatatom 480 369 5 0 0 0 - - -;
#X obj 480 346 pdp_warhol;
#X floatatom 530 369 5 0 0 0 - - -;
#X obj 480 388 hdl 15 1 0 9 empty empty empty 0 -6 0 8 -262144 -1 -1
0;
#X floatatom 481 407 5 0 0 0 - - -;
#X floatatom 527 407 5 0 0 0 - - -;
#X floatatom 572 407 5 0 0 0 - - -;
#X obj 807 8 tgl 15 0 empty empty empty 0 -6 0 8 -262144 -1 -1 0 1
;
#X floatatom 638 366 5 0 0 0 - - -;
#X obj 618 345 pdp_warp;
#X obj 811 315 tgl 15 0 empty empty empty 0 -6 0 8 -262144 -1 -1 0
1;
#X obj 732 326 pdp_spigot;
#X obj 19 544 pdp_zoom;
#X floatatom 68 500 5 0 0 0 - - -;
#X obj 152 436 hsl 300 15 0.01 100 1 1 empty empty empty -2 -6 0 8
-262144 -1 -1 14950 1;
#X floatatom 122 547 5 0 0 0 - - -;
#X obj 146 487 hsl 300 15 0.01 100 1 1 empty empty empty -2 -6 0 8
-262144 -1 -1 14950 1;
#X msg 165 522 zoomx \$1;
#X msg 164 548 zoomy \$1;
#X floatatom 124 523 5 0 0 0 - - -;
#X obj 150 460 hsl 300 15 0.01 100 1 1 empty empty empty -2 -6 0 8
-262144 -1 -1 14950 1;
#X msg 278 588 centerx \$1;
#X floatatom 281 562 5 0 0 0 - - -;
#X floatatom 363 560 5 0 0 0 - - -;
#X msg 360 586 centery \$1;
#X obj 289 508 hsl 128 15 -1 1 0 1 empty empty empty -2 -6 0 8 -262144
-1 -1 6300 1;
#X obj 307 527 hsl 128 15 -1 1 0 1 empty empty empty -2 -6 0 8 -262144
-1 -1 6300 1;
#X msg 17 453 center 0 0;
#X obj 731 350 pdp_cycle;
#X obj 729 373 tgl 15 0 empty empty empty 0 -6 0 8 -262144 -1 -1 0
1;
#X obj 758 374 tgl 15 0 empty empty empty 0 -6 0 8 -262144 -1 -1 0
1;
#X obj 783 374 tgl 15 0 empty empty empty 0 -6 0 8 -262144 -1 -1 0
1;
#X obj 917 315 tgl 15 0 empty empty empty 0 -6 0 8 -262144 -1 -1 0
1;
#X obj 838 325 pdp_spigot;
#X obj 837 350 pdp_transform;
#X obj 838 375 hdl 15 1 0 6 empty empty empty 0 -6 0 8 -262144 -1 -1
1;
#X obj 970 207 tgl 15 0 empty empty empty 0 -6 0 8 -262144 -1 -1 0
1;
#X obj 891 218 pdp_spigot;
#X obj 890 242 pdp_shagadelic;
#X floatatom 892 266 5 0 0 0 - - -;
#X obj 941 266 * 100;
#X obj 896 106 tgl 15 0 empty empty empty 0 -6 0 8 -262144 -1 -1 0
1;
#X obj 817 117 pdp_spigot;
#X floatatom 818 165 5 0 0 0 - - -;
#X obj 816 141 pdp_dice;
#X obj 885 289 tgl 15 0 empty empty empty 0 -6 0 8 -262144 -1 -1 0
1;
#X obj 810 414 pdp_spigot;
#X floatatom 883 441 5 0 0 0 - - -;
#X obj 809 438 pdp_puzzle;
#X msg 813 464 up;
#X msg 845 464 down;
#X msg 885 464 left;
#X msg 925 464 right;
#X obj 732 296 tgl 15 0 empty empty empty 0 -6 0 8 -262144 -1 -1 0
1;
#X obj 661 415 pdp_spigot;
#X obj 660 439 pdp_ascii;
#X floatatom 730 439 5 0 0 0 - - -;
#X floatatom 580 272 5 0 0 0 - - -;
#X floatatom 829 266 5 0 0 0 - - -;
#X obj 760 211 tgl 15 0 empty empty empty 0 -6 0 8 -262144 -1 -1 0
1;
#X obj 678 223 pdp_spigot;
#X floatatom 726 273 5 0 0 0 - - -;
#X obj 679 248 pdp_noquark;
#X floatatom 678 272 5 0 0 0 - - -;
#X floatatom 625 272 5 0 0 0 - - -;
#X obj 284 617 pdp_affine;
#X floatatom 372 616 5 0 0 0 - - -;
#X floatatom 422 616 5 0 0 0 - - -;
#X obj -94 -335 inlet;
#X obj 283 663 outlet;
#X obj 169 -190 bng 15 250 50 0 empty empty empty 0 -6 0 8 -262144
-1 -1;
#X obj 202 -190 bng 15 250 50 0 empty empty empty 0 -6 0 8 -262144
-1 -1;
#X obj 237 -190 bng 15 250 50 0 empty empty empty 0 -6 0 8 -262144
-1 -1;
#X obj 268 -191 bng 15 250 50 0 empty empty empty 0 -6 0 8 -262144
-1 -1;
#X obj 302 -190 bng 15 250 50 0 empty empty empty 0 -6 0 8 -262144
-1 -1;
#X obj 331 -191 bng 15 250 50 0 empty empty empty 0 -6 0 8 -262144
-1 -1;
#X obj 358 -191 bng 15 250 50 0 empty empty empty 0 -6 0 8 -262144
-1 -1;
#X obj 382 -190 bng 15 250 50 0 empty empty empty 0 -6 0 8 -262144
-1 -1;
#X obj 416 -189 bng 15 250 50 0 empty empty empty 0 -6 0 8 -262144
-1 -1;
#X obj 445 -190 bng 15 250 50 0 empty empty empty 0 -6 0 8 -262144
-1 -1;
#X obj 146 -98 bng 15 250 50 0 empty empty empty 0 -6 0 8 -262144 -1
-1;
#X obj 179 -98 bng 15 250 50 0 empty empty empty 0 -6 0 8 -262144 -1
-1;
#X obj 213 -98 bng 15 250 50 0 empty empty empty 0 -6 0 8 -262144 -1
-1;
#X obj 244 -99 bng 15 250 50 0 empty empty empty 0 -6 0 8 -262144 -1
-1;
#X obj 278 -98 bng 15 250 50 0 empty empty empty 0 -6 0 8 -262144 -1
-1;
#X obj 308 -99 bng 15 250 50 0 empty empty empty 0 -6 0 8 -262144 -1
-1;
#X obj 335 -99 bng 15 250 50 0 empty empty empty 0 -6 0 8 -262144 -1
-1;
#X obj 381 -98 bng 15 250 50 0 empty empty empty 0 -6 0 8 -262144 -1
-1;
#X obj 415 -97 bng 15 250 50 0 empty empty empty 0 -6 0 8 -262144 -1
-1;
#X obj 444 -98 bng 15 250 50 0 empty empty empty 0 -6 0 8 -262144 -1
-1;
#X obj 75 -1 bng 15 250 50 0 empty empty empty 0 -6 0 8 -262144 -1
-1;
#X obj 108 -1 bng 15 250 50 0 empty empty empty 0 -6 0 8 -262144 -1
-1;
#X obj 143 -1 bng 15 250 50 0 empty empty empty 0 -6 0 8 -262144 -1
-1;
#X obj 174 -2 bng 15 250 50 0 empty empty empty 0 -6 0 8 -262144 -1
-1;
#X obj 208 -1 bng 15 250 50 0 empty empty empty 0 -6 0 8 -262144 -1
-1;
#X obj 237 -2 bng 15 250 50 0 empty empty empty 0 -6 0 8 -262144 -1
-1;
#X obj 264 -2 bng 15 250 50 0 empty empty empty 0 -6 0 8 -262144 -1
-1;
#X obj 310 -1 bng 15 250 50 0 empty empty empty 0 -6 0 8 -262144 -1
-1;
#X obj 344 0 bng 15 250 50 0 empty empty empty 0 -6 0 8 -262144 -1
-1;
#X obj 373 -1 bng 15 250 50 0 empty empty empty 0 -6 0 8 -262144 -1
-1;
#X obj 164 -133 route 97 115 100 102 103 104 106 107 108 241;
#X obj 185 -223 route 113 119 101 114 116 121 117 105 111 112;
#X obj 90 -34 route 122 120 99 118 98 110 109 44 46 45;
#X text 139 -50 z x c v b n m \, . -;
#X text 232 -146 a s d f g h j k l enye;
#X text 230 -243 q w e r t y u i o p;
#X obj 543 -189 bng 15 250 50 0 empty empty empty 0 -6 0 8 -262144
-1 -1;
#X obj 576 -189 bng 15 250 50 0 empty empty empty 0 -6 0 8 -262144
-1 -1;
#X obj 611 -189 bng 15 250 50 0 empty empty empty 0 -6 0 8 -262144
-1 -1;
#X obj 642 -190 bng 15 250 50 0 empty empty empty 0 -6 0 8 -262144
-1 -1;
#X obj 676 -189 bng 15 250 50 0 empty empty empty 0 -6 0 8 -262144
-1 -1;
#X obj 705 -190 bng 15 250 50 0 empty empty empty 0 -6 0 8 -262144
-1 -1;
#X obj 732 -190 bng 15 250 50 0 empty empty empty 0 -6 0 8 -262144
-1 -1;
#X obj 752 -189 bng 15 250 50 0 empty empty empty 0 -6 0 8 -262144
-1 -1;
#X obj 786 -188 bng 15 250 50 0 empty empty empty 0 -6 0 8 -262144
-1 -1;
#X obj 815 -189 bng 15 250 50 0 empty empty empty 0 -6 0 8 -262144
-1 -1;
#X obj 551 -96 bng 15 250 50 0 empty empty empty 0 -6 0 8 -262144 -1
-1;
#X obj 584 -96 bng 15 250 50 0 empty empty empty 0 -6 0 8 -262144 -1
-1;
#X obj 619 -96 bng 15 250 50 0 empty empty empty 0 -6 0 8 -262144 -1
-1;
#X obj 650 -97 bng 15 250 50 0 empty empty empty 0 -6 0 8 -262144 -1
-1;
#X obj 684 -96 bng 15 250 50 0 empty empty empty 0 -6 0 8 -262144 -1
-1;
#X obj 713 -97 bng 15 250 50 0 empty empty empty 0 -6 0 8 -262144 -1
-1;
#X obj 734 -96 bng 15 250 50 0 empty empty empty 0 -6 0 8 -262144 -1
-1;
#X obj 758 -94 bng 15 250 50 0 empty empty empty 0 -6 0 8 -262144 -1
-1;
#X obj 778 -94 bng 15 250 50 0 empty empty empty 0 -6 0 8 -262144 -1
-1;
#X obj 807 -95 bng 15 250 50 0 empty empty empty 0 -6 0 8 -262144 -1
-1;
#X obj 449 0 bng 15 250 50 0 empty empty empty 0 -6 0 8 -262144 -1
-1;
#X obj 482 0 bng 15 250 50 0 empty empty empty 0 -6 0 8 -262144 -1
-1;
#X obj 517 0 bng 15 250 50 0 empty empty empty 0 -6 0 8 -262144 -1
-1;
#X obj 548 -1 bng 15 250 50 0 empty empty empty 0 -6 0 8 -262144 -1
-1;
#X obj 582 0 bng 15 250 50 0 empty empty empty 0 -6 0 8 -262144 -1
-1;
#X obj 611 -1 bng 15 250 50 0 empty empty empty 0 -6 0 8 -262144 -1
-1;
#X obj 638 -1 bng 15 250 50 0 empty empty empty 0 -6 0 8 -262144 -1
-1;
#X obj 684 0 bng 15 250 50 0 empty empty empty 0 -6 0 8 -262144 -1
-1;
#X obj 718 1 bng 15 250 50 0 empty empty empty 0 -6 0 8 -262144 -1
-1;
#X obj 751 11 bng 15 250 50 0 empty empty empty 0 -6 0 8 -262144 -1
-1;
#X obj 271 -303 bng 15 250 50 0 empty empty empty 0 -6 0 8 -262144
-1 -1;
#X obj 304 -303 bng 15 250 50 0 empty empty empty 0 -6 0 8 -262144
-1 -1;
#X obj 339 -303 bng 15 250 50 0 empty empty empty 0 -6 0 8 -262144
-1 -1;
#X obj 370 -304 bng 15 250 50 0 empty empty empty 0 -6 0 8 -262144
-1 -1;
#X obj 404 -303 bng 15 250 50 0 empty empty empty 0 -6 0 8 -262144
-1 -1;
#X obj 433 -304 bng 15 250 50 0 empty empty empty 0 -6 0 8 -262144
-1 -1;
#X obj 454 -303 bng 15 250 50 0 empty empty empty 0 -6 0 8 -262144
-1 -1;
#X obj 478 -304 bng 15 250 50 0 empty empty empty 0 -6 0 8 -262144
-1 -1;
#X obj 497 -304 bng 15 250 50 0 empty empty empty 0 -6 0 8 -262144
-1 -1;
#X obj 517 -304 bng 15 250 50 0 empty empty empty 0 -6 0 8 -262144
-1 -1;
#X obj 538 -305 bng 15 250 50 0 empty empty empty 0 -6 0 8 -262144
-1 -1;
#X obj 559 -305 bng 15 250 50 0 empty empty empty 0 -6 0 8 -262144
-1 -1;
#X obj 978 114 bng 15 250 50 0 empty empty empty 0 -6 0 8 -262144 -1
-1;
#X obj 1011 114 bng 15 250 50 0 empty empty empty 0 -6 0 8 -262144
-1 -1;
#X obj 1046 114 bng 15 250 50 0 empty empty empty 0 -6 0 8 -262144
-1 -1;
#X obj 1077 113 bng 15 250 50 0 empty empty empty 0 -6 0 8 -262144
-1 -1;
#X obj 699 -303 bng 15 250 50 0 empty empty empty 0 -6 0 8 -262144
-1 -1;
#X obj 728 -304 bng 15 250 50 0 empty empty empty 0 -6 0 8 -262144
-1 -1;
#X obj 749 -303 bng 15 250 50 0 empty empty empty 0 -6 0 8 -262144
-1 -1;
#X obj 773 -304 bng 15 250 50 0 empty empty empty 0 -6 0 8 -262144
-1 -1;
#X obj 792 -304 bng 15 250 50 0 empty empty empty 0 -6 0 8 -262144
-1 -1;
#X obj 812 -304 bng 15 250 50 0 empty empty empty 0 -6 0 8 -262144
-1 -1;
#X obj 833 -305 bng 15 250 50 0 empty empty empty 0 -6 0 8 -262144
-1 -1;
#X obj 854 -305 bng 15 250 50 0 empty empty empty 0 -6 0 8 -262144
-1 -1;
#X obj 276 -342 route 33 34 183 36 37 38 47 40 41 61 63 191;
#X text 296 -363 shift + 1 2 3 4 5 6 7 8 9 0 ' !inv;
#X text 601 -362 1 2 3 4 5 6 7 8 9 0 ' !inv;
#X obj 559 -222 route 81 87 69 82 84 89 85 73 79 80;
#X text 604 -242 shift + q w e r t y u i o p;
#X text 599 -145 shift + a s d f g h j k l enye;
#X obj 538 -132 route 65 83 68 70 71 72 74 75 76 209;
#X obj 464 -33 route 90 88 67 86 66 78 77 59 58 95;
#X text 513 -49 shift z x c v b n m \, . -;
#X floatatom 373 51 5 0 0 0 - - -;
#X floatatom -62 232 5 0 0 0 - - -;
#X text -62 209 Set upper limit;
#X obj -135 264 countund 100;
#X obj -138 234 metro 100;
#X obj -130 320 * 0.01;
#X obj -81 90 tgl 15 0 empty empty empty 0 -6 0 8 -262144 -1 -1 0 1
;
#X msg 280 408 1;
#X text 311 409 reset zoom;
#X obj 215 408 loadbang;
#X obj -47 276 int-control;
#X obj -39 315 * 0.01;
#X obj -39 335 + 1;
#X obj 320 -162 int-control;
#X obj 592 -342 route 49 50 51 52 53 54 55 56 57 48 39 161;
#X obj 476 316 pdp_spigot;
#X obj 336 391 xstopianoroll;
#X obj 302 377 tgl 15 0 empty empty empty 0 -6 0 8 -262144 -1 -1 0
1;
#X obj 140 613 pdp_rotate;
#X obj 156 585 * 360;
#X obj 240 549 / 40;
#X obj 247 626 + 1;
#X floatatom 79 606 5 0 0 0 - - -;
#X obj 801 -94 grid grid1 80 0 320 60 0 240 1 1 1 10 10 851 -48;
#X obj 827 47 * -1;
#X obj 455 45 int-control;
#X obj 782 465 tgl 15 0 empty empty empty 0 -6 0 8 -262144 -1 -1 0
1;
#X obj 712 487 pdp_spigot;
#X floatatom 754 536 5 0 0 0 - - -;
#X obj 714 511 pdp_bitdepth;
#X obj 810 495 vsl 15 128 0 8 0 0 empty empty empty 0 -8 0 8 -262144
-1 -1 0 0;
#X msg 23 618 0;
#X obj -82 473 int-control;
#X obj -66 11 route 500;
#X obj 576 38 route 700 701 702 703 704 705 706;
#X obj 613 71 bng 15 250 50 0 empty empty empty 0 -6 0 8 -262144 -1
-1;
#X obj 641 72 bng 15 250 50 0 empty empty empty 0 -6 0 8 -262144 -1
-1;
#X obj 670 70 bng 15 250 50 0 empty empty empty 0 -6 0 8 -262144 -1
-1;
#X obj -67 -77 route 700 701 710 720 721 730 731 732 733 740 741 750
760 761 770 771 772 773 780 781 782 783 790 791 792;
#X obj 367 -81 route 800 801 810 811 820 821 830 840 841 842 843 844
845 846 847 850 860 861 870 871 872 873 874 875 880 881 890 891 892
;
#X obj 466 668 route 900 910 920 921 922 923 924 930 940 941 942 943
944 949;
#X obj -9 -336 inlet;
#X obj 786 -7 bng 15 250 50 0 empty empty empty 0 -6 0 8 -262144 -1
-1;
#X obj 1024 330 tgl 15 0 empty empty empty 0 -6 0 8 -262144 -1 -1 0
1;
#X obj 945 341 pdp_spigot;
#X obj 943 370 pdp_charcoal;
#X floatatom 1035 353 5 0 0 0 - - -;
#X obj 68 -360 r net1;
#X obj 435 -257 r general;
#X connect 0 0 1 1;
#X connect 1 0 3 0;
#X connect 1 1 6 0;
#X connect 2 0 3 1;
#X connect 3 0 10 0;
#X connect 3 1 7 0;
#X connect 4 0 6 1;
#X connect 5 0 6 2;
#X connect 6 0 3 0;
#X connect 7 0 10 0;
#X connect 8 0 7 1;
#X connect 9 0 10 1;
#X connect 10 0 13 0;
#X connect 10 1 11 0;
#X connect 11 0 13 0;
#X connect 12 0 13 1;
#X connect 13 0 18 0;
#X connect 13 1 16 0;
#X connect 14 0 16 1;
#X connect 15 0 16 2;
#X connect 16 0 18 0;
#X connect 17 0 18 1;
#X connect 18 0 26 0;
#X connect 18 1 19 0;
#X connect 19 0 26 0;
#X connect 20 0 19 1;
#X connect 21 0 19 2;
#X connect 22 0 19 3;
#X connect 23 0 19 4;
#X connect 24 0 19 5;
#X connect 25 0 26 1;
#X connect 26 0 127 0;
#X connect 26 1 28 0;
#X connect 27 0 28 1;
#X connect 28 0 127 0;
#X connect 29 0 28 2;
#X connect 30 0 31 1;
#X connect 31 0 145 0;
#X connect 31 1 32 0;
#X connect 32 0 145 0;
#X connect 33 0 32 1;
#X connect 34 0 35 1;
#X connect 35 0 38 0;
#X connect 35 1 36 0;
#X connect 36 0 38 0;
#X connect 37 0 38 1;
#X connect 38 0 44 0;
#X connect 38 1 40 0;
#X connect 39 0 40 2;
#X connect 40 0 44 0;
#X connect 41 0 40 1;
#X connect 42 0 40 3;
#X connect 43 0 44 1;
#X connect 44 0 51 0;
#X connect 44 1 49 0;
#X connect 45 0 49 1;
#X connect 46 0 49 2;
#X connect 47 0 49 3;
#X connect 48 0 49 4;
#X connect 49 0 51 0;
#X connect 50 0 51 1;
#X connect 51 0 58 0;
#X connect 51 1 54 0;
#X connect 52 0 54 2;
#X connect 53 0 54 1;
#X connect 54 0 58 0;
#X connect 55 0 54 3;
#X connect 56 0 54 4;
#X connect 57 0 58 1;
#X connect 58 0 63 0;
#X connect 58 1 59 0;
#X connect 59 0 63 0;
#X connect 60 0 59 1;
#X connect 61 0 59 2;
#X connect 62 0 63 1;
#X connect 63 0 74 0;
#X connect 63 1 72 0;
#X connect 64 0 72 2;
#X connect 65 0 72 1;
#X connect 66 0 72 3;
#X connect 67 0 72 4;
#X connect 68 0 72 5;
#X connect 69 0 72 6;
#X connect 70 0 72 7;
#X connect 71 0 72 8;
#X connect 72 0 74 0;
#X connect 73 0 74 1;
#X connect 74 0 78 0;
#X connect 74 1 76 0;
#X connect 75 0 76 1;
#X connect 76 0 78 0;
#X connect 77 0 78 1;
#X connect 78 0 269 0;
#X connect 78 1 82 0;
#X connect 79 0 269 1;
#X connect 80 0 81 1;
#X connect 81 0 96 0;
#X connect 81 1 94 0;
#X connect 82 0 269 0;
#X connect 83 0 82 1;
#X connect 84 0 82 2;
#X connect 85 0 86 1;
#X connect 86 0 81 0;
#X connect 87 0 86 2;
#X connect 88 0 86 3;
#X connect 89 0 86 4;
#X connect 90 0 86 5;
#X connect 91 0 86 6;
#X connect 92 0 94 1;
#X connect 93 0 94 2;
#X connect 94 0 96 0;
#X connect 95 0 96 1;
#X connect 96 0 118 0;
#X connect 96 1 113 0;
#X connect 97 0 272 0;
#X connect 98 0 97 1;
#X connect 99 0 98 0;
#X connect 100 0 103 0;
#X connect 101 0 100 0;
#X connect 102 0 97 0;
#X connect 103 0 97 0;
#X connect 104 0 102 0;
#X connect 105 0 104 0;
#X connect 106 0 97 0;
#X connect 107 0 106 0;
#X connect 108 0 109 0;
#X connect 109 0 97 0;
#X connect 110 0 107 0;
#X connect 111 0 108 0;
#X connect 112 0 97 0;
#X connect 113 0 118 0;
#X connect 114 0 113 1;
#X connect 115 0 113 2;
#X connect 116 0 113 3;
#X connect 117 0 118 1;
#X connect 118 0 298 0;
#X connect 118 1 119 0;
#X connect 119 0 298 0;
#X connect 120 0 119 1;
#X connect 121 0 122 1;
#X connect 122 0 31 0;
#X connect 122 1 123 0;
#X connect 123 0 31 0;
#X connect 124 0 125 0;
#X connect 125 0 123 1;
#X connect 126 0 127 1;
#X connect 127 0 122 0;
#X connect 127 1 129 0;
#X connect 128 0 129 1;
#X connect 129 0 122 0;
#X connect 130 0 131 1;
#X connect 131 0 281 0;
#X connect 131 1 133 0;
#X connect 132 0 133 1;
#X connect 133 0 281 0;
#X connect 134 0 133 0;
#X connect 135 0 133 0;
#X connect 136 0 133 0;
#X connect 137 0 133 0;
#X connect 138 0 139 1;
#X connect 139 0 97 0;
#X connect 139 1 140 0;
#X connect 140 0 97 0;
#X connect 141 0 140 1;
#X connect 142 0 36 1;
#X connect 143 0 32 2;
#X connect 144 0 145 1;
#X connect 145 0 35 0;
#X connect 145 1 147 0;
#X connect 146 0 147 2;
#X connect 147 0 35 0;
#X connect 148 0 147 1;
#X connect 149 0 36 2;
#X connect 150 0 154 0;
#X connect 151 0 150 1;
#X connect 152 0 150 2;
#X connect 153 0 1 0;
#X connect 155 0 0 0;
#X connect 156 0 2 0;
#X connect 157 0 9 0;
#X connect 158 0 12 0;
#X connect 159 0 17 0;
#X connect 160 0 25 0;
#X connect 161 0 126 0;
#X connect 162 0 57 0;
#X connect 163 0 50 0;
#X connect 164 0 43 0;
#X connect 165 0 37 0;
#X connect 166 0 34 0;
#X connect 167 0 144 0;
#X connect 168 0 30 0;
#X connect 169 0 121 0;
#X connect 170 0 62 0;
#X connect 171 0 73 0;
#X connect 172 0 77 0;
#X connect 173 0 79 0;
#X connect 174 0 80 0;
#X connect 175 0 95 0;
#X connect 180 0 264 0;
#X connect 181 0 264 1;
#X connect 182 0 286 0;
#X connect 183 0 286 1;
#X connect 184 0 254 0;
#X connect 184 0 261 0;
#X connect 185 0 165 0;
#X connect 185 1 166 0;
#X connect 185 2 167 0;
#X connect 185 3 168 0;
#X connect 185 4 169 0;
#X connect 185 5 170 0;
#X connect 185 6 171 0;
#X connect 185 7 172 0;
#X connect 185 7 267 1;
#X connect 185 8 173 0;
#X connect 185 9 174 0;
#X connect 185 10 251 0;
#X connect 186 0 155 0;
#X connect 186 1 156 0;
#X connect 186 2 157 0;
#X connect 186 3 158 0;
#X connect 186 4 159 0;
#X connect 186 5 160 0;
#X connect 186 6 161 0;
#X connect 186 7 162 0;
#X connect 186 8 163 0;
#X connect 186 9 164 0;
#X connect 186 10 248 0;
#X connect 187 0 175 0;
#X connect 187 1 176 0;
#X connect 187 2 177 0;
#X connect 187 3 178 0;
#X connect 187 4 179 0;
#X connect 187 5 180 0;
#X connect 187 6 181 0;
#X connect 187 7 182 0;
#X connect 187 8 183 0;
#X connect 187 9 184 0;
#X connect 195 0 279 0;
#X connect 205 0 279 1;
#X connect 220 0 184 0;
#X connect 233 0 117 0;
#X connect 234 0 138 0;
#X connect 235 0 130 0;
#X connect 236 0 280 0;
#X connect 245 0 221 0;
#X connect 245 1 222 0;
#X connect 245 2 223 0;
#X connect 245 3 224 0;
#X connect 245 4 225 0;
#X connect 245 5 226 0;
#X connect 245 6 227 0;
#X connect 245 7 228 0;
#X connect 245 8 229 0;
#X connect 245 9 230 0;
#X connect 245 10 231 0;
#X connect 245 11 232 0;
#X connect 245 12 268 0;
#X connect 248 0 191 0;
#X connect 248 1 192 0;
#X connect 248 2 193 0;
#X connect 248 3 194 0;
#X connect 248 4 195 0;
#X connect 248 5 196 0;
#X connect 248 6 197 0;
#X connect 248 7 198 0;
#X connect 248 8 199 0;
#X connect 248 9 200 0;
#X connect 251 0 201 0;
#X connect 251 1 202 0;
#X connect 251 2 203 0;
#X connect 251 3 204 0;
#X connect 251 4 205 0;
#X connect 251 5 206 0;
#X connect 251 6 207 0;
#X connect 251 7 208 0;
#X connect 251 8 209 0;
#X connect 251 9 210 0;
#X connect 252 0 211 0;
#X connect 252 1 212 0;
#X connect 252 2 213 0;
#X connect 252 3 214 0;
#X connect 252 4 215 0;
#X connect 252 5 216 0;
#X connect 252 6 217 0;
#X connect 252 7 218 0;
#X connect 252 8 219 0;
#X connect 252 9 220 0;
#X connect 254 0 0 0;
#X connect 254 0 2 0;
#X connect 254 0 9 0;
#X connect 254 0 12 0;
#X connect 254 0 17 0;
#X connect 254 0 25 0;
#X connect 254 0 126 0;
#X connect 254 0 57 0;
#X connect 254 0 50 0;
#X connect 254 0 43 0;
#X connect 254 0 37 0;
#X connect 254 0 34 0;
#X connect 254 0 144 0;
#X connect 254 0 30 0;
#X connect 254 0 121 0;
#X connect 254 0 62 0;
#X connect 254 0 73 0;
#X connect 254 0 77 0;
#X connect 254 0 79 0;
#X connect 254 0 80 0;
#X connect 254 0 138 0;
#X connect 254 0 95 0;
#X connect 254 0 130 0;
#X connect 254 0 117 0;
#X connect 255 0 257 1;
#X connect 257 0 259 0;
#X connect 258 0 257 0;
#X connect 259 0 99 0;
#X connect 260 0 258 0;
#X connect 261 0 99 0;
#X connect 261 0 105 0;
#X connect 261 0 101 0;
#X connect 261 0 285 0;
#X connect 263 0 261 0;
#X connect 264 0 265 0;
#X connect 265 0 266 0;
#X connect 266 0 99 0;
#X connect 267 0 61 0;
#X connect 267 0 59 0;
#X connect 268 0 233 0;
#X connect 268 1 234 0;
#X connect 268 2 235 0;
#X connect 268 3 236 0;
#X connect 268 4 237 0;
#X connect 268 5 238 0;
#X connect 268 6 239 0;
#X connect 268 7 240 0;
#X connect 268 8 241 0;
#X connect 268 9 242 0;
#X connect 268 10 243 0;
#X connect 268 11 244 0;
#X connect 268 12 186 0;
#X connect 269 0 81 0;
#X connect 269 1 86 0;
#X connect 270 0 274 0;
#X connect 270 1 151 0;
#X connect 270 1 273 0;
#X connect 271 0 270 0;
#X connect 272 0 150 0;
#X connect 273 0 272 1;
#X connect 273 0 276 0;
#X connect 274 0 275 0;
#X connect 275 0 99 0;
#X connect 277 0 20 0;
#X connect 277 1 278 0;
#X connect 278 0 21 0;
#X connect 279 0 75 0;
#X connect 280 0 281 1;
#X connect 281 0 139 0;
#X connect 281 1 283 0;
#X connect 282 0 283 1;
#X connect 283 0 139 0;
#X connect 284 0 283 1;
#X connect 285 0 272 1;
#X connect 286 0 272 1;
#X connect 287 0 61 0;
#X connect 288 0 289 0;
#X connect 288 1 290 0;
#X connect 288 2 291 0;
#X connect 288 3 128 0;
#X connect 288 4 4 0;
#X connect 288 5 5 0;
#X connect 289 0 114 0;
#X connect 290 0 115 0;
#X connect 291 0 116 0;
#X connect 292 0 4 0;
#X connect 292 1 5 0;
#X connect 292 2 8 0;
#X connect 292 3 14 0;
#X connect 292 4 15 0;
#X connect 292 5 20 0;
#X connect 292 6 21 0;
#X connect 292 7 22 0;
#X connect 292 8 23 0;
#X connect 292 9 27 0;
#X connect 292 10 29 0;
#X connect 292 11 128 0;
#X connect 292 12 61 0;
#X connect 292 13 60 0;
#X connect 292 14 53 0;
#X connect 292 15 52 0;
#X connect 292 16 55 0;
#X connect 292 17 56 0;
#X connect 292 18 45 0;
#X connect 292 19 46 0;
#X connect 292 20 47 0;
#X connect 292 21 48 0;
#X connect 292 22 41 0;
#X connect 292 23 39 0;
#X connect 292 24 42 0;
#X connect 292 25 293 0;
#X connect 293 0 142 0;
#X connect 293 1 149 0;
#X connect 293 2 148 0;
#X connect 293 3 146 0;
#X connect 293 4 33 0;
#X connect 293 5 143 0;
#X connect 293 6 124 0;
#X connect 293 7 65 0;
#X connect 293 8 64 0;
#X connect 293 9 66 0;
#X connect 293 10 67 0;
#X connect 293 11 68 0;
#X connect 293 12 69 0;
#X connect 293 13 70 0;
#X connect 293 14 71 0;
#X connect 293 15 75 0;
#X connect 293 16 83 0;
#X connect 293 17 84 0;
#X connect 293 18 88 0;
#X connect 293 19 85 0;
#X connect 293 20 87 0;
#X connect 293 21 89 0;
#X connect 293 22 90 0;
#X connect 293 23 91 0;
#X connect 293 24 296 0;
#X connect 293 25 93 0;
#X connect 293 26 114 0;
#X connect 293 27 115 0;
#X connect 293 28 116 0;
#X connect 294 0 120 0;
#X connect 294 1 141 0;
#X connect 294 2 132 0;
#X connect 294 3 134 0;
#X connect 294 4 135 0;
#X connect 294 5 136 0;
#X connect 294 6 137 0;
#X connect 294 7 282 0;
#X connect 294 8 261 0;
#X connect 294 13 99 0;
#X connect 295 0 245 0;
#X connect 295 0 185 0;
#X connect 295 0 187 0;
#X connect 295 0 252 0;
#X connect 295 0 287 0;
#X connect 295 0 288 0;
#X connect 295 0 292 0;
#X connect 295 0 294 0;
#X connect 296 0 92 0;
#X connect 297 0 298 1;
#X connect 298 0 131 0;
#X connect 298 1 299 0;
#X connect 299 0 131 0;
#X connect 300 0 299 1;
#X connect 301 0 245 0;
#X connect 301 0 185 0;
#X connect 301 0 292 0;
#X connect 301 0 187 0;
#X connect 301 0 252 0;
#X connect 301 0 287 0;
#X connect 301 0 288 0;
#X connect 301 0 294 0;
#X connect 302 0 254 0;
