#N canvas 469 390 540 471 10;
#X obj -43 78 symbol;
#X msg -43 133 load_png \$1 \, bang;
#X obj -108 38 route bang;
#X msg -108 165 bang;
#X obj -43 193 pdp_reg;
#X obj -171 7 inlet;
#X obj -32 257 outlet;
#X obj 72 49 metro 70;
#X obj 81 2 inlet;
#X obj 215 10 r etempo;
#X connect 0 0 1 0;
#X connect 1 0 4 0;
#X connect 2 0 3 0;
#X connect 2 1 0 0;
#X connect 3 0 4 0;
#X connect 4 0 6 0;
#X connect 5 0 2 0;
#X connect 7 0 3 0;
#X connect 8 0 7 0;
#X connect 9 0 7 1;
