#N canvas 0 116 931 450 10;
#X floatatom 361 324 5 0 0 0 - - -;
#X floatatom 403 324 5 0 0 0 - - -;
#X obj 365 342 hsl 128 15 0 1 0 0 empty empty empty -2 -6 0 8 -262144
-1 -1 0 1;
#X obj 254 386 pdp_imgloader;
#X obj 418 249 playlist all 100 200 {Helvetica 10 bold} #457782 yellow
black red;
#X obj 526 215 seek-control;
#X obj 414 100 bng 15 250 50 0 empty autofiddle empty 0 -6 0 8 -43142
-24198 -1;
#X obj 416 145 int-control2;
#X obj 415 124 spigot;
#X obj 465 125 tgl 15 0 empty autoimage empty 0 -6 0 8 -262144 -1 -1
0 1;
#X obj 416 172 bng 15 250 50 0 empty empty empty 0 -6 0 8 -262144 -1
-1;
#X floatatom 518 104 5 0 0 0 - - -;
#X msg 187 274 clear;
#X msg 104 279 0;
#X obj 37 228 loadbang;
#X msg 277 267 load \$1 0 0;
#X obj 186 216 bng 15 250 50 0 empty empty empty 0 -6 0 8 -262144 -1
-1;
#X msg 433 187 location /home/caedes/PNG/sprites;
#X msg 652 272 quality 1;
#X floatatom 384 371 5 0 0 0 - - -;
#X msg 653 387 quality 0;
#X msg 657 289 operation add;
#X msg 687 308 operation substract;
#X msg 715 325 operation reshade;
#X msg 632 345 operation copy;
#X obj 652 230 loadbang;
#X obj 463 61 metro 100;
#X obj 457 20 tgl 15 0 empty empty empty 0 -6 0 8 -262144 -1 -1 0 1
;
#X obj 191 109 inlet general;
#X obj 641 123 inlet OSC;
#X obj 277 447 outlet salida;
#X obj 535 465 OSCroute /copy /add /substract /reshade /estirar;
#X obj 761 383 tgl 15 0 empty empty empty 0 -6 0 8 -262144 -1 -1 0
1;
#X floatatom 125 358 5 0 0 0 - - -;
#X obj 71 344 - 1000;
#X obj 72 303 random 1500;
#X floatatom 182 344 5 0 0 0 - - -;
#X obj 64 492 OSCroute /load /x /y /blend /auto /beats /dir /clear
/image;
#X obj 567 516 outlet onload;
#X obj 556 70 r \$0-autopng;
#X obj 282 522 s \$0-autopng;
#X floatatom 400 521 5 0 0 0 - - -;
#X msg 620 425 fit 0;
#X msg 650 443 fit 1;
#X msg 746 422 fit \$1;
#X msg 821 425 estirar \$1;
#X msg 798 358 estirar 1;
#X connect 0 0 3 1;
#X connect 1 0 3 2;
#X connect 2 0 3 3;
#X connect 3 0 30 0;
#X connect 4 0 15 0;
#X connect 5 0 4 0;
#X connect 5 0 38 0;
#X connect 6 0 8 0;
#X connect 7 0 10 0;
#X connect 7 1 5 0;
#X connect 8 0 7 0;
#X connect 9 0 8 1;
#X connect 11 0 7 2;
#X connect 12 0 3 0;
#X connect 13 0 3 1;
#X connect 13 0 3 2;
#X connect 14 0 13 0;
#X connect 15 0 3 0;
#X connect 16 0 12 0;
#X connect 17 0 4 0;
#X connect 18 0 3 0;
#X connect 19 0 3 3;
#X connect 20 0 3 0;
#X connect 21 0 3 0;
#X connect 22 0 3 0;
#X connect 23 0 3 0;
#X connect 24 0 3 0;
#X connect 25 0 18 0;
#X connect 25 0 43 0;
#X connect 25 0 46 0;
#X connect 26 0 7 0;
#X connect 27 0 26 0;
#X connect 28 0 3 0;
#X connect 29 0 31 0;
#X connect 29 0 37 0;
#X connect 31 0 24 0;
#X connect 31 1 21 0;
#X connect 31 2 22 0;
#X connect 31 3 23 0;
#X connect 31 4 32 0;
#X connect 32 0 44 0;
#X connect 32 0 45 0;
#X connect 33 0 3 1;
#X connect 34 0 33 0;
#X connect 35 0 34 0;
#X connect 36 0 3 2;
#X connect 37 0 3 0;
#X connect 37 1 3 1;
#X connect 37 2 3 2;
#X connect 37 3 3 3;
#X connect 37 4 9 0;
#X connect 37 5 40 0;
#X connect 37 6 4 0;
#X connect 37 7 12 0;
#X connect 37 8 3 0;
#X connect 39 0 11 0;
#X connect 41 0 40 0;
#X connect 42 0 3 0;
#X connect 43 0 3 0;
#X connect 44 0 3 0;
#X connect 45 0 3 0;
#X connect 46 0 3 0;
