#N canvas 99 218 450 300 10;
#X obj 110 -121 pdp_load;
#X obj 77 -58 pidip_effects_rack;
#X obj 111 72 pdp_xv;
#X floatatom 409 10 5 0 0 0 - - -;
#X floatatom 451 10 5 0 0 0 - - -;
#X obj 227 -23 openpanel;
#X obj 227 -50 bng 15 250 50 0 empty empty empty 0 -6 0 8 -262144 -1
-1;
#X msg 229 39 clear;
#X obj 439 39 hsl 128 15 0 1 0 0 empty empty empty -2 -6 0 8 -262144
-1 -1 6700 1;
#X obj 311 39 pdp_imgloader;
#X msg 227 1 load \$1;
#X msg 326 -16 unhide \$1;
#X obj 326 -37 hradio 15 1 0 8 empty empty empty 0 -6 0 8 -262144 -1
-1 0;
#X obj 487 -142 loadbang;
#X msg 487 -70 load /home/knoppix/PD/src/pidip-0.12.5/patches/images/logo2.jpg
;
#X obj 463 -117 bng 15 250 50 0 empty empty empty 0 -6 0 8 -262144
-1 -1;
#X obj 84 2 pdp-effects;
#X obj 290 -251 playlist all 100 200;
#X msg 316 -310 seek \$1;
#X floatatom 370 -309 5 0 0 0 - - -;
#X obj 177 -169 tgl 15 0 empty empty empty 0 -6 0 8 -262144 -1 -1 0
1;
#X connect 0 0 1 0;
#X connect 1 0 16 0;
#X connect 3 0 9 1;
#X connect 4 0 9 2;
#X connect 5 0 10 0;
#X connect 6 0 5 0;
#X connect 7 0 9 0;
#X connect 8 0 9 3;
#X connect 9 0 2 0;
#X connect 10 0 9 0;
#X connect 11 0 9 0;
#X connect 12 0 11 0;
#X connect 13 0 14 0;
#X connect 14 0 9 0;
#X connect 15 0 14 0;
#X connect 16 0 9 0;
#X connect 17 0 0 0;
#X connect 18 0 17 0;
#X connect 19 0 18 0;
#X connect 20 0 0 1;
