#N canvas 369 126 538 398 8;
#X obj 179 99 pdp_erode;
#X floatatom 205 34 5 0 0 0 - - -;
#X floatatom 220 53 5 0 0 0 - - -;
#X floatatom 234 71 5 0 0 0 - - -;
#X floatatom 237 -46 5 0 0 0 - - -;
#X floatatom 163 20 5 0 0 0 - - -;
#X floatatom 213 21 5 0 0 0 - - -;
#X floatatom 260 20 5 0 0 0 - - -;
#X obj 128 -18 pdp_binary ----;
#X obj 127 134 pdp_xor;
#X floatatom 143 -48 5 0 0 0 - - -;
#X floatatom 195 -46 5 0 0 0 - - -;
#X obj 96 -98 inlet;
#X obj 132 200 outlet;
#X obj 241 -91 inlet;
#X connect 0 0 9 1;
#X connect 1 0 0 1;
#X connect 2 0 0 2;
#X connect 3 0 0 3;
#X connect 4 0 8 6;
#X connect 8 0 0 0;
#X connect 8 0 9 0;
#X connect 8 1 5 0;
#X connect 8 2 6 0;
#X connect 8 3 7 0;
#X connect 9 0 13 0;
#X connect 10 0 8 1;
#X connect 11 0 8 2;
#X connect 12 0 8 0;
#X connect 14 0 10 0;
