#N canvas 0 0 771 300 10;
#X obj 669 50 loadbang;
#X obj 189 19 adc~;
#X text 520 -2 ==== AUDIO SETTINGS ========;
#X msg 522 19 audioquality \$1;
#X msg 246 -22 disconnect;
#X msg 397 187 title the aesthetics of our anger;
#X msg 252 -2 url http://www.indymedia.org;
#X floatatom 202 114 5 0 0 0 - - -;
#X floatatom 186 155 7 0 0 0 - - -;
#X text 317 117 Number of video frames emitted;
#X floatatom 254 117 7 0 0 0 - - -;
#X floatatom 268 127 5 0 0 0 - - -;
#X text 649 125 Framerate : [1 \, 100] \, default 10;
#X obj 183 64 pdp_theonice~;
#X floatatom 297 101 7 0 0 0 - - -;
#X obj 109 210 metro 50;
#X obj 106 233 s streamingtheora2f;
#X obj 91 -15 pdp_scale 160 128;
#X obj 40 -18 inlet;
#X obj 472 -27 inlet;
#X obj 440 31 route 0 1;
#X obj 55 26 spigot;
#X obj 118 39 tgl 15 0 empty empty empty 0 -6 0 8 -262144 -1 -1 0 1
;
#X obj 678 -25 inlet;
#X obj 246 17 OSCroute /play /theonice;
#X msg 402 132 description stream from the data-j;
#X msg 400 158 passwd nemesis;
#X msg 399 215 connect wyn.homelinux.org theora.ogg 8000;
#X msg 393 95 artist delvj;
#X msg 395 71 genre autostream;
#X msg 471 238 connect caracol theora.ogg 8000;
#X obj 702 202;
#X msg 288 216 passwd algo;
#X obj 768 14 loadbang;
#X msg 663 74 audiobitrate 8;
#X msg 657 28 videobitrate 45;
#X msg 518 50 videoquality \$1;
#X msg 600 161 framerate 5;
#X msg 560 -34 0.4;
#X connect 0 0 28 0;
#X connect 0 0 25 0;
#X connect 0 0 26 0;
#X connect 0 0 5 0;
#X connect 0 0 29 0;
#X connect 0 0 34 0;
#X connect 0 0 35 0;
#X connect 0 0 37 0;
#X connect 1 0 13 0;
#X connect 1 1 13 1;
#X connect 3 0 13 0;
#X connect 4 0 13 0;
#X connect 5 0 13 0;
#X connect 6 0 13 0;
#X connect 7 0 15 0;
#X connect 13 0 7 0;
#X connect 13 1 8 0;
#X connect 13 2 10 0;
#X connect 13 3 11 0;
#X connect 13 5 14 0;
#X connect 15 0 16 0;
#X connect 17 0 13 0;
#X connect 18 0 21 0;
#X connect 19 0 20 0;
#X connect 19 0 22 0;
#X connect 20 0 4 0;
#X connect 20 1 27 0;
#X connect 21 0 17 0;
#X connect 22 0 21 1;
#X connect 23 0 24 0;
#X connect 24 0 22 0;
#X connect 24 1 13 0;
#X connect 25 0 13 0;
#X connect 26 0 13 0;
#X connect 27 0 13 0;
#X connect 28 0 13 0;
#X connect 29 0 13 0;
#X connect 30 0 13 0;
#X connect 32 0 13 0;
#X connect 33 0 38 0;
#X connect 34 0 13 0;
#X connect 35 0 13 0;
#X connect 36 0 13 0;
#X connect 37 0 13 0;
#X connect 38 0 3 0;
#X connect 38 0 36 0;
