#N canvas 300 325 687 511 10;
#X msg 306 181 feed http://localhost:8090/feed1.ffm;
#X floatatom 183 261 5 0 0 0 - - -;
#X text 231 262 Streaming status;
#X floatatom 219 284 5 0 0 0 - - -;
#X text 262 284 Number of video frames emitted;
#X text 309 142 BEWARE : All the stream parameters must be set in ffserver
configuration file.;
#X msg 308 209 starve;
#X text 367 211 Close the current feed;
#X floatatom 257 304 5 0 0 0 - - -;
#X text 301 305 Number of video frames dropped;
#X obj 183 235 pdp_ffmpeg~;
#X obj 161 131 adc~;
#X obj 92 82 inlet;
#X obj 235 81 inlet;
#X obj 235 132 route 0 1;
#X msg 310 233 feed http://hackitectura.net:8090/feed2.ffm;
#X msg 361 253 feed http://nabla.ath.cx:8090/feed2.ffm;
#X msg 361 198 feed http://10.64.251.1:8090/feed2.ffm;
#X connect 0 0 10 0;
#X connect 6 0 10 0;
#X connect 10 0 1 0;
#X connect 10 1 3 0;
#X connect 10 2 8 0;
#X connect 11 0 10 0;
#X connect 11 1 10 1;
#X connect 12 0 10 0;
#X connect 13 0 14 0;
#X connect 14 0 6 0;
#X connect 14 1 0 0;
#X connect 15 0 10 0;
#X connect 16 0 10 0;
#X connect 17 0 10 0;
