#N canvas 512 52 592 549 10;
#X obj 118 87 pdp_load;
#X obj 215 93 webcam;
#X obj -18 208 playlist all 125 200;
#X msg 3 -3 location /home/knoppix/telefonica/;
#X obj 156 170 pidip_effects_rack;
#X obj 134 446 pdp-effects;
#X obj 134 477 pdp_xv;
#X floatatom 543 279 5 0 0 0 - - -;
#X floatatom 659 283 5 0 0 0 - - -;
#X msg 60 519 clear;
#X obj 127 291 pdp_imgloader;
#X msg 481 2 load /home/knoppix/AulaMarketing3.jpg;
#X msg 481 22 load /home/knoppix/AulaMarketing4.jpg 20 40;
#X obj 540 155 metro 70;
#X obj 540 122 tgl 15 0 empty empty empty 0 -6 0 8 -262144 -1 -1 1
1;
#X floatatom 591 127 5 0 0 0 - - -;
#X floatatom 611 177 5 0 0 0 - - -;
#X obj 543 227 * 2;
#X floatatom 612 213 5 0 0 0 - - -;
#X obj 543 258 - 1000;
#X obj 660 154 metro 70;
#X obj 660 122 tgl 15 0 empty empty empty 0 -6 0 8 -262144 -1 -1 1
1;
#X floatatom 711 121 5 0 0 0 - - -;
#X floatatom 711 181 5 0 0 0 - - -;
#X obj 659 233 * 2;
#X floatatom 731 219 5 0 0 0 - - -;
#X obj 659 261 - 50;
#X obj 302 4 loadbang;
#X obj 247 21 tgl 15 0 empty empty empty 0 -6 0 8 -262144 -1 -1 1 1
;
#X floatatom 416 187 5 0 0 0 - - -;
#X obj 416 138 bng 15 250 50 0 empty empty empty 0 -6 0 8 -262144 -1
-1;
#X obj 317 429 adc~;
#X obj 300 480 bonk~;
#X obj 399 480 bonk~;
#X obj 300 510 bng 15 250 50 0 empty empty empty 0 -6 0 8 -262144 -1
-1;
#X obj 399 510 bng 15 250 50 0 empty empty empty 0 -6 0 8 -262144 -1
-1;
#X msg 561 387 113 bang;
#X text 630 388 aging;
#X msg 561 414 105 bang;
#X text 630 415 simura;
#X msg 561 440 50 bang;
#X msg 561 466 51 bang;
#X text 630 441 ascii;
#X text 630 467 puzzle;
#X obj 303 153 r pidip1;
#X obj 536 522 s pidip1;
#X msg 559 492 115 bang;
#X text 628 493 quark;
#X obj 690 390 metro 10000;
#X obj 756 366 tgl 15 0 empty empty empty 0 -6 0 8 -262144 -1 -1 0
1;
#X obj 690 411 metro 25000;
#X obj 689 430 metro 52000;
#X obj 689 450 metro 34000;
#X obj 689 472 metro 80000;
#X msg 617 154 1000;
#X msg 755 177 50;
#X obj 118 239 pdp_aging;
#X obj 187 237 pdp_ascii;
#X obj 255 238 pdp_puzzle;
#X obj 416 118 metro 10000;
#X obj 416 98 tgl 15 0 empty empty empty 0 -6 0 8 -262144 -1 -1 1 1
;
#X obj 336 237 pdp_motion_phase;
#X obj 134 396 pdp_motion_blur;
#X obj 143 335 pdp_route 3;
#X obj 481 42 s image;
#X obj 63 475 r image;
#X floatatom 422 360 5 0 0 0 - - -;
#X obj 422 288 tgl 15 0 empty empty empty 0 -6 0 8 -262144 -1 -1 1
1;
#X obj 422 335 random 3;
#X msg 127 62 open /home/knoppix/telefonica//parte06.mov;
#X obj 543 200 countund 1000;
#X obj 660 203 countund 50;
#X obj -3 412 bng 15 250 50 0 empty empty empty 0 -6 0 8 -262144 -1
-1;
#X obj -3 437 int-control;
#X msg -19 466 seek \$1;
#X floatatom -3 547 5 0 0 0 - - -;
#X obj 450 229 bng 15 250 50 0 empty empty empty 0 -6 0 8 -262144 -1
-1;
#X obj 469 371 vsl 15 128 0 1 0 1 empty empty empty 0 -8 0 8 -262144
-1 -1 5200 1;
#X obj 246 360 pdp_quark;
#X obj 422 308 metro 60000;
#X obj 335 264 pdp_simura;
#X floatatom 484 253 5 0 0 0 - - -;
#X obj 484 204 bng 15 250 50 0 empty empty empty 0 -6 0 8 -262144 -1
-1;
#X obj 484 164 tgl 15 0 empty empty empty 0 -6 0 8 -262144 -1 -1 1
1;
#X obj 484 228 random 8;
#X obj 152 24 metro 30000;
#X obj 484 184 metro 4000;
#X obj 259 304 pdp_transform;
#X floatatom 230 513 5 0 0 0 - - -;
#X obj 230 447 tgl 15 0 empty empty empty 0 -6 0 8 -262144 -1 -1 1
1;
#X obj 230 488 random 5;
#X obj 347 330 pdp_dice;
#X obj 180 198 pdp_route 8;
#X floatatom 59 615 5 0 0 0 - - -;
#X obj 59 546 tgl 15 0 empty empty empty 0 -6 0 8 -262144 -1 -1 1 1
;
#X obj 188 506 + 3;
#X obj 59 591 random 4;
#X obj 416 162 random 8;
#X obj 59 567 metro 5000;
#X obj 230 467 metro 3000;
#X obj 87 151 pdp_add;
#X obj 324 207 + 1;
#X obj -1 126 pdp_route 3;
#X obj 85 127 pdp_route 3;
#X floatatom -3 100 5 0 0 0 - - -;
#X obj 31 56 random 3;
#X obj 190 130 pdp_scale 480 360;
#X obj 46 107 pdp_scale 480 360;
#X connect 0 0 107 0;
#X connect 0 1 72 0;
#X connect 1 0 106 0;
#X connect 2 0 0 0;
#X connect 3 0 2 0;
#X connect 4 0 92 0;
#X connect 5 0 6 0;
#X connect 7 0 10 1;
#X connect 8 0 10 2;
#X connect 9 0 10 0;
#X connect 10 0 63 0;
#X connect 11 0 64 0;
#X connect 12 0 64 0;
#X connect 13 0 70 0;
#X connect 14 0 13 0;
#X connect 15 0 13 1;
#X connect 16 0 70 1;
#X connect 17 0 19 0;
#X connect 18 0 17 1;
#X connect 19 0 7 0;
#X connect 20 0 71 0;
#X connect 21 0 20 0;
#X connect 22 0 20 1;
#X connect 23 0 71 1;
#X connect 24 0 26 0;
#X connect 25 0 24 1;
#X connect 26 0 8 0;
#X connect 27 0 12 0;
#X connect 27 0 21 0;
#X connect 27 0 14 0;
#X connect 27 0 60 0;
#X connect 27 0 3 0;
#X connect 27 0 69 0;
#X connect 27 0 67 0;
#X connect 27 0 28 0;
#X connect 27 0 83 0;
#X connect 27 0 89 0;
#X connect 27 0 94 0;
#X connect 27 0 1 0;
#X connect 27 0 0 0;
#X connect 28 0 85 0;
#X connect 29 0 92 1;
#X connect 30 0 97 0;
#X connect 31 0 32 0;
#X connect 31 1 33 0;
#X connect 32 0 34 0;
#X connect 33 0 35 0;
#X connect 36 0 45 0;
#X connect 38 0 45 0;
#X connect 40 0 45 0;
#X connect 41 0 45 0;
#X connect 44 0 4 1;
#X connect 46 0 45 0;
#X connect 48 0 36 0;
#X connect 49 0 48 0;
#X connect 49 0 50 0;
#X connect 49 0 51 0;
#X connect 49 0 52 0;
#X connect 49 0 53 0;
#X connect 50 0 38 0;
#X connect 51 0 40 0;
#X connect 52 0 41 0;
#X connect 53 0 46 0;
#X connect 54 0 70 1;
#X connect 55 0 71 1;
#X connect 56 0 10 0;
#X connect 57 0 10 0;
#X connect 58 0 10 0;
#X connect 59 0 30 0;
#X connect 60 0 59 0;
#X connect 61 0 10 0;
#X connect 62 0 5 0;
#X connect 63 0 62 0;
#X connect 63 1 62 0;
#X connect 63 2 78 0;
#X connect 65 0 10 0;
#X connect 66 0 63 1;
#X connect 67 0 79 0;
#X connect 68 0 66 0;
#X connect 69 0 0 0;
#X connect 70 0 17 0;
#X connect 71 0 24 0;
#X connect 72 0 73 0;
#X connect 73 0 74 0;
#X connect 73 0 75 0;
#X connect 74 0 2 0;
#X connect 76 0 68 0;
#X connect 77 0 61 1;
#X connect 78 0 62 0;
#X connect 79 0 68 0;
#X connect 80 0 10 0;
#X connect 81 0 80 2;
#X connect 81 0 101 0;
#X connect 82 0 84 0;
#X connect 83 0 86 0;
#X connect 84 0 81 0;
#X connect 85 0 105 0;
#X connect 86 0 82 0;
#X connect 87 0 10 0;
#X connect 88 0 87 1;
#X connect 89 0 99 0;
#X connect 90 0 88 0;
#X connect 91 0 10 0;
#X connect 92 0 56 0;
#X connect 92 1 57 0;
#X connect 92 2 58 0;
#X connect 92 3 61 0;
#X connect 92 4 10 0;
#X connect 92 5 80 0;
#X connect 92 6 87 0;
#X connect 92 7 91 0;
#X connect 93 0 95 0;
#X connect 94 0 98 0;
#X connect 95 0 91 1;
#X connect 96 0 93 0;
#X connect 97 0 29 0;
#X connect 98 0 96 0;
#X connect 99 0 90 0;
#X connect 100 0 4 0;
#X connect 101 0 58 1;
#X connect 102 0 4 0;
#X connect 102 2 100 0;
#X connect 103 1 4 0;
#X connect 103 2 100 1;
#X connect 105 0 102 1;
#X connect 105 0 104 0;
#X connect 105 0 103 1;
#X connect 106 0 103 0;
#X connect 107 0 102 0;
