#N canvas 69 60 917 559 10;
#X text 133 27 texture unit;
#X obj 149 112 inlet pdp1;
#X obj 24 80 inlet pdp_mix;
#X obj 334 77 inlet image1;
#X floatatom 95 127 5 0 0 0 - - -;
#X obj 26 179 pdp_convert texture/*/*;
#X obj 26 202 s tex1;
#X obj 129 224 pdp_convert texture/*/*;
#X floatatom 309 117 5 0 0 0 - - -;
#X obj 240 145 pdp_gain 0.666;
#X obj 240 169 pdp_convert texture/*/*;
#X obj 338 215 pdp_convert texture/*/*;
#X obj 516 268 pdp_convert texture/*/*;
#X obj 129 247 s tex2;
#X obj 240 192 s tex3;
#X obj 338 238 s tex4;
#X obj 516 291 s tex5;
#X obj 222 76 inlet;
#X obj 612 18 bng 15 250 50 0 empty empty empty 0 -6 0 8 -262144 -1
-1;
#X msg 326 -2 load /home/caedes/sprites/illuminati.png 0 0;
#X msg 758 40 quality 1;
#X obj 758 -21 loadbang;
#X msg 643 755 estirar 1;
#X msg 758 6 dim 512 512;
#X obj 625 43 pdp_constant;
#X obj 517 325 pdp_convert texture/*/*;
#X obj 516 387 pdp_convert texture/*/*;
#X obj 516 447 pdp_convert texture/*/*;
#X obj 47 409 bng 15 250 50 0 empty empty empty 0 -6 0 8 -262144 -1
-1;
#X obj 60 434 pdp_constant;
#X obj 177 413 bng 15 250 50 0 empty empty empty 0 -6 0 8 -262144 -1
-1;
#X obj 190 438 pdp_constant;
#X obj 292 414 bng 15 250 50 0 empty empty empty 0 -6 0 8 -262144 -1
-1;
#X obj 305 439 pdp_constant;
#X msg 177 385 r bang-tex7;
#X msg 292 386 r bang-tex8;
#X obj 516 472 s tex8;
#X obj 516 412 s tex7;
#X obj 517 348 s tex6;
#X msg 33 335 quality 1;
#X obj 33 271 loadbang;
#X msg 51 357 estirar 1;
#X msg 33 298 dim 512 512;
#X obj 482 70 inlet OSC;
#X msg 307 21 load /home/caedes/sprites/chao.png 0 0;
#X obj 661 -6 r bang-tex5;
#X obj 135 314 r bang-tex6;
#X obj 230 317 r bang-tex7;
#X obj 329 312 r bang-tex8;
#X obj 472 171 t b a;
#X obj 60 504 t b a;
#X obj 189 501 t b a;
#X obj 303 504 t b a;
#X obj 110 528 s bang-tex6;
#X obj 225 535 s bang-tex7;
#X obj 335 535 s bang-tex8;
#X obj 689 118 s bang-tex5;
#X obj 191 468 png3d;
#X msg 757 74 fit 1;
#X obj 712 223 webcam;
#X obj 712 195 tgl 15 0 empty empty empty 0 -6 0 8 -262144 -1 -1 0
1;
#X obj 714 249 tgl 15 0 empty empty empty 0 -6 0 8 -262144 -1 -1 0
1;
#X obj 715 306 tgl 15 0 empty empty empty 0 -6 0 8 -262144 -1 -1 0
1;
#X obj 718 360 tgl 15 0 empty empty empty 0 -6 0 8 -262144 -1 -1 0
1;
#X msg 751 194 2;
#X msg 754 250 3;
#X msg 753 307 4;
#X msg 756 359 5;
#X obj 829 246 loadbang;
#X obj 451 127 OSCroute /img1 /img2 /img3 /img4 /cam1 /cam2 /cam3 /cam4
;
#X obj 714 275 webcam;
#X obj 715 334 webcam;
#X obj 718 388 webcam;
#X obj 61 464 png3d;
#X obj 628 73 png3d;
#X obj 313 473 png3d;
#X connect 1 0 7 0;
#X connect 2 0 5 0;
#X connect 3 0 11 0;
#X connect 5 0 6 0;
#X connect 7 0 13 0;
#X connect 8 0 9 1;
#X connect 9 0 10 0;
#X connect 10 0 14 0;
#X connect 11 0 15 0;
#X connect 12 0 16 0;
#X connect 17 0 10 0;
#X connect 18 0 24 0;
#X connect 19 0 49 0;
#X connect 20 0 74 0;
#X connect 21 0 20 0;
#X connect 21 0 23 0;
#X connect 21 0 58 0;
#X connect 23 0 24 0;
#X connect 24 0 74 0;
#X connect 25 0 38 0;
#X connect 26 0 37 0;
#X connect 27 0 36 0;
#X connect 28 0 29 0;
#X connect 29 0 73 0;
#X connect 30 0 31 0;
#X connect 31 0 57 0;
#X connect 32 0 33 0;
#X connect 33 0 75 0;
#X connect 34 0 30 0;
#X connect 35 0 32 0;
#X connect 39 0 57 0;
#X connect 39 0 73 0;
#X connect 39 0 75 0;
#X connect 40 0 39 0;
#X connect 40 0 42 0;
#X connect 40 0 41 0;
#X connect 41 0 57 0;
#X connect 41 0 73 0;
#X connect 41 0 75 0;
#X connect 42 0 29 0;
#X connect 42 0 31 0;
#X connect 42 0 33 0;
#X connect 43 0 69 0;
#X connect 44 0 49 0;
#X connect 44 0 50 0;
#X connect 45 0 18 0;
#X connect 46 0 28 0;
#X connect 47 0 30 0;
#X connect 48 0 32 0;
#X connect 49 0 18 0;
#X connect 49 1 74 1;
#X connect 50 0 28 0;
#X connect 50 1 73 1;
#X connect 51 0 30 0;
#X connect 51 1 57 1;
#X connect 52 0 32 0;
#X connect 52 1 75 1;
#X connect 57 0 26 0;
#X connect 57 1 54 0;
#X connect 58 0 74 0;
#X connect 59 0 12 0;
#X connect 60 0 59 0;
#X connect 61 0 70 0;
#X connect 62 0 71 0;
#X connect 63 0 72 0;
#X connect 64 0 59 1;
#X connect 65 0 70 1;
#X connect 66 0 71 1;
#X connect 67 0 72 1;
#X connect 68 0 64 0;
#X connect 68 0 65 0;
#X connect 68 0 66 0;
#X connect 68 0 67 0;
#X connect 69 0 49 0;
#X connect 69 1 50 0;
#X connect 69 2 51 0;
#X connect 69 3 52 0;
#X connect 69 4 59 3;
#X connect 69 5 70 3;
#X connect 69 6 71 3;
#X connect 69 7 72 3;
#X connect 70 0 25 0;
#X connect 71 0 26 0;
#X connect 72 0 27 0;
#X connect 73 0 25 0;
#X connect 73 1 53 0;
#X connect 74 0 12 0;
#X connect 74 1 56 0;
#X connect 75 0 27 0;
#X connect 75 1 55 0;
