#N canvas 58 352 649 300 10;
#X text 117 42 texture receiver;
#X obj 30 91 r tex1;
#X obj 113 94 r tex2;
#X obj 184 99 r tex3;
#X obj 244 94 r tex4;
#X obj 327 97 r tex5;
#X obj 398 102 r tex6;
#X obj 35 140 spigot;
#X obj 109 139 spigot;
#X obj 186 144 spigot;
#X obj 249 144 spigot;
#X obj 329 144 spigot;
#X obj 392 144 spigot;
#X obj 302 35 select 1 2 3 4 5 6 7;
#X msg 252 60 0;
#X floatatom 287 14 5 0 0 0 - - -;
#X msg 84 88 1;
#X msg 168 79 1;
#X msg 220 78 1;
#X msg 284 73 1;
#X msg 366 73 1;
#X msg 423 70 1;
#X obj 159 231 outlet;
#X obj 358 -5 hradio 15 1 0 9 empty empty empty 0 -6 0 8 -262144 -1
-1 5;
#X obj 185 10 inlet;
#X obj 86 19 loadbang;
#X msg 57 43 1;
#X obj 346 171 t b b;
#X obj 335 232 s bang-tex5;
#X obj 312 214 bng 15 250 50 0 empty empty empty 0 -6 0 8 -262144 -1
-1;
#X obj 432 166 t b b;
#X obj 519 166 t b b;
#X obj 601 164 t b b;
#X obj 450 141 spigot;
#X obj 456 99 r tex7;
#X obj 520 139 spigot;
#X obj 526 97 r tex8;
#X msg 575 72 1;
#X msg 483 72 1;
#X obj 421 227 s bang-tex6;
#X obj 508 227 s bang-tex7;
#X obj 590 225 s bang-tex8;
#X connect 1 0 7 0;
#X connect 2 0 8 0;
#X connect 3 0 9 0;
#X connect 4 0 10 0;
#X connect 5 0 11 0;
#X connect 6 0 12 0;
#X connect 7 0 22 0;
#X connect 8 0 22 0;
#X connect 9 0 22 0;
#X connect 10 0 22 0;
#X connect 11 0 22 0;
#X connect 12 0 22 0;
#X connect 13 0 16 0;
#X connect 13 1 17 0;
#X connect 13 2 18 0;
#X connect 13 3 19 0;
#X connect 13 4 27 0;
#X connect 13 5 30 0;
#X connect 13 6 31 0;
#X connect 13 7 32 0;
#X connect 14 0 7 1;
#X connect 14 0 8 1;
#X connect 14 0 9 1;
#X connect 14 0 10 1;
#X connect 14 0 11 1;
#X connect 14 0 12 1;
#X connect 14 0 33 1;
#X connect 14 0 35 1;
#X connect 15 0 14 0;
#X connect 15 0 13 0;
#X connect 16 0 7 1;
#X connect 17 0 8 1;
#X connect 18 0 9 1;
#X connect 19 0 10 1;
#X connect 20 0 11 1;
#X connect 21 0 12 1;
#X connect 23 0 15 0;
#X connect 24 0 23 0;
#X connect 25 0 26 0;
#X connect 26 0 13 0;
#X connect 27 0 28 0;
#X connect 27 0 29 0;
#X connect 27 1 20 0;
#X connect 30 0 39 0;
#X connect 30 1 21 0;
#X connect 31 0 40 0;
#X connect 31 1 38 0;
#X connect 32 0 41 0;
#X connect 32 1 37 0;
#X connect 33 0 22 0;
#X connect 34 0 33 0;
#X connect 35 0 22 0;
#X connect 36 0 35 0;
#X connect 37 0 35 1;
#X connect 38 0 33 1;
