#N canvas 82 90 905 489 10;
#X obj 178 47 bng 15 250 50 0 empty empty empty 20 8 0 8 -262144 -1
-1;
#X msg 135 48 stop;
#X msg 200 81 open /dev/video;
#X text 195 47 Live;
#X obj 134 187 outlet;
#X obj 84 25 inlet;
#X msg 359 12 close;
#X msg 359 38 type yv12;
#X msg 360 91 dim 320 240;
#X msg 361 167 channel \$1;
#X floatatom 361 143 5 0 0 0 - - -;
#X floatatom 359 290 5 0 0 0 - - -;
#X msg 359 314 freq \$1;
#X floatatom 395 404 5 0 0 0 - - -;
#X msg 420 314 freqMHz \$1;
#X msg 361 197 norm PAL;
#X msg 360 241 norm SECAM;
#X msg 360 219 norm NTSC;
#X msg 360 262 norm AUTO;
#X obj 449 129 vsl 15 128 0 1000 0 0 empty empty empty 0 -8 0 8 -262144
-1 -1 0 0;
#X obj 482 138 vsl 15 128 0 1000 0 0 empty empty empty 0 -8 0 8 -262144
-1 -1 0 1;
#X obj 211 213 tgl 15 0 empty empty empty 0 -6 0 8 -262144 -1 -1 0
1;
#X obj 66 232 metro 100;
#X obj 70 184 tgl 15 0 empty empty empty 0 -6 0 8 -262144 -1 -1 0 1
;
#X floatatom 127 209 5 0 0 0 - - -;
#X msg 311 114 2;
#X msg 313 148 1;
#X msg 319 179 0;
#X obj 281 269 tgl 15 0 empty empty empty 0 -6 0 8 -262144 -1 -1 0
1;
#X obj 136 288 metro 100;
#X obj 140 240 tgl 15 0 empty empty empty 0 -6 0 8 -262144 -1 -1 0
1;
#X floatatom 197 265 5 0 0 0 - - -;
#X text 194 344 evangelic;
#X text 200 371 tele5;
#X msg 269 375 775.25;
#X text 195 404 antena3;
#X text 201 431 canal+;
#X text 55 346 telek;
#X text 43 378 tele madrid;
#X text 56 406 tve1;
#X text 97 322 algunos canales de madrid;
#X msg 130 345 543.25;
#X msg 130 377 712.25;
#X msg 131 405 695.25;
#X msg 269 343 687.25;
#X msg 270 403 823.25;
#X msg 270 435 799.25;
#X msg 61 516 dither \$1;
#X floatatom 13 518 5 0 0 0 - - -;
#X floatatom 14 541 5 0 0 0 - - -;
#X msg 63 540 blend \$1;
#X floatatom 14 562 5 0 0 0 - - -;
#X msg 64 561 antialias \$1;
#X msg 30 489 font helmetr/25;
#X obj 134 111 pdp_v4l /dev/video RGB24;
#X msg 360 62 type rgba;
#X msg 30 489 font helmetr/14;
#X floatatom 233 120 5 0 0 0 - - -;
#X floatatom 287 125 5 0 0 0 - - -;
#X obj 391 498 r texsto;
#X obj 133 81 metro 40;
#X msg 360 114 dim 720 576;
#X obj 172 235 int-control;
#X obj 242 291 int-control;
#X obj 314 17 inlet;
#X msg 416 22 open /dev/video0;
#X msg 437 53 open /dev/video1;
#X msg 461 81 open /dev/video2;
#X obj 539 12 inlet;
#X obj 416 -4 select 1 2 3 4 5 6;
#X msg 498 112 open /dev/video3;
#X msg 519 143 open /dev/video4;
#X msg 543 171 open /dev/video5;
#X obj 631 9 inlet;
#X obj 736 116 route 0 1;
#X floatatom 715 250 5 0 0 2 fps - -;
#X obj 669 274 /;
#X msg 669 249 1000;
#X floatatom 674 305 5 0 0 0 - - -;
#X text 594 281 Frame command;
#X obj 627 42 OSCroute /inlet /channel /on /device /fps;
#X connect 0 0 60 0;
#X connect 1 0 60 0;
#X connect 2 0 54 0;
#X connect 5 0 60 0;
#X connect 7 0 54 0;
#X connect 8 0 54 0;
#X connect 9 0 54 0;
#X connect 10 0 9 0;
#X connect 11 0 12 0;
#X connect 12 0 54 0;
#X connect 13 0 14 0;
#X connect 14 0 54 0;
#X connect 15 0 54 0;
#X connect 16 0 54 0;
#X connect 17 0 54 0;
#X connect 18 0 54 0;
#X connect 19 0 13 0;
#X connect 20 0 11 0;
#X connect 21 0 62 1;
#X connect 22 0 62 0;
#X connect 23 0 22 0;
#X connect 24 0 22 1;
#X connect 25 0 9 0;
#X connect 26 0 9 0;
#X connect 27 0 9 0;
#X connect 28 0 63 1;
#X connect 29 0 63 0;
#X connect 30 0 29 0;
#X connect 31 0 29 1;
#X connect 34 0 13 0;
#X connect 41 0 13 0;
#X connect 42 0 13 0;
#X connect 43 0 13 0;
#X connect 44 0 13 0;
#X connect 45 0 13 0;
#X connect 46 0 13 0;
#X connect 48 0 47 0;
#X connect 49 0 50 0;
#X connect 51 0 52 0;
#X connect 54 0 4 0;
#X connect 55 0 54 0;
#X connect 60 0 54 0;
#X connect 61 0 54 0;
#X connect 62 0 11 0;
#X connect 63 0 13 0;
#X connect 64 0 69 0;
#X connect 65 0 54 0;
#X connect 66 0 54 0;
#X connect 67 0 54 0;
#X connect 68 0 9 0;
#X connect 69 0 65 0;
#X connect 69 1 66 0;
#X connect 69 2 67 0;
#X connect 69 3 70 0;
#X connect 69 4 71 0;
#X connect 69 5 72 0;
#X connect 70 0 54 0;
#X connect 71 0 54 0;
#X connect 72 0 54 0;
#X connect 73 0 80 0;
#X connect 74 0 1 0;
#X connect 74 1 0 0;
#X connect 75 0 76 1;
#X connect 75 0 77 0;
#X connect 76 0 78 0;
#X connect 77 0 76 0;
#X connect 78 0 60 1;
#X connect 80 0 54 0;
#X connect 80 1 9 0;
#X connect 80 2 74 0;
#X connect 80 3 69 0;
#X connect 80 4 75 0;
